<?xml version="1.0" standalone="no"?>
<!DOCTYPE svg PUBLIC "-//W3C//DTD SVG 1.1//EN" "http://www.w3.org/Graphics/SVG/1.1/DTD/svg11.dtd" >
<svg xmlns="http://www.w3.org/2000/svg" xmlns:xlink="http://www.w3.org/1999/xlink" version="1.1">
<metadata></metadata>
<defs>
<font id="the_artisanregular" horiz-adv-x="819" >
<font-face units-per-em="2048" ascent="1638" descent="-410" />
<missing-glyph horiz-adv-x="675" />
<glyph unicode="&#xd;" horiz-adv-x="1040" />
<glyph horiz-adv-x="0" />
<glyph horiz-adv-x="0" />
<glyph unicode=" "  horiz-adv-x="675" />
<glyph unicode="&#x09;" horiz-adv-x="675" />
<glyph unicode="&#xa0;" horiz-adv-x="675" />
<glyph unicode="!" horiz-adv-x="774" d="M231 240v2q0 19 18 38.5t38 20.5q26 0 26 -20v-2q0 -20 -16 -40t-31 -22h-4q-11 0 -21 6.5t-10 16.5zM336 483q0 29 88 241t203 458q122 264 181.5 373t84.5 110q14 0 14 -12v-2q0 -26 -131 -279q-79 -156 -232.5 -484.5t-174.5 -389.5q-6 -21 -19 -21q-12 0 -14 6z" />
<glyph unicode="&#x22;" horiz-adv-x="423" d="M78 1686q1 28 32 75t64 82q25 21 37 21l12 -6q0 -4 -5.5 -11t-15 -18.5t-14.5 -18.5q-16 -27 -27 -45.5t-14.5 -25t-12 -20t-23.5 -36.5q-16 -16 -23 -16q-10 0 -10 19zM178 1608q0 7 32.5 71.5t76.5 130.5t67 68q17 0 17 -8v-2q0 -4 -9 -13q-11 -5 -55 -81t-61 -121 q-3 -8 -8.5 -22t-8.5 -21t-7 -15t-7.5 -11.5t-7.5 -4.5q-10 0 -19 7.5t-10 21.5z" />
<glyph unicode="#" horiz-adv-x="831" d="M72 473q1 10 31 13t104 3h92l96 162q-156 -6 -170 -6q-26 0 -26 4q0 16 28 21t115 10q43 2 68 4l35 49t30.5 42.5t23 30t21.5 23t17 9.5q2 -1 5 -2q7 -2 7 -13q0 -15 -12.5 -38t-20.5 -23q-9 0 -30 -31t-21 -41l2 -2q6 -3 133 -12q14 24 33 56t29 49t23 38.5t20.5 32 t16 21t14.5 14.5t12 4q8 0 10 -10q0 -12 -55.5 -103.5t-55.5 -99.5q4 -8 29 -8q37 0 82 -13t45 -22q0 -10 -10 -10l-172 18q-19 -36 -42.5 -76.5t-33.5 -58t-10 -21.5t47 -4q73 0 73 -20q0 -10 -49 -10l-90 2q-84 -137 -131 -240q-40 -86 -57 -86h-2q-2 0 -2 8q3 21 18.5 55 t63.5 127q55 104 55 125q0 11 -12 15t-41 4h-91q-10 -20 -29 -56t-26 -49.5t-18 -36t-16.5 -37.5t-10.5 -30q-3 -16 -10 -27.5t-12 -11.5q-11 4 -11 18q0 30 17 70t59 120q11 20 16 30q0 7 -102 10t-102 10zM340 498q0 -6 156 -6q77 137 77 145t-145 8q-13 -21 -28 -44.5 t-24.5 -38.5t-18.5 -29.5t-13 -23t-4 -11.5z" />
<glyph unicode="$" horiz-adv-x="909" d="M111 412q0 30 10.5 52.5t19.5 22.5q8 0 9.5 -22.5t4.5 -53t13 -44.5q12 -20 51.5 -37t69.5 -17q17 0 32 28.5t89 203.5q1 3 2 4q24 60 52.5 126t41 96.5t12.5 39.5q0 12 -15.5 19t-66.5 31t-110 65q-58 38 -58 102q0 72 109 141.5t360 157.5q28 11 41 23.5t35 50.5 q98 175 128.5 221.5t49.5 46.5q9 0 19 -9t10 -18q0 -21 -80 -147.5t-80 -128.5t12 -2l64 2q122 0 160 -59q18 -27 18 -54q0 -22 -18 -63q-19 -36 -76.5 -98.5t-87.5 -79.5q-34 -21 -82 -21q-27 0 -39 10.5t-12 22.5q0 21 29 31t53 10h6q26 0 94 76t68 116q0 31 -32.5 45.5 t-80.5 14.5q-36 0 -72 -7t-41 -12l-237 -469q10 -7 35 -23.5t34.5 -23.5t30 -21.5t29 -22.5t23.5 -22t21 -24.5t14 -24t10.5 -28t2.5 -29.5q0 -79 -62.5 -156t-166 -128.5t-215.5 -57.5l-117 -315q-35 -96 -49 -96q-10 0 -10 14q0 23 47 170.5t68 191.5q8 11 8 23 q0 16 -25 16h-14q-35 0 -79 34t-56 69q-4 12 -4 37zM307 1024q0 -26 33 -55q24 -22 103 -67.5t92 -45.5q10 0 105 197.5t95 218.5l-2 2q-102 -30 -220.5 -83t-164.5 -97q-41 -41 -41 -70zM358 313l2 -2q13 0 129 33q67 23 100 42t73 60q88 88 88 154q0 68 -99 139 q-58 43 -71 43q-10 0 -18 -11.5t-25 -45.5q-179 -398 -179 -412z" />
<glyph unicode="%" horiz-adv-x="968" d="M-285 -16q0 12 82 105t170 181q168 171 486.5 460t416.5 382q89 86 141 154t52 125q0 54 -36 86t-103 32q-36 0 -80 -12q-3 -1 -12 -3t-17 -4t-16.5 -4.5t-13.5 -6t-5 -6.5q-8 -91 -84 -223t-179.5 -239.5t-182.5 -133.5q-37 -15 -64 -15q-80 0 -80 103q0 117 111 303.5 t219 249.5q36 18 47 18l17 -2q8 -3 9.5 -15t8.5 -12q3 0 45.5 14.5t67.5 14.5q53 0 59 -27l6 -2q10 0 49 13q29 10 84 10q85 0 133 -41t48 -109q0 -100 -199 -303q-67 -70 -148 -143t-171 -147.5t-95 -79.5q-200 -176 -375 -348t-280 -291q-89 -95 -105 -95q-6 0 -6 11z M225 971q0 -74 51 -74q23 0 39 8q65 27 132 87.5t118.5 130.5t93.5 141t64 124.5t22 75.5v4q-95 -38 -139 -38q-33 0 -43 18q-5 14 -24 14q-10 -2 -19.5 -8.5t-18.5 -16.5t-12 -12q-77 -62 -170.5 -214t-93.5 -240zM264 96q0 43 22 100t62 120t72 107.5t76.5 101.5t50.5 65 q8 11 8 14q0 6 -7 8.5t-7 3.5q2 20 53.5 43t112.5 23q13 -1 29 -7t37 -20.5t34.5 -44t13.5 -69.5q0 -47 -27.5 -120t-80.5 -151q-55 -84 -163.5 -178t-191.5 -94q-42 0 -68 27.5t-26 70.5zM305 98q0 -49 37 -61h14q63 0 165.5 77t172.5 191q84 138 84 232q0 39 -19 69.5 t-65 30.5q-18 0 -41 -10q-35 -20 -130.5 -132t-143.5 -194q-74 -128 -74 -203zM610 1464l6 -4l11 -2q36 0 112 31q0 4 -10 4q-25 0 -72 -11t-47 -18z" />
<glyph unicode="&#x26;" horiz-adv-x="1308" d="M137 377q0 43 23 104q28 55 106 142t146 139q63 48 172.5 109.5t208.5 105.5q10 5 22.5 10t19.5 8t15.5 6.5t13 6t8.5 5t5.5 4t1.5 3.5q0 5 -62 8q-98 6 -167 28.5t-91 53.5q-12 24 -12 41q0 19 18 57q40 65 172.5 154.5t241.5 124.5q34 8 55 22q8 8 130.5 211.5 t138.5 218.5q9 9 18 9q5 -3 6 -4q0 -21 -51.5 -113t-154.5 -264q-17 -27 -25 -41q33 1 59.5 2t45 1.5t50.5 0.5q73 0 93 -13.5t20 -56.5q0 -48 -28 -84.5t-56 -36.5q-30 0 -33 52q0 12 2 21t3.5 13t6.5 12.5t7 12.5q0 8 -49 8q-53 0 -103.5 -12t-60.5 -27q-9 -12 -17 -12 q-5 2 -9 4t-7.5 3t-9.5 1q-18 0 -103 -39q-127 -62 -212 -126t-85 -99q0 -64 279 -92q104 -9 104 -25q0 -15 -131 -67q-241 -96 -409 -213q-106 -79 -192.5 -191.5t-86.5 -175.5q0 -51 46 -90t120 -51q34 -6 55 -6q28 0 97 14q138 32 315.5 117.5t300.5 179.5q75 57 90 57 q6 0 6 -6q0 -16 -80 -77.5t-176 -116.5q-70 -41 -168 -88.5t-157 -69.5q-32 -9 -43 -21.5t-41 -72.5q-26 -54 -86.5 -214t-83.5 -237q-11 -35 -25 -35q-9 0 -12 13q0 42 67 238.5t113 291.5q-16 -2 -34.5 -5t-27 -4.5t-20.5 -2.5t-24.5 -1.5t-30.5 -0.5q-101 0 -164 55 q-47 38 -59 61q-15 27 -15 62z" />
<glyph unicode="'" horiz-adv-x="264" d="M180 1489l4 18q33 64 104.5 159t96.5 110q11 8 25 8q12 0 12 -10q0 -14 -16 -33q-8 -10 -39.5 -49t-43.5 -55.5t-34.5 -48t-36 -57.5t-23.5 -54q-6 -19 -20 -19q-11 0 -20 9.5t-9 21.5z" />
<glyph unicode="(" horiz-adv-x="923" d="M0 -283q0 124 45.5 352t140.5 511q95 286 260 577t377 547q60 75 171.5 181.5t158.5 137.5q35 21 55 21q35 0 35 -39q0 -13 -6 -23t-16 -10l-15 2q-16 0 -42 -18t-87 -68q-191 -161 -388.5 -436t-334.5 -571q-125 -276 -224 -628t-99 -515q0 -73 32 -105q11 -11 11 -24 q0 -10 -11 -10q-10 0 -20 10q-25 15 -34 38t-9 70z" />
<glyph unicode=")" horiz-adv-x="1019" d="M0 -432q0 11 23 26q46 21 125 92.5t157 161.5q200 231 370.5 533t278.5 620q128 368 146 670l4 107q0 137 -41 178q-10 17 -10 26q0 17 18 17q17 0 39 -33t31 -72q12 -49 12 -131q0 -142 -34 -337.5t-91 -372.5q-89 -278 -188 -465q-21 -48 -30.5 -68t-14 -28t-20 -33 t-36.5 -64q-83 -148 -157.5 -258.5t-171.5 -228.5q-17 -23 -50.5 -63t-40.5 -50q-47 -58 -145 -135.5t-149 -97.5l-15 -2q-10 0 -10 8z" />
<glyph unicode="*" horiz-adv-x="423" d="M-43 1466q0 23 184 148q-5 12 -15.5 32.5t-14 28.5t-9 21t-7 22t-1.5 19q6 22 19 22q4 0 8 -2t7.5 -6.5t6.5 -9t7 -14.5t7 -16.5t8 -20.5t9 -23q15 24 34 56.5t28 46.5t20.5 30t20 21.5t18.5 5.5q13 -3 18.5 -7t5.5 -14q0 -8 -6 -18t-15.5 -22.5t-30.5 -42.5t-44 -66 q108 55 128 60q6 1 11 1q15 0 15 -12q0 -9 -21.5 -29t-30.5 -20q-10 0 -59.5 -21.5t-58.5 -29.5q13 -34 28 -71t21.5 -53t11 -33t4.5 -30q0 -14 -12 -14q-14 0 -52.5 79t-39.5 79q-2 0 -66.5 -112t-66.5 -112q-4 0 -11 11q0 12 50 106q38 71 38 82q0 4 -4 4q-8 0 -65.5 -44 t-65.5 -44q-9 0 -12 12z" />
<glyph unicode="+" horiz-adv-x="925" d="M119 625q0 29 291 34q13 27 28 61t24 53t19.5 41.5t17.5 34t14.5 22.5t13.5 15.5t12 4.5q14 0 14 -12t-22 -62t-45.5 -99t-24.5 -52q0 -2 26 -2q27 1 73 3.5t79 2.5q149 0 149 -25q-1 -4 -59 -7q-51 -3 -92 -5l-45 2q-111 0 -131 -10q-27 -9 -60.5 -90t-62 -157.5 t-43.5 -76.5q-14 0 -14 27q9 62 52 159t52 123l2 8q0 9 -12 9q-11 0 -47.5 -2.5t-57.5 -3.5q-70 0 -123 -7q-28 0 -28 11z" />
<glyph unicode="," horiz-adv-x="438" d="M-113 -178q0 16 31 31q39 20 82 76t43 102q6 28 18 28q11 0 20 -20t9 -43q0 -51 -76 -118.5t-112 -67.5q-15 0 -15 12z" />
<glyph unicode="-" d="M45 631q0 5 10.5 12.5t16.5 9.5q37 13 315 13q334 0 334 -33q0 -10 -49 -10q-10 0 -38 2.5t-85.5 5t-140.5 2.5q-199 -2 -342 -10q-21 0 -21 8z" />
<glyph unicode="." horiz-adv-x="321" d="M27 25q0 28 22.5 50.5t48.5 22.5q15 0 26 -9.5t11 -20.5q0 -21 -28.5 -51.5t-49.5 -30.5q-12 0 -21 11t-9 28z" />
<glyph unicode="/" horiz-adv-x="1155" d="M102 16q0 55 229.5 374.5t575.5 746.5q76 95 158 198.5t113 142t83.5 98.5t127.5 138q21 21 39 42t27 34t9 16q1 13 54 59t67 46q17 0 17 -23q-2 -18 -57.5 -83t-254.5 -281q-344 -375 -676 -810t-440 -640q-44 -74 -59 -74q-10 0 -13 16z" />
<glyph unicode="0" horiz-adv-x="1058" d="M-45 254q3 121 43 257t96 253q30 65 55 142t39.5 127.5t56 124t109.5 151.5q104 124 216.5 187t209.5 63q101 0 162.5 -65.5t61.5 -184.5q0 -141 -83.5 -369t-195.5 -401q-187 -286 -331 -407.5t-275 -121.5q-50 0 -84 20.5t-50.5 58t-23 76.5t-6.5 89zM-10 219 q0 -182 133 -182q53 0 121 35q74 35 169.5 136t188 238.5t172 287.5t128 301t48.5 261q0 68 -9 110.5t-40 70.5q-24 23 -44 31t-56 8q-62 -3 -91.5 -6.5t-72.5 -19.5t-84 -47.5t-100 -88.5q-103 -99 -134 -146q-29 -44 -67.5 -122.5t-38.5 -88.5q4 0 40 42.5t80.5 93 t99.5 93t91 42.5q23 -3 33 -11.5t10 -27.5q0 -17 -8 -28t-14 -11q-10 1 -13.5 6.5t-3 11.5t-2.5 10.5t-12 4.5q-17 0 -41 -15q-51 -31 -138 -133.5t-138 -191.5q-25 -48 -25 -92q0 -68 51 -113q27 -21 27 -35q0 -8 -10 -8t-26 12t-38 45t-39 80l-96 -246 q-20 -60 -35.5 -147.5t-15.5 -159.5z" />
<glyph unicode="1" horiz-adv-x="618" d="M-39 59v2q0 28 42.5 168t94.5 275q51 144 351 842q77 180 104 180q13 0 16 -13q0 -7 -5.5 -31t-22 -71t-39.5 -94q-64 -131 -188 -425t-195 -478q-12 -34 -35 -98t-37.5 -102.5t-31 -81.5t-28 -64t-18.5 -21q-5 0 -8 12z" />
<glyph unicode="2" horiz-adv-x="1126" d="M-158 133q0 20 66 39q31 9 78.5 36.5t126 80t86.5 57.5q170 107 388 326t318 395q41 70 68.5 164.5t27.5 165.5q0 57 -18.5 80.5t-79.5 23.5h-22q-110 0 -183 -24q-100 -34 -166.5 -76t-134.5 -105q-9 -9 -14.5 -17.5t-7 -13t-4 -8t-6.5 -4.5q-18 -6 -31 -6q-19 0 -19 31 v6q0 19 66 78q115 103 319 166q79 26 162 26h39q69 0 98 -14.5t52 -56.5q8 -16 8 -70v-22q-10 -128 -90 -299q-98 -200 -348.5 -463t-479.5 -389l-71 -39l172 6q220 -12 299 -21q124 -8 209 -25t115 -32.5t30 -28.5q0 -10 -14 -10q-7 1 -75 12t-91 14.5t-86.5 13t-100.5 13 t-91 9.5t-100 8t-89 2q-205 0 -295 -17q-78 -20 -103 -20q-8 0 -8 8z" />
<glyph unicode="3" horiz-adv-x="1253" d="M-63 244q0 34 17.5 73t29.5 39q6 0 6 -8q-2 -8 -8.5 -36t-10.5 -50.5t-4 -38.5q0 -14 5.5 -23.5t23.5 -31.5q52 -61 140.5 -101t176.5 -40q92 0 201.5 55t206.5 145q116 102 174.5 204.5t58.5 193.5q0 150 -125 209q-36 21 -117 38t-130 17q-39 0 -39 22q0 11 26.5 29.5 t112.5 63.5q180 95 310 219.5t130 201.5q-3 51 -46.5 80t-106.5 29q-91 0 -230 -49.5t-245 -134.5q-34 -27 -41 -27q-9 0 -17 11t-8 22q0 44 87 102t212 92q52 17 88.5 21t118.5 6q88 0 111.5 -3.5t50.5 -21.5q67 -37 67 -116q0 -52 -30 -107q-39 -69 -158 -169t-262 -187 q-64 -36 -64 -45l2 -2q28 0 100.5 -20.5t110.5 -39.5q63 -34 106.5 -91.5t43.5 -127.5q-1 -10 -2 -32t-1.5 -27.5t-1.5 -21.5t-2.5 -21t-4 -18t-5.5 -20t-8 -19.5t-11.5 -24.5t-14.5 -27q-76 -137 -195.5 -242t-235.5 -155.5t-211 -50.5q-93 0 -201 46t-151 109 q-30 47 -30 101z" />
<glyph unicode="4" horiz-adv-x="1064" d="M-33 557q0 19 53 97.5t152.5 217.5t159.5 230q96 147 167.5 243t107 132t50.5 36q7 0 20 -8.5t13 -15.5q0 -14 -84.5 -125.5t-186 -241.5t-122.5 -161q-14 -24 -152 -205q-129 -160 -129 -185l2 -2q1 0 12 2.5t29.5 6t36.5 6.5q170 39 586 53l25 63q39 117 95 299 t87.5 266.5t66.5 139.5q9 20 25 29.5t27 9.5q5 0 12 -10q0 -11 -72 -203q-72 -179 -141.5 -376t-69.5 -218q0 -10 27 -10q59 0 59 -23q-3 -14 -55 -14h-53q-142 -445 -166 -584q-9 -53 -21 -53q-8 0 -8 14q0 32 28 158t64 248q60 202 60 209q0 8 -47 8q-132 0 -445 -47 q-127 -19 -160 -19q-53 0 -53 33z" />
<glyph unicode="5" horiz-adv-x="1095" d="M-66 358q0 8 0.5 11t4 4t4.5 2q14 0 26 -49q23 -101 114.5 -182t201.5 -81q96 0 219 74q118 71 192 165t125 235q27 86 27 192q0 73 -14 105q-41 107 -118 164t-179 57q-52 0 -134 -22t-147 -44t-76 -22q-26 0 -26 24q0 30 133 226q98 151 102 196q0 4 -25.5 13.5 t-25.5 19.5q0 9 5.5 15.5t25.5 13t56.5 11t101 8t157.5 5.5h72q262 0 262 -35q0 -10 -12 -28.5t-33 -18.5q-16 0 -107 22.5t-147 22.5h-12q-210 -8 -234 -20q-5 -3 -6 -6q-8 -35 -160 -273q-86 -130 -86 -139l2 -2q4 0 15.5 5t30 13t32.5 13q158 51 244 53q47 0 106 -16 q118 -53 188 -149t70 -220q0 -126 -57.5 -259.5t-159.5 -238.5q-91 -93 -207 -148t-209 -55q-90 0 -183.5 69t-123.5 142q-14 29 -24.5 68t-10.5 59z" />
<glyph unicode="6" horiz-adv-x="892" d="M-45 412q0 9 14 30q12 19 25 62t27.5 93.5t64 148t127.5 212.5q87 124 139 185.5t146 148.5q200 197 288 197q19 0 26.5 -6t12.5 -21q0 -18 -32.5 -34t-65.5 -25q-70 -23 -177 -119.5t-218 -236t-191 -279.5q-23 -41 -61 -130t-39 -106h2q3 0 10 7t20 21t21 22 q96 94 283 190q51 24 75.5 31.5t67.5 7.5q122 0 183 -68.5t61 -173.5q0 -74 -26 -156.5t-75 -160t-112 -140.5t-145.5 -101t-167.5 -38q-68 0 -123 27q-76 38 -115 117.5t-39 173.5l2 59q0 21 -2 34.5t-4 19.5t-2 8zM-2 317l2 -24q15 -189 143 -256q35 -14 86 -14 q106 0 177 36q142 73 227.5 219t85.5 285q0 162 -109 193q-38 12 -75 12q-60 0 -138 -33q-62 -30 -166.5 -103t-158.5 -126q-33 -30 -44.5 -46.5t-15.5 -43.5q-14 -72 -14 -99z" />
<glyph unicode="7" horiz-adv-x="940" d="M-61 -10q0 53 262 418q122 173 264.5 350.5t368.5 439.5q172 203 182 223q0 25 -121 25q-85 0 -252 -31t-227 -31t-107 18.5t-47 37.5q6 35 47 35l115 -23q66 0 232.5 17.5t228.5 17.5q168 0 174 -53q0 -33 -133 -189q-221 -255 -453 -563q-117 -144 -258 -349t-143 -227 q0 -9 -35.5 -72.5t-50.5 -68.5l-11 -2q-13 0 -23.5 9.5t-12.5 17.5z" />
<glyph unicode="8" horiz-adv-x="1038" d="M-35 139q0 88 15 158.5t57 151.5t92 153t145 197q-86 42 -119.5 87.5t-35.5 117.5q0 83 69 169.5t201 163.5q87 51 213 86t215 37q100 0 168.5 -50t69.5 -134q0 -79 -82 -235t-209 -316q-53 -67 -53 -78q0 -9 8 -14q23 -23 41 -69t18 -81q0 -71 -64 -167.5t-169 -190.5 q-100 -93 -196 -142t-173 -49q-27 0 -55 7q-80 22 -118 68.5t-38 129.5zM0 115q3 -68 54 -109t126 -41q36 0 96 17q98 37 208.5 128.5t185.5 196.5t75 176q-1 47 -26.5 87t-52.5 40l-19 -2q-4 0 -4 4l4 17q0 9 -43 33q-28 18 -131 60.5t-131 49.5q-18 0 -108 -117.5 t-138 -199.5q-93 -154 -96 -340zM174 979q0 -50 29 -78t110 -63q97 85 140.5 114t81.5 29q16 0 41.5 -16t25.5 -29t-10 -25t-21 -12q-8 0 -8 12q0 15 -24 15q-28 0 -52 -15q-20 -13 -63 -52t-43 -44q0 -2 48 -24t111.5 -51t88.5 -42l55 -34q53 65 105.5 137.5t108 160 t90 170.5t34.5 140q0 69 -49 106t-137 37q-39 0 -101 -10q-242 -50 -401.5 -160.5t-159.5 -228.5v-37z" />
<glyph unicode="9" horiz-adv-x="882" d="M0 913l4 37q19 88 141 240.5t230 222.5q123 76 235 76q59 0 94 -29.5t35 -60.5q0 -28 -39 -31q-28 0 -41 21q-10 24 -22 33.5t-39 9.5q-89 -5 -167 -44.5t-169 -132.5q-95 -97 -154 -185.5t-59 -137.5l2 -12q0 -39 41 -39h8q70 0 239.5 121t360.5 309q72 71 100.5 96 t37.5 25q10 -5 10 -17q0 -9 -8 -20q-235 -472 -367.5 -784t-214.5 -591q-11 -41 -24.5 -68t-20.5 -34.5t-12 -9.5q-5 0 -6.5 0.5t-3 2.5t-1.5 7q40 249 240 717q22 51 98.5 211.5t139.5 293.5t63 138q-13 0 -94 -78q-163 -153 -326.5 -261t-232.5 -108q-38 0 -58 21.5 t-20 60.5z" />
<glyph unicode=":" horiz-adv-x="399" d="M94 276q0 14 27 41t45 27q1 0 4 -0.5t3.5 -1l2 -2t2 -4t0.5 -6.5q0 -19 -14 -48t-25 -34q-12 0 -28.5 9t-16.5 19zM213 549q0 19 19 42t36 23q27 0 27 -20t-24 -43t-42 -23q-13 0 -16 21z" />
<glyph unicode=";" horiz-adv-x="354" d="M-27 111q3 13 45 41q62 40 62 69q0 8 -9.5 23t-9.5 24q9 41 29 41q14 0 26.5 -19t12.5 -46q0 -61 -88 -115q-43 -27 -59 -27q-9 0 -9 9zM217 602q0 12 15.5 29.5t25.5 17.5q9 0 18 -7.5t9 -16.5q0 -12 -15.5 -31t-27.5 -19q-8 0 -16.5 9t-8.5 18z" />
<glyph unicode="&#x3c;" horiz-adv-x="641" d="M45 412q0 39 131 118q57 36 205 106.5t164 70.5q12 0 20 -5.5t8 -11.5q0 -9 -5.5 -22.5t-18.5 -16.5q-53 -8 -167 -59.5t-206 -105.5t-94 -70q0 -2 2.5 -5t8.5 -7t12 -7.5t16.5 -9.5t19 -10.5t22.5 -11.5t23.5 -11.5t25.5 -12.5l26 -13q29 -15 68.5 -34.5t59 -29.5 t40 -22t28.5 -21t8 -18v-6q-3 -17 -10 -17q-3 0 -7.5 2.5t-18.5 11.5t-34.5 21.5t-65 36t-101.5 51.5q-102 52 -130 72t-30 37z" />
<glyph unicode="=" horiz-adv-x="944" d="M0 358q0 11 11 15t44 4l183 2q93 -2 184.5 -2.5t129.5 -1t60 -2.5q16 -1 19.5 -5t3.5 -14q0 -8 -19 -8l-241 2l-322 -2l-26 -4q-27 0 -27 16zM129 610v2q0 27 107 27q356 0 483 -10q11 -1 19 -5t11 -8t3 -6q-3 -8 -33 -8l-43 2q-19 0 -73.5 -2t-92.5 -2h-31l-325 2l-9 -2 q-16 0 -16 10z" />
<glyph unicode="&#x3e;" horiz-adv-x="718" d="M-27 176q2 22 164.5 107l325 170t164.5 106q-3 23 -64.5 53.5t-176 73.5t-142.5 55q-11 7 -24.5 13.5t-21 10t-13 8.5t-5.5 11q0 3 4 15q1 7 8 11.5t11 4.5q5 0 193.5 -82.5t219.5 -99.5q70 -34 70 -70q0 -20 -19.5 -38t-81 -52t-200.5 -102q-315 -154 -365 -199 q-20 -20 -34 -20q-13 0 -13 24z" />
<glyph unicode="?" horiz-adv-x="849" d="M66 160q0 15 28.5 42t46.5 27q11 0 11 -14q0 -21 -14.5 -51t-26.5 -33q-9 0 -27 10t-18 19zM141 383q5 51 31.5 108t93.5 140q59 74 144 153.5t155 139t135 121.5t104 126t42 127q6 24 6 48q-8 68 -32 96.5t-83 32.5q-72 -2 -139.5 -27.5t-119 -77.5t-64.5 -119 q-15 -41 -37 -41q-43 0 -43 52v16q2 34 69 97t136 95q91 54 196 54q180 0 180 -176q0 -179 -217 -357q-96 -80 -170.5 -146.5t-155 -146.5t-132 -152.5t-66.5 -129.5q-13 -51 -24 -51q-9 0 -9 18z" />
<glyph unicode="@" horiz-adv-x="1228" d="M59 371q0 165 107 343t283 290q154 94 323 94q112 0 192.5 -47t143.5 -166q25 -55 25 -137q0 -122 -39 -195q-44 -86 -138 -162t-163 -76q-39 0 -62.5 22t-23.5 62q1 62 6.5 100t15.5 74.5t14 59.5q-6 0 -84.5 -63t-171 -126t-133.5 -63q-24 5 -32.5 14t-8.5 35 q0 50 46 128t120 151q131 131 221 131q34 0 59 -18.5t33 -37.5l9 -18v-4q0 -8 3.5 -11.5t7.5 -4t7.5 -4t3.5 -11.5q0 -4 -37.5 -124t-37.5 -187q0 -39 13 -54.5t38 -15.5q34 0 81.5 26.5t93.5 71.5t78.5 117.5t32.5 153.5q0 109 -46.5 188t-116 114.5t-150.5 35.5 q-116 0 -238 -62t-216 -158t-154 -221t-60 -243q0 -43 9 -84q9 -49 54.5 -100.5t90.5 -71.5q73 -31 170 -31q169 0 295 72q57 28 80 28q8 0 8 -6q0 -10 -25.5 -30t-77.5 -44.5t-112 -39.5q-76 -17 -178 -17q-103 0 -156 17q-102 35 -152.5 115.5t-50.5 189.5zM362 438 q0 -12 13 -12q15 0 70.5 33.5t116 78.5t108 95t47.5 78q0 32 -53 32q-24 0 -39 -6q-65 -28 -164 -143t-99 -156z" />
<glyph unicode="A" horiz-adv-x="1873" d="M0 -362q0 44 41 77q39 25 57 25l15 -2q24 0 98 67q102 89 203 186.5t152.5 150.5t179.5 189.5t172 182.5q8 8 8 14q0 9 -17 9q-141 -6 -413.5 -37t-405.5 -76l-18 -2q-13 0 -22 8.5t-9 20.5q0 23 27 32q38 23 73 23l17 -4q12 -4 20 -4l68 6q101 18 188.5 27.5t238 22.5 t275.5 26q21 3 53 26q225 210 604 667t531 707q94 151 168 244.5t106 93.5q17 0 17 -16q0 -13 -12 -37l-146 -199q-111 -146 -169 -245.5t-173 -350.5q-94 -207 -206 -491t-128 -352q0 -2 11 -6q17 0 205 12t268 12q26 0 33.5 -4t7.5 -14q0 -7 -20.5 -16t-35.5 -9 q-16 0 -16 8q-73 -4 -156 -5.5t-146.5 -4.5t-144.5 -12h-6q-15 0 -22 -17q-182 -686 -182 -1007q0 -65 10 -116t24 -62q11 -11 11 -25q0 -16 -13 -16t-26 18q-45 53 -45 217q0 105 14 230t39 249.5t45.5 213.5t46.5 191.5t29 113.5q0 6 -6 6l-502 -41q-38 -5 -70 -41 q-92 -95 -235 -247t-267.5 -279t-279.5 -275q-21 -19 -44 -42t-34 -33.5t-25.5 -18.5t-29.5 -8q-18 0 -23 7.5t-8 31.5zM1055 598q0 -8 20 -8h8q55 6 240.5 15.5t196.5 10.5q14 0 20 19q156 441 408 958q26 69 26 72l-2 2q-8 0 -33 -37q-86 -107 -208.5 -251t-192 -224 t-256 -293.5t-225.5 -257.5z" />
<glyph unicode="B" horiz-adv-x="2117" d="M-324 -176q0 114 54 231.5t143.5 216.5t202 186t232.5 148t233 92q42 11 53 29q33 46 93 166t81 180q0 6 -17.5 9t-40 6t-30.5 8q-18 9 -18 20q0 17 20 27q22 10 129 33q12 3 19.5 7.5t9.5 7.5t8 11q307 576 407 576q14 0 22.5 -6.5t8.5 -16.5q0 -36 -61 -84 q-50 -37 -149.5 -195t-157.5 -266q-7 -10 -7 -14q0 -6 15 -6q17 0 52 0.5t46.5 1t38 2t45.5 5t49.5 9.5t69.5 15q703 177 911 438q90 109 90 225q0 110 -80.5 193t-222.5 110q-97 19 -201 19q-220 0 -453.5 -62t-434.5 -159q-63 -31 -77.5 -42t-39.5 -44q-19 -24 -68 -29 q-28 0 -28 24q0 16 12.5 31t26.5 24t43 25t43 25q225 114 493 172.5t494 58.5q120 0 209 -18q151 -32 236 -123t85 -209q0 -128 -96 -244q-55 -67 -143.5 -128.5t-177.5 -105t-203.5 -85.5t-197 -66.5t-181.5 -50.5q-27 -6 -27 -10q0 -3 18 -6q54 -7 149.5 -26.5 t145.5 -33.5q208 -67 305 -197.5t97 -301.5q0 -211 -126.5 -446t-307.5 -402q-229 -214 -528.5 -332.5t-618.5 -118.5q-134 0 -251.5 26.5t-213 79t-156.5 139t-74 198.5zM-285 -182q0 -156 110 -271.5t322 -158.5q78 -17 236 -17q162 0 270 19q483 94 834 430 q170 160 294 388.5t124 428.5q0 334 -361 450q-163 49 -399 56q-15 0 -30 -1t-26.5 -1.5t-27.5 -3t-24.5 -3.5t-27 -5.5t-25 -5.5t-28 -7t-27.5 -7.5t-32 -9t-33 -9.5q-19 -4 -39.5 -33.5t-42 -76.5t-24.5 -52q-7 -14 -17.5 -34t-16.5 -31t-14 -26.5t-12.5 -24t-9.5 -19.5 t-8 -17t-5.5 -13t-3.5 -11t-1 -7q0 -10 14 -10h14q157 37 265 37q338 0 497 -201q4 -2 4 -10t-5.5 -15t-14.5 -7l-12 2q-5 3 -9.5 21.5t-11.5 25.5q-50 57 -170 103t-254 46q-173 0 -319 -45q-2 -1 -9 -3.5t-8.5 -3t-6.5 -3t-7 -4t-5.5 -4.5t-6 -6.5t-6 -8.5t-7.5 -12 q-57 -101 -182.5 -377.5t-128.5 -330.5q-5 -23 -22 -23q-17 3 -17 23v8q9 46 36.5 120.5t66.5 163t70 155.5t69 146t41 86q14 25 14 39q0 7 -8 7q-5 0 -84 -27q-99 -38 -202.5 -99t-202 -143.5t-176 -174t-124.5 -197t-47 -205.5z" />
<glyph unicode="C" horiz-adv-x="2146" d="M0 49q0 173 44 360.5t114 348.5q68 153 176 322.5t247.5 336t292.5 311.5t323.5 258t328.5 166q82 29 168 29q136 0 219.5 -75.5t83.5 -223.5q0 -163 -105 -397q-40 -91 -114 -220.5t-103 -158.5q-33 -33 -57 -33q-33 0 -33 49q2 35 33 79t57 44h4q12 0 27 21t53 92 q173 313 176 528q0 90 -27 141t-93 82q-43 21 -121 21q-79 0 -144 -21q-188 -62 -399.5 -217t-392 -348.5t-329 -406.5t-228.5 -398q-68 -158 -114 -345t-46 -355q0 -271 134 -423.5t364 -152.5q154 0 352.5 76t383 189.5t364.5 249.5t309 253.5t204 202.5l19 8l6 -4 q0 -4 -8 -12q-92 -116 -289 -287q-160 -141 -331 -265t-349.5 -226t-354 -161.5t-317.5 -59.5q-172 0 -297 81.5t-184 239.5q-47 128 -47 301z" />
<glyph unicode="D" horiz-adv-x="2250" d="M0 -240q0 129 87 263t245 233q183 116 342 172q18 7 22 23l273 653q23 51 51 115.5t46 106t40.5 91.5t37 81.5t31.5 65.5t29.5 54t25 37.5t23 25t19.5 7.5q22 0 22 -27q0 -32 -28.5 -82.5t-48.5 -60.5q-7 -3 -13 -8t-6 -7l-256 -573q-41 -96 -117.5 -284.5t-76.5 -192.5 q34 7 112 24.5t114 24.5t96 17t113 14t111 4q283 0 416 -150q8 -12 8 -16q0 -13 -10 -13q-7 0 -16 9q-63 60 -173.5 95.5t-244.5 35.5q-165 0 -389 -54q-119 -29 -140.5 -39.5t-33.5 -42.5q-50 -134 -96 -267t-68 -199t-27 -76q-16 -13 -24 -13q-11 0 -13 9q0 41 179 540 q4 8 4 15q0 6 -4 6q-99 -23 -314 -150q-150 -93 -233.5 -218t-83.5 -245q0 -138 113.5 -226.5t314.5 -88.5q168 0 365.5 70t387.5 190q178 110 335 250.5t259 269.5q102 130 191 273t166.5 305t122.5 334t45 327q-6 340 -174 510t-465 170q-234 0 -498 -94t-455 -229 q-49 -36 -49 -43q0 -1 8 -4t9 -9q0 -13 -49.5 -57.5t-84.5 -44.5q-17 0 -29 12.5t-12 28.5q0 66 195 193q451 288 973 288q114 0 172 -12q218 -45 352 -224t141 -458v-31q0 -283 -132.5 -611.5t-379.5 -621.5q-93 -110 -209 -220t-261 -218t-293 -190.5t-312 -133.5 t-311 -51q-219 0 -343 94t-124 248z" />
<glyph unicode="E" horiz-adv-x="2002" d="M0 -96q0 116 63 248q157 336 768 813q128 98 155.5 121t27.5 32q-4 21 -94 64l-57 27t-50 24.5t-45.5 25t-37.5 24t-33.5 26t-25.5 27.5t-21.5 31.5t-14 34.5t-10 40.5t-2.5 46.5q3 64 9 89t32 75q71 126 240 252.5t405 228.5q161 70 268 97.5t223 29.5q281 0 281 -178 q-5 -76 -27 -130t-86.5 -141.5t-214.5 -261.5q-135 -159 -181 -205.5t-67 -46.5q-39 0 -39 31q0 26 28.5 57.5t72.5 49.5q30 12 119 104q206 223 288 341t82 196q0 153 -254 153q-106 0 -145.5 -6t-128.5 -35q-101 -32 -212 -82t-227.5 -119.5t-209.5 -146t-153.5 -167.5 t-63.5 -177q0 -81 50.5 -136t172.5 -108q108 -48 149 -73.5t41 -55.5q0 -29 -47 -72.5t-158 -121.5q-93 -68 -195 -154t-215 -194t-208.5 -227.5t-145.5 -223.5q-59 -115 -59 -227q0 -120 78.5 -195.5t232.5 -87.5l60 -2q595 0 1589 819l10 4q6 0 6 -4l-6 -12 q-24 -26 -112 -102.5t-107 -94.5q-116 -88 -234.5 -169t-273 -171.5t-296 -156t-295.5 -109t-281 -43.5l-68 4q-172 20 -261 104t-89 216z" />
<glyph unicode="F" horiz-adv-x="1658" d="M-209 1894q0 24 87.5 57t211.5 57t219 24l176 -7q33 0 68.5 2.5t57 5.5t72 10t77.5 11q329 44 719.5 73t730.5 30q42 0 81 -1.5t67 -2.5t62 -5.5t50.5 -6t49.5 -8t42.5 -8.5t46 -10t43.5 -10q69 -18 88 -35.5t21 -54.5q0 -21 -11.5 -36t-25.5 -15h-33q-56 0 -63 21 q-1 2 -5.5 10.5t-5.5 10t-5 8t-6.5 8.5t-8 6.5t-11 6.5t-14 5t-18.5 6q-17 4 -78 19.5t-98 23.5t-95.5 17.5t-107.5 11.5l-158 2q-365 0 -806.5 -43t-620.5 -97q112 -49 186.5 -146.5t105.5 -211t31 -242.5q0 -50 -4 -106t-9.5 -100.5t-11.5 -81t-10 -58.5l-4 -22 q4 0 123.5 212t262 451t194.5 291q27 31 49 31q17 0 17 -19q0 -23 -25 -65q-9 -16 -17 -39t-13.5 -33t-12.5 -10q-6 0 -18 12q-11 0 -152 -226t-294 -501.5t-185 -380.5q-6 -21 -6 -37q0 -20 12 -20q81 2 255.5 12t262.5 10q130 0 229 -16q70 -16 70 -45q0 -17 -18 -31 q-2 -2 -13 -2q-18 0 -88 19q-63 14 -344 14l-358 -4q-41 0 -55 -29q-35 -82 -109.5 -266.5t-134.5 -329.5t-128 -298t-120.5 -239.5t-81.5 -86.5q-24 0 -24 32q0 115 356 842q27 59 71.5 153.5t69.5 148t25 56.5q-2 5 -33 5q-73 0 -259.5 -22t-315.5 -42h-11q-15 0 -27 6.5 t-12 14.5q0 20 60 28q235 35 579 66q20 2 33 6.5t22 14.5t12.5 15t10.5 22.5t10 23.5q150 346 150 630q0 98 -22 190t-66 173t-119.5 138t-173.5 75l-20 2q-63 0 -457 -74q-144 -26 -195 -26q-21 0 -31 4t-13 9t-5 17zM-8 1931q43 8 113 21q110 20 147 28t37 15q0 2 -17 2 q-161 -15 -280 -66zM213 -516l2 -4q19 0 124.5 236t170.5 395q92 220 92 235v2q-13 0 -201 -412.5t-188 -451.5z" />
<glyph unicode="G" horiz-adv-x="2201" d="M0 225q0 396 334 922q90 144 203 282t247 264.5t273 225t290 163t291 79.5q16 2 50 2q146 0 249 -82.5t115 -198.5q4 -46 4 -74q0 -155 -55 -330.5t-141 -287.5q-19 -27 -41 -27q-13 0 -21 8q-12 8 -12 15t15.5 27t42 53.5t44.5 64.5q62 101 95.5 236.5t33.5 257.5l-2 55 q-8 101 -104 176.5t-225 75.5q-141 -7 -295.5 -70.5t-295 -164t-276 -231t-246 -267.5t-198.5 -277q-332 -538 -332 -913q0 -234 135 -393q107 -121 287 -121q154 0 338 88q130 63 228.5 137.5t287.5 253.5q226 214 389 391q8 8 8 15q0 4 -10 4q-104 -5 -432 -52 q-27 -4 -61 -16.5t-44 -13.5l-28 -2q-60 0 -60 37q1 11 3 14.5t15 6.5t46 5l579 58q3 1 10 2t10 2.5t8.5 6.5t10.5 15q42 72 74 72q14 0 22.5 -12.5t8.5 -28.5q0 -12 -6.5 -26t-6.5 -15q0 -6 19 -6q8 0 122.5 13t162.5 13h28q41 0 41 -24q0 -6 -28 -6h-41l-295 -23 q-30 -2 -43 -31l-82 -153q-120 -214 -219 -533t-127 -510q-9 -78 -25 -84q-11 -8 -22 -8q-22 0 -27 21q0 67 156 549.5t213 605.5l12 35q-9 0 -78 -78q-197 -218 -367.5 -371t-310 -238t-251.5 -122t-216 -37q-195 0 -323 137q-154 177 -154 438z" />
<glyph unicode="H" horiz-adv-x="2349" d="M0 487q0 37 105 85.5t178 48.5h10q29 0 34.5 -6.5t16.5 -49.5l617 51q12 2 22 19q17 37 106.5 238.5t197 441t181.5 395.5q58 116 58 125v2l-13 -4q-4 0 -4 8q0 23 34 59.5t54 36.5q17 0 17 -24q0 -19 -286.5 -621.5t-301.5 -664.5q0 -4 6 -4q19 3 164 7l758 27 q10 0 13 3.5t5 11.5q116 371 209 596q12 30 38.5 96.5t35 87t28.5 70.5t29.5 71.5t27.5 62.5t32 71t33.5 70t41.5 85q16 33 25 57.5t10 33.5t3.5 15.5t8.5 12.5q11 11 29.5 42t36 51t33.5 20q10 0 20 -8t10 -21q0 -21 -38 -82q-177 -283 -365 -760q-64 -160 -124 -336 t-73 -237q0 -5 8 -9t19 -4l166 2q223 0 338 -20q32 -6 54 -15.5t22 -15.5q-2 -6 -4 -6h-5q-11 0 -51 8q-80 23 -370 23l-164 -2q-12 -1 -16.5 -2.5t-11 -10t-11.5 -26.5q-44 -139 -112 -446t-99 -502q-19 -120 -19 -260q0 -64 7 -89q8 -29 24 -45.5t30.5 -19.5t25 -7 t10.5 -11q-3 -19 -27 -19q-25 0 -53 22.5t-39 61.5q-12 53 -12 133q0 98 17.5 235t50 295t56 264.5t58.5 249.5t35 144l2 20q0 13 -10 13q-106 -2 -476.5 -17.5t-439.5 -23.5h-2q-15 -2 -22 -13q-6 -10 -29 -65q-38 -90 -74 -170q-103 -242 -179 -439.5t-91 -260.5 q-4 -22 -12.5 -36t-16.5 -14q-12 0 -12 17q0 51 91.5 290t238.5 578q26 65 34 92q0 6 -10 6l-424 -32q-121 -10 -146.5 -14t-25.5 -15l2 -16q0 -13 -8 -17q-3 0 -13.5 19.5t-27.5 19.5q-29 0 -108 -15t-121 -28q-38 -10 -47 -10q-23 0 -23 20zM147 547q0 -2 15 -2q35 0 86 8 t51 20q0 7 -16 7q-30 0 -83 -13.5t-53 -19.5z" />
<glyph unicode="I" horiz-adv-x="1417" d="M0 -457q0 8 13 19.5t20 13.5q33 12 148 30t212 25q229 17 617 17q180 0 274 -6q174 -11 308 -36t134 -48q0 -11 -10 -11q-13 0 -119 23q-158 37 -553 37q-610 0 -894 -62q-91 -16 -117 -16q-33 0 -33 14zM791 -270l4 24q82 377 581 1438l252 532q29 59 29 70 q0 7 -8.5 19.5t-8.5 19.5q0 19 21 37q20 18 80 129t76 155q-238 -10 -380 -20t-415 -39q-160 -16 -174 -16q-49 0 -49 22q2 16 56.5 24t139.5 12.5t111 8.5q311 41 727 41q31 48 55.5 71t53.5 23q22 0 22 -26q0 -6 -4 -20t-6 -25q0 -9 121 -14t282.5 -9.5t216.5 -9.5 q83 -6 165.5 -20.5t94.5 -24.5q7 -7 7 -10q0 -11 -11 -11l-12 5q-41 15 -258 29t-403 14q-53 0 -85 -0.5t-47 -1.5t-46.5 -3t-65.5 -4l-205 -409q-26 -53 -146 -273t-173 -350q-41 -98 -198 -453.5t-235 -562.5q-81 -206 -133 -354q-12 -35 -22 -35q-8 3 -9 8q-1 4 -1 9z " />
<glyph unicode="J" horiz-adv-x="1628" d="M0 -219q0 76 16 160t37 141q97 245 299 475q137 156 335 292.5t425 224.5t420 93l63 2q7 20 68.5 170.5t106.5 269.5t45 138q0 4 -5 4h-8q-15 0 -29 9t-14 18q0 12 53 51q11 9 22 16.5t15.5 10.5t10.5 9.5t12 16.5q7 15 17 34t17.5 34t14.5 32q0 9 -23 9 q-145 -2 -562 -26t-560 -42q-53 -17 -129 -20q-27 0 -31 14l-2 12q0 19 43 29q47 10 258 29q181 15 523.5 21t488.5 17q16 1 31.5 15.5t19.5 21.5q11 19 31 30t39 11q27 0 27 -20l-4 -31q0 -14 4.5 -17t21.5 -3q74 0 351.5 13t430.5 13q115 0 209 -6q31 -3 63 -12.5 t67.5 -24t48.5 -18.5q10 -5 10 -17q-1 -7 -2 -10t-4 -5.5t-9 -2.5l-10 2q-17 14 -66.5 30t-107.5 23q-107 13 -229 13q-150 0 -425.5 -16.5t-342.5 -16.5l-17 2q-32 0 -51 -31q-43 -58 -80.5 -122.5t-69.5 -137t-54.5 -129t-55 -143.5t-51.5 -136q-51 -123 -51 -145 q0 -6 6 -12q26 -15 52.5 -49t27.5 -56q0 -20 -10 -38.5t-21 -18.5t-19 14.5t-8 34.5v21q0 23 -9.5 42t-27.5 23q-23 0 -110 -274q-104 -296 -192 -498.5t-197 -394.5q-95 -169 -240 -307.5t-297.5 -214.5t-279.5 -76q-84 0 -149 40t-101.5 105.5t-55 137.5t-20.5 147z M27 -227q0 -66 16 -132t48.5 -127.5t91 -100t134.5 -38.5q81 0 183.5 36t175.5 81q177 112 289.5 249t246.5 417q151 322 273 684q12 41 35.5 112.5t39 119t15.5 54.5q0 11 -29 11l-16 -2q-140 -3 -306 -56.5t-320 -138.5t-292.5 -190.5t-236.5 -214.5q-77 -86 -166.5 -225 t-126.5 -236q-55 -142 -55 -303z" />
<glyph unicode="K" horiz-adv-x="1490" d="M-125 -543q0 18 21.5 57t62.5 119t76 172l289 725h-7q-8 0 -62 -14t-83 -14q-49 0 -49 39q-1 29 35 39q32 9 72 9h8h6q42 -1 84 15q45 16 59 58q296 746 379 937q79 187 155.5 330t102.5 150l18 4q37 0 37 -47q0 -20 -10.5 -37.5t-24.5 -18.5q-68 -6 -380 -737 q-242 -558 -242 -590q6 0 124 76t199 133q210 148 411.5 308t409.5 352.5t335 353.5q65 81 102 115t63 34q20 0 35 -15.5t15 -37.5q0 -27 -22 -49.5t-56 -28.5q-22 -3 -41 -19.5t-72 -76.5q-77 -88 -264.5 -266t-310.5 -279q-247 -200 -496.5 -378.5t-407.5 -266.5 q-5 -3 -13 -7t-12 -6.5t-9.5 -5.5t-8 -4.5t-5.5 -4t-4 -4t-1 -3.5q0 -6 17 -12q149 -52 301.5 -149t284.5 -218t245 -256.5t197 -273.5q10 -20 10 -33q0 -22 -21 -22q-19 0 -36 29q-202 336 -402.5 524t-537.5 350q-37 16 -52 16t-26 -9.5t-15.5 -18t-15.5 -33.5 q-42 -89 -175.5 -440.5t-182.5 -505.5q-17 -48 -41.5 -72t-44.5 -24q-23 0 -23 32z" />
<glyph unicode="L" horiz-adv-x="1032" d="M0 -412q1 121 51.5 289t163.5 428q45 105 105.5 229t109.5 219t135 250t128.5 230.5t147 259t138.5 242.5q118 213 160 275.5t67 62.5q33 0 33 -25q0 -19 -22 -55l-177 -291q-80 -139 -261 -450.5t-250.5 -435t-171.5 -326.5t-173 -379q-137 -344 -137 -510 q0 -101 51 -101l47 8q31 8 75 24.5t101 42.5t95 43.5t100.5 48.5t73.5 36q602 281 827 281q21 0 66 -9q16 -8 16 -20q-1 -7 -2.5 -10.5t-7 -7t-14.5 -3.5l-50 3q-147 0 -350.5 -71.5t-466.5 -191.5q-28 -13 -148.5 -77t-209 -99t-152.5 -35q-53 0 -75.5 31t-22.5 94z" />
<glyph unicode="M" horiz-adv-x="2668" d="M0 -436q1 44 66 140.5t129.5 180t64.5 97.5l207 327q72 115 236 350t360.5 502.5t385 491t277.5 278.5q38 21 66 21q53 0 53 -70q-1 -70 -79.5 -273t-358.5 -872q-86 -211 -166 -418.5t-80 -226.5q80 128 108.5 172.5t64.5 101t106 166.5q254 381 476 660.5t439 488.5 q295 289 416 289q39 0 59.5 -28t20.5 -78q0 -54 -26.5 -145t-54.5 -164t-86.5 -215t-84.5 -207q-123 -308 -177.5 -456.5t-117.5 -342.5q-163 -516 -193 -860q-3 -47 -7 -56.5t-17 -11.5q-25 0 -25 66q0 111 64 376t149 545q56 177 105 309.5t166 423.5q29 63 80.5 183 t119.5 313t68 266q0 31 -12 41t-35 10q-99 0 -350 -233q-229 -218 -474 -522t-477 -658q-95 -144 -225.5 -380.5t-165.5 -319.5q-11 -26 -25 -38.5t-26 -12.5q-27 0 -27 39q0 13 13 67q23 68 92 236t80 196q80 229 401 987q130 313 172.5 427.5t42.5 154.5q0 23 -12 23 q-69 0 -375 -377q-273 -336 -627 -858.5t-630 -974.5q-93 -153 -109 -166q-11 -8 -20 -8q-25 0 -25 43z" />
<glyph unicode="N" horiz-adv-x="2353" d="M0 -336q0 38 28 79.5t52 41.5l14 -4q89 0 666 1038q262 469 396.5 692t240.5 369q153 203 237 203q82 0 82 -148q0 -168 -135 -809q-103 -483 -140 -751t-42 -535q0 -209 63 -209q34 0 88 52.5t98.5 114t82.5 126.5q65 103 127.5 240.5t212.5 499.5q222 546 311 739 q54 122 142 304.5t130 256.5q36 72 82 137.5t60 65.5q14 -3 24 -24t12 -46q-2 -17 -9.5 -28.5t-35.5 -36.5q-29 -28 -54.5 -66t-92.5 -156q-103 -181 -181 -350.5t-225 -533.5q-200 -486 -278.5 -663.5t-151.5 -307.5q-85 -150 -161.5 -245t-131.5 -118q-28 -14 -55 -14 q-83 0 -104 158q-6 35 -6 92q0 158 31.5 436.5t80.5 536.5q12 68 70 331.5t99.5 487t41.5 324.5q0 32 -3.5 52t-11.5 28.5t-12 11t-14 4.5q-34 0 -101 -67.5t-143 -178.5q-94 -137 -295 -485.5t-419 -751.5q-176 -323 -345.5 -589.5t-234.5 -323.5q-37 -29 -53 -29 q-14 0 -25.5 14.5t-11.5 34.5z" />
<glyph unicode="O" horiz-adv-x="1531" d="M0 27q0 143 20 233q34 161 111 363.5t166 361.5q26 48 34 95.5t8 86t26 123t84 197.5q67 131 143 229.5t178 186.5q148 128 257 183.5t235 55.5q42 0 69 -6q94 -19 171.5 -84t121.5 -162q33 -85 33 -207q-6 -260 -60 -481t-194 -516q-64 -135 -143.5 -273.5t-186.5 -289 t-216 -268.5t-236.5 -201t-243.5 -96l-60 -2q-72 3 -135 46t-106 117q-30 48 -53 130t-23 178zM41 20q0 -152 65.5 -269.5t159.5 -147.5q21 -9 60 -9q90 0 174.5 38t193.5 122q254 207 506.5 635t351.5 803q68 259 72 455q0 180 -80 300t-217 148q-18 4 -65 4 q-94 0 -146 -18q-81 -29 -185 -100.5t-215 -184.5t-179 -233q-88 -150 -124 -245t-46 -210q12 17 48.5 74t64 98.5t60.5 90t55.5 77t31.5 31.5q9 6 20 6q18 0 29.5 -11.5t11.5 -29.5q0 -19 -43.5 -73t-58.5 -54q-18 0 -176 -246q-9 -14 -19 -29.5t-14 -22t-8.5 -14 t-5.5 -11.5t-1 -9l7 -51q6 -38 19 -75.5t22.5 -60.5t9.5 -30q0 -6 -8 -6q-17 1 -35.5 43t-30 84.5t-12.5 42.5q-4 0 -34 -57t-73.5 -155.5t-85 -212.5t-71 -247t-29.5 -240z" />
<glyph unicode="P" horiz-adv-x="1652" d="M0 -473q0 47 52 213.5t114 337.5t115 313t53 144l-2 9q-1 8 -3.5 21t-4.5 27.5t-3.5 31t-1.5 29.5q0 20 2.5 26.5t10.5 8.5q5 0 8.5 -3.5t6 -10.5t4 -14.5t2.5 -18.5t1.5 -18.5t1 -18.5t0.5 -16l66 164q58 149 260.5 587t290.5 609q26 50 40.5 66t33.5 16q15 -1 21 -2 t10.5 -5t4.5 -12q0 -23 -47 -104q-86 -154 -314 -623t-228 -491q7 0 75 122q184 320 383 576q224 294 469 474.5t406 180.5q92 0 140 -64.5t48 -189.5q0 -156 -73.5 -393.5t-190.5 -443.5q-180 -310 -367 -497.5t-409 -270.5q-111 -43 -258 -43q-73 0 -144 24q-46 15 -83 37 t-57 42.5t-34 38.5t-21 29t-11 11q-44 -19 -265 -700q-29 -99 -46 -149.5t-23.5 -62.5t-12.5 -12l-14 6q-6 3 -6 19zM393 483q0 -15 24 -51t46 -57q86 -86 231 -86q116 0 187 24q201 67 379 211t321 353q374 562 389 1026q0 108 -34.5 152t-114.5 50q-112 0 -297 -116 q-442 -288 -897 -1055q-70 -119 -152 -277.5t-82 -173.5z" />
<glyph unicode="Q" horiz-adv-x="1732" d="M0 -195q0 21 19 33t42 12q5 0 21.5 -7t58.5 -7q21 0 56 1q54 1 70 2t16 7q-25 119 -25 179q0 77 14 166.5t34 164.5t40.5 138.5t34.5 104t14 44.5l-14 55q-14 55 -14 115q0 201 145 496q101 209 237.5 373t323.5 307q230 170 410 170q127 0 231 -95q75 -66 110.5 -171 t35.5 -267q-1 -131 -10 -209.5t-39.5 -189t-98.5 -291.5q-21 -60 -84 -198t-108 -224q-123 -227 -228 -373q-54 -74 -153 -184t-150 -152q-49 -39 -51 -43q0 -3 3 -5t11 -4.5t16 -4t25 -5.5t31 -7q102 -29 160 -53q56 -21 97 -45t57 -40.5t16 -25.5q0 -4 -4 -4q-13 0 -45 22 q-33 24 -93 48t-101.5 36.5t-167.5 47.5q-27 8 -42 12q-158 -91 -188 -104q-45 -19 -128 -24q-2 0 -53 -3q-28 0 -73 18q-41 18 -71 44t-46 48.5t-42 65.5q-2 4 -3.5 6.5t-3.5 5.5q-213 -14 -256 -14q-25 0 -31 5t-6 23zM301 31q0 -91 21 -193q247 -14 423 -45 q117 -20 127 -20q13 0 25 4.5t20 10.5t33 24q144 115 289.5 314.5t254.5 412t187.5 412.5t110.5 345q35 152 35 306q0 225 -68 346q-39 76 -114 125t-158 49q-113 0 -247 -68.5t-254.5 -177t-224.5 -236t-171 -251.5q-96 -175 -141.5 -309t-49.5 -255q0 -43 4.5 -83 t10.5 -40q2 1 18 41q21 54 69 156t79 158q72 130 168 241q76 88 129 88q22 0 33.5 -14t11.5 -33q0 -13 -7 -22.5t-20 -9.5l-29 8q-7 0 -28 -12q-53 -38 -137.5 -160.5t-145.5 -249.5q-43 -91 -77 -173t-34 -93q6 -17 42 -49.5t67 -47.5q31 -19 31 -24l-6 -2 q-15 0 -54.5 17.5t-64.5 39.5q-25 25 -31 25q-4 0 -33 -94q-94 -280 -94 -461zM342 -215q0 -6 7.5 -22t25.5 -39t42.5 -43.5t64 -35t85.5 -14.5q51 0 115 21q42 13 102 46t60 42q-9 4 -102.5 19t-157.5 22q-73 8 -187 8q-55 0 -55 -4z" />
<glyph unicode="R" horiz-adv-x="1892" d="M0 -311q0 56 51.5 193t190.5 473q22 53 34 81q0 3 -15 7t-38 10.5t-48.5 16.5t-50 28.5t-38.5 42.5q-14 32 -14 80q0 59 23 102t71 43q66 0 164 -88q30 -23 35 -23q3 0 5.5 1.5t5 5t5 7.5t5.5 11.5t5.5 14.5t7.5 18.5t9 21.5q91 208 225.5 484.5t260 500.5t157.5 224 q9 0 18.5 -11t9.5 -20q0 -15 -35 -64q-51 -71 -199 -341.5t-257 -495.5q-68 -136 -124 -259t-56 -135l133 -120q139 24 352 106q339 126 550 246.5t396 294.5q342 326 342 594q0 150 -106.5 273.5t-282.5 172.5q-48 11 -81.5 14.5t-119.5 4.5q-107 0 -172.5 -8t-175.5 -35 q-175 -43 -368.5 -116t-390.5 -178.5t-320 -215.5q-50 -47 -74 -47q-14 0 -14 16q0 23 29 63t81 78q111 83 324 181q460 224 848 294q80 13 205 13q155 0 235 -21q157 -47 250 -125q75 -69 127.5 -174.5t52.5 -199.5q0 -166 -120.5 -356t-339 -367.5t-494.5 -305.5 q-140 -65 -361.5 -138t-334.5 -97q172 -162 314.5 -258t303.5 -152q108 -37 171 -47t177 -10q108 0 162.5 10t128.5 43q43 15 45 15q10 0 10 -15q0 -10 -9.5 -18t-49.5 -27q-80 -34 -134 -43.5t-173 -9.5q-120 0 -191.5 11.5t-177.5 47.5q-161 58 -286 138t-289 229 q-77 70 -93 70l-165 -13l-230 -553q-33 -82 -33 -125q0 -14 2 -27.5t5.5 -35t5.5 -39.5q0 -11 -13 -21q-11 -8 -16 -8q-12 0 -27.5 15.5t-15.5 46.5zM119 623q0 -64 37 -91q21 -14 60 -28.5t60 -14.5q11 0 17 2t11.5 10t9 16.5t12 30.5t18.5 42q-70 63 -114.5 96t-69.5 33 q-15 0 -28 -30t-13 -66zM346 487q0 -6 55 -6h60l-82 74q-3 0 -18 -30.5t-15 -37.5z" />
<glyph unicode="S" horiz-adv-x="1468" d="M0 1167q0 71 63 168q112 169 302 337t411.5 295t421.5 181q150 39 275 39q278 0 278 -190q0 -89 -63 -213t-145 -225.5t-161.5 -173.5t-113.5 -72q-22 0 -35.5 14.5t-13.5 36.5l2 14q3 14 13.5 19t63.5 18q38 10 76 42t107 108q235 280 235 436q0 158 -254 158 q-171 0 -388.5 -83.5t-440.5 -234.5q-227 -158 -407 -359.5t-183 -305.5q0 -82 102 -131q79 -37 313 -87q17 -3 51 -10l46 -10q262 -54 330 -72.5t184 -64.5q2 0 36 11.5t90.5 23.5t113.5 12q55 -1 90.5 -7t48 -13t12.5 -15t-14 -8q-17 2 -43.5 6t-45 6t-36.5 2 q-79 0 -207 -41q36 -27 56 -44t45 -45t36.5 -60.5t12.5 -71.5q0 -119 -143.5 -309t-344.5 -334q-111 -78 -245 -131t-224 -53q-190 15 -190 176q0 87 64 201t171.5 226.5t258 220.5t313.5 181q82 38 82 43q0 4 -45 18.5t-174.5 46t-313.5 68.5q-219 43 -305 76 q-168 65 -168 180zM156 -86q0 -62 44 -99.5t115 -37.5q89 0 202.5 46.5t191.5 100.5q68 44 153 119t166 163.5t136 185t55 167.5q0 21 -7 45q-15 42 -73 95t-88 53l-7 -2q-49 -10 -198 -92t-240 -148q-65 -47 -139.5 -117.5t-145.5 -153.5t-118 -171t-47 -154z" />
<glyph unicode="T" horiz-adv-x="897" d="M-375 1991q6 47 76 47q40 0 70 -21q21 -12 47 -12q496 75 1269 102q156 6 173 45q15 38 34 54q16 16 43 16q32 0 35 -47q0 -12 -6 -18q-10 -9 -14 -11q-10 -7 -13 -12q0 -5 9 -8q18 -12 444 -12h119q685 0 801 -35q45 -15 45 -37q0 -15 -23 -25q-27 -10 -55 -10 q-77 0 -107 35q-13 13 -16 14q-18 9 -90 12q-275 17 -510 17l-602 -4q-51 0 -72 -41q-8 -16 -21.5 -41.5t-17.5 -32.5q-3 -6 -16 -29t-19 -36q-6 -12 -22 -39t-25 -43q-504 -990 -737 -1659q-113 -322 -119 -420v-41q-3 -26 -12 -29t-12 -6q-4 -2 -13 -2q-19 3 -22 41 q0 75 20 104q21 53 58 162q205 665 806 1917q39 79 46 96q23 52 30 64q6 12 6 20q0 13 -16 13q-548 -15 -1157 -99q-279 -43 -340 -43q-16 0 -31 5q-43 21 -43 49z" />
<glyph unicode="U" horiz-adv-x="1628" d="M0 49q0 223 135.5 644t327.5 823q62 131 167.5 312.5t139.5 213.5q12 12 29 12q14 0 24.5 -12t10.5 -31q0 -21 -18 -53t-44 -33q-15 -2 -29.5 -19.5t-56.5 -88.5q-177 -294 -352 -736.5t-246 -742.5q-39 -162 -39 -326q0 -97 43 -149q17 -20 27 -24.5t39 -4.5 q123 0 370 232q207 196 431 489.5t532 773.5q442 684 463 705q12 12 22 12q19 -3 19 -21q0 -30 -49 -131q-245 -509 -387.5 -851.5t-225.5 -622.5q-40 -139 -76 -341.5t-36 -350.5q0 -115 26 -174q13 -33 13 -48q0 -10 -5 -10q-11 0 -25.5 17t-29.5 65t-18 117 q0 57 10 179.5t20 188.5q46 306 182.5 685t409.5 958q51 94 51 109q-7 -6 -132.5 -196t-229.5 -351q-310 -486 -526 -770.5t-418 -472.5q-119 -112 -222.5 -175t-174.5 -63q-73 0 -112.5 68t-39.5 194z" />
<glyph unicode="V" horiz-adv-x="1310" d="M0 -283q0 82 23 236q53 315 118 598.5t199 783.5q127 474 127 514v6q-2 0 -2 7q0 29 27 113t40 96q9 12 23 12q11 0 19 -10t8 -25q-1 -40 -59.5 -272t-133.5 -500q-324 -1161 -338 -1583q0 -113 47 -113q38 0 101 55q75 68 193 224t503 694q364 508 713 913 q569 668 673 668q21 0 21 -8q0 -15 -39 -31q-75 -31 -328 -315q-306 -341 -546 -645.5t-568 -769.5q-155 -219 -252 -351t-178 -235.5t-131.5 -151.5t-90 -71t-77.5 -23q-92 0 -92 184z" />
<glyph unicode="W" horiz-adv-x="2707" d="M0 -305q0 124 27 246q101 432 382.5 975.5t626.5 1004.5q40 54 86 133q44 78 66 101.5t51 23.5q26 0 41.5 -11t15.5 -28q-2 -14 -36 -59.5t-148 -184.5q-139 -174 -214.5 -277.5t-168.5 -248.5q-238 -377 -417.5 -776.5t-237.5 -683.5q-27 -118 -27 -244q0 -49 6 -76 q27 -151 115 -151q147 0 465 384t751 1072q352 563 453 743q65 112 82 135t33 25q10 0 10 -10q0 -22 -66 -154q-174 -351 -311.5 -750.5t-179.5 -684.5q-23 -145 -23 -303q0 -71 7 -115q15 -88 73.5 -140.5t136.5 -52.5q55 0 115 31q169 91 341 295.5t364 542.5 q381 669 381 1214q-3 126 -33.5 225.5t-71.5 126.5q-24 21 -24 33q0 6 5.5 10.5t12.5 4.5q22 0 50.5 -23.5t49.5 -71.5q62 -145 62 -301q0 -114 -24.5 -266t-65.5 -291q-42 -137 -117.5 -310t-182 -364.5t-224.5 -362t-256 -308.5t-265 -197q-62 -29 -119 -29q-49 0 -104 25 q-67 31 -102 83t-48 142q-4 18 -4 97q0 93 10 214t25 191q38 195 131.5 484t188.5 509q20 45 20 51q-387 -613 -512 -806q-145 -219 -216.5 -321t-172.5 -232q-441 -588 -649 -588q-58 0 -96 43t-53 107.5t-15 148.5z" />
<glyph unicode="X" horiz-adv-x="1996" d="M0 -471q0 33 117 187.5t278 336.5q99 110 242.5 257.5t234 237t275.5 271.5l-4 152q0 390 35 752t90 362q8 0 16 -8q4 -4 4 -27q0 -41 -22 -235q-17 -166 -35.5 -465.5t-18.5 -407.5l2 -37q0 -4 5 -4q13 0 215 189q591 542 1013 831q80 53 157.5 97t90.5 44 q14 0 24.5 -14t10.5 -27q0 -25 -82 -84t-104 -59l-19 2q-26 0 -92 -45q-271 -186 -553.5 -426t-660.5 -592q7 -220 51 -442q69 -360 213 -550t401 -259q68 -21 174 -21q110 0 188 26.5t152 80.5q26 16 33 16q2 0 3.5 -0.5t3 -1.5t2 -2t1.5 -4t2 -4q0 -24 -73.5 -66 t-122.5 -59q-85 -29 -201 -29q-80 0 -160 17q-260 58 -417 235t-232 461q-66 280 -74 434q-7 61 -9.5 77.5t-8.5 16.5q-10 0 -186.5 -173t-301.5 -302q-235 -246 -371 -407.5t-251 -331.5q-15 -18 -23 -18q-9 0 -12 18z" />
<glyph unicode="Y" horiz-adv-x="1400" d="M0 496q0 86 23 176q55 225 265.5 629.5t416.5 685.5q51 68 83 97.5t56 29.5q19 0 34 -13t15 -28q0 -27 -47 -68q-64 -55 -88 -81.5t-76 -98.5q-192 -278 -352 -582.5t-232 -527.5q-45 -127 -45 -234q0 -143 97 -143q172 8 548 358q117 109 248.5 242t275 290t234.5 259 t236 267t172 196l17.5 22.5t14.5 18.5t12.5 9.5t18.5 4.5q14 0 24.5 -7.5t10.5 -21.5q0 -10 -6 -22q-41 -93 -193 -352q-212 -381 -410 -755t-395 -789.5t-256 -618.5q-35 -125 -59 -125q-7 0 -13.5 13.5t-6.5 33.5q0 37 22.5 106t45.5 122.5t64.5 145t51.5 113.5 q313 720 876 1721q22 39 57 98.5t53 91.5t24 47q6 12 6 17q0 4 -2 4q-5 -1 -9.5 -3.5t-10.5 -8.5t-10 -11t-13 -16t-15 -19q-653 -732 -1046 -1089q-392 -362 -545 -387l-35 -2q-38 0 -66 16.5t-42.5 46.5t-21.5 65t-7 77z" />
<glyph unicode="Z" horiz-adv-x="2117" d="M-125 -338q0 12 9 26t30 32t41.5 33.5t59.5 40.5t66 41.5t79 48t82 50.5q388 233 685 452t838 669q372 310 534 467t230 276q41 77 41 127q0 129 -262 129q-170 0 -362 -53q-96 -28 -247 -88t-151 -70q0 -3 9.5 -4.5t9.5 -3.5q0 -10 -105 -45q-59 -23 -90 -23 q-39 0 -39 27q0 18 15.5 34t37.5 19q18 3 104.5 42t189 83.5t257 84t297.5 44.5h54q166 0 243.5 -42.5t77.5 -133.5q-5 -87 -61.5 -181t-183 -221.5t-349.5 -316.5q-362 -304 -622.5 -511t-493.5 -373t-416 -283.5t-456 -280.5q-41 -26 -78 -56.5t-37 -37.5q0 -6 18 -6 q58 0 514 90q340 70 542 92.5t489 22.5q697 0 895 -133q12 -7 22 -17t10 -14q0 -10 -6 -10t-47 24q-194 121 -823 121q-319 -3 -487 -21.5t-595 -103.5q-23 -4 -73 -13.5t-72.5 -14t-64.5 -12.5t-63.5 -11.5t-55 -9t-54 -8.5t-44.5 -6t-41.5 -4t-32.5 -1q-68 0 -68 33z" />
<glyph unicode="[" horiz-adv-x="770" d="M0 -317q0 25 7.5 58.5t27 91.5t40.5 116t61 169.5t75 213.5q44 124 192 506q80 215 160.5 444t126 352t96.5 230q68 139 93 159q23 23 38 27t78 4q62 0 77 -2.5t18 -11.5q0 -17 -40.5 -28.5t-138.5 -26.5q-4 -8 -25.5 -48.5t-25.5 -49t-22.5 -44.5t-25.5 -54t-25.5 -59.5 t-32 -77.5t-34.5 -91t-44 -119t-51 -142q-57 -157 -190 -508t-238.5 -632t-130.5 -359q-29 -98 -29 -123q0 -20 10 -30q12 -8 95 -21.5t120 -13.5h19q18 0 18 -12q-3 -15 -92 -15q-47 0 -77.5 3t-63.5 11.5t-49.5 29.5t-16.5 53z" />
<glyph unicode="\" horiz-adv-x="1105" d="M119 1767q0 14 6.5 18.5t24.5 6.5q18 0 24 -12q205 -619 421.5 -1166t313.5 -692q45 -70 45 -86q-3 -8 -14 -8q-35 0 -120.5 163.5t-186.5 407t-192.5 483.5t-159.5 433q-10 31 -52.5 133t-75 191.5t-34.5 127.5z" />
<glyph unicode="]" horiz-adv-x="1040" d="M-180 -379q0 16 20 23q26 4 133 8q40 2 55.5 3t38 5.5t29.5 9t20 17.5t20 27t20 42q84 177 180 432t260 734q126 366 178.5 500t134.5 298q83 167 86 199l2 37q-8 0 -31 -0.5t-32.5 -1.5t-30 -3t-43 -6.5t-51.5 -11.5q-63 -16 -102 -16q-26 0 -33.5 6t-7.5 21t6 18 q9 10 128.5 27.5t168.5 17.5q34 -1 52.5 -19.5t18.5 -48.5q-2 -31 -19.5 -78t-74.5 -161q-80 -165 -135.5 -301.5t-120.5 -333.5q-185 -554 -272.5 -793.5t-184.5 -451.5q-70 -163 -100 -187l-33 -32q-265 7 -270 8q-10 3 -10 12z" />
<glyph unicode="^" horiz-adv-x="491" d="M41 1460q0 17 22 23q15 4 112 121t169 215q57 75 78 75q10 0 10 -22q0 -43 -29 -191q-22 -116 -22 -174q1 -9 2.5 -23.5t1.5 -23.5q0 -26 -14 -26q-33 0 -33 84q0 37 9 124t9 101t-4 14q-11 -7 -102 -119q-152 -190 -193 -190q-16 0 -16 12z" />
<glyph unicode="_" horiz-adv-x="1665" d="M0 133q0 10 12 18t31 9q315 22 709 22q102 -1 217 -1.5t176.5 -1t124.5 -1.5t101 -3t65 -5q41 -8 41 -16q-4 -15 -33 -15q-29 3 -58.5 4.5t-69 3t-67.5 2t-85.5 1t-89.5 1t-113 1t-125 0.5q-647 0 -797 -35l-14 -2q-25 0 -25 18z" />
<glyph unicode="`" horiz-adv-x="327" d="M33 1825q0 10 7.5 17t18.5 7q11 -2 20 -10t25 -24.5t35 -30.5q20 -14 38 -26t29 -19t21 -13.5t15 -9.5t8.5 -6t4.5 -5t1 -5q0 -11 -16 -17h-2q-22 0 -111 60q-41 28 -63.5 46.5t-25.5 24t-5 11.5z" />
<glyph unicode="a" horiz-adv-x="821" d="M-92 274q0 58 101.5 177.5t174.5 152.5q43 19 68 19t44.5 -11t31.5 -26.5t21 -31.5t17 -27t15 -11l10 2q9 0 12 -20q0 -16 -30.5 -85t-30.5 -102q0 -42 20.5 -72t57.5 -30q49 0 123 39q58 28 147.5 86.5t120.5 89.5q18 18 27 18q6 0 6 -10q-2 -24 -98.5 -97.5 t-182.5 -115.5q-86 -41 -147 -41q-63 0 -91 39.5t-28 93.5q0 15 2 30.5t5 27t6 21t5 14.5l2 6l-2 2q-6 0 -72 -47t-148.5 -94.5t-129.5 -47.5q-25 0 -41 14.5t-16 36.5zM-41 279q0 -5 0.5 -6.5t3 -3t8.5 -1.5q25 0 105 45q58 29 141.5 90t85.5 72q0 3 -8.5 20t-27.5 35.5 t-40 18.5q-11 -1 -20 -3t-15.5 -4t-16 -8t-14 -8.5t-16.5 -13.5t-17.5 -16t-23 -21.5t-26.5 -25.5q-46 -48 -82.5 -99.5t-36.5 -70.5z" />
<glyph unicode="b" horiz-adv-x="960" d="M-74 246l2 14q12 44 48.5 130.5t94.5 214t70 155.5q15 34 15 51q0 14 -11.5 32t-11.5 34q1 21 21.5 37t42.5 16q20 0 59 55t78 131q1 1 29 48t65.5 109t89 141.5t100 148t98 124.5t83.5 76q15 9 30 9q45 0 45 -50q0 -94 -141 -317q-94 -149 -253.5 -321.5t-207.5 -206.5 q-56 -74 -137.5 -249t-130.5 -300q114 146 164 199q165 173 315 173l45 -4q46 -9 72 -50t29 -107q0 -48 -17 -111q0 -2 -3 -10t-3 -12q0 -7 6 -7q34 5 93.5 17t112 20t102.5 8l41 -2q22 0 22 -8l-1 -2q0 -2 -0.5 -2t-1 -1.5t-2 -2t-3.5 -1t-5 -1t-7.5 -0.5h-10.5l-34 2 q-69 0 -164.5 -16.5t-137.5 -36.5q-14 -6 -19.5 -11t-10.5 -16q-2 -2 -12.5 -22.5t-29.5 -57.5t-34 -65q-101 -184 -231.5 -311.5t-223.5 -127.5q-48 0 -75 31.5t-27 79.5q0 67 41 131q75 125 195 206t313 163q6 2 15.5 6.5t12.5 5.5t9 4.5t7.5 5t4.5 5t4.5 7.5t3.5 9 q23 76 23 123q0 58 -22.5 85.5t-76.5 30.5q-37 0 -77.5 -15t-82 -46t-76.5 -60.5t-77.5 -76.5t-67 -75t-62.5 -75t-48 -59q-23 -29 -43 -29q-9 0 -16 6.5t-7 20.5zM-8 -125q0 -30 15.5 -47.5t45.5 -17.5q34 0 78 20q68 32 149.5 124t139.5 185t98 176l2 9q0 12 -12 12 q-32 -6 -91.5 -32.5t-135.5 -70t-149 -112t-112 -144.5q-28 -61 -28 -102zM311 956q8 0 77 65.5t169 178.5t168 213q129 222 129 293q0 26 -18 29q-23 0 -71.5 -54.5t-72.5 -91.5q-66 -87 -223.5 -350t-157.5 -283z" />
<glyph unicode="c" horiz-adv-x="679" d="M-70 219q3 118 99 268q34 50 82.5 108t120 115.5t122.5 57.5q39 -4 60.5 -33.5t23.5 -77.5q0 -21 -10.5 -33t-24.5 -14q-9 0 -18 11t-14 26q-2 10 -3.5 26t-2.5 26t-5.5 18t-13.5 8q-60 -3 -173 -127.5t-167 -235.5q-41 -80 -41 -145q0 -53 27 -83t82 -30q115 3 282 99 t322 231q8 8 14 8q2 0 6 -4q0 -5 -10 -18q-172 -154 -327.5 -240.5t-270.5 -107.5h-24q-60 0 -98 40.5t-38 106.5z" />
<glyph unicode="d" horiz-adv-x="796" d="M-86 184q7 145 75 294.5t156 215.5q66 49 129 49q31 -2 57.5 -17t40.5 -32t25.5 -31t16.5 -14q4 0 31.5 35t88.5 124t134 206q78 123 134 218.5t75 132t42.5 88.5t26.5 58q193 383 268 383q27 0 27 -18q-7 -27 -121 -223q-155 -272 -243.5 -435t-180.5 -348.5 t-155 -346.5t-121 -347q-17 -55 -30.5 -102.5t-23 -81t-16 -65.5t-10 -49.5t-6.5 -39.5t-3.5 -30t-1.5 -26.5t-1 -23.5q-2 -51 -11 -84.5t-24 -33.5q-25 0 -29 32q0 10 2 27t2 22v7q0 42 30.5 169t81.5 294.5t132 369t168 359.5q37 69 37 90v2l-187 -275q-87 -127 -95 -145 q-7 -16 -7 -29v-4q2 -16 2 -31q0 -36 -24 -36q-13 0 -23 4q-16 0 -51 -54q-13 -19 -38.5 -56t-40.5 -58t-38.5 -54.5t-39.5 -53t-37.5 -45.5t-39 -41t-36.5 -29t-37 -20.5t-35 -6.5q-73 0 -76 106zM-37 174q3 -25 10 -36t23 -11t49 23q55 44 180.5 209.5t145.5 224.5 q-2 24 -22 56t-42 44q-23 14 -39 14q-26 -6 -47 -18q-70 -36 -132 -136.5t-94 -201t-32 -162.5v-6z" />
<glyph unicode="e" horiz-adv-x="649" d="M-55 287q0 19 8 55q19 66 84.5 150t140.5 143t121 59q23 -3 33 -16t10 -41q0 -45 -50.5 -102t-117 -96.5t-111.5 -39.5l-18 2q-17 0 -23.5 -6t-17.5 -30q-16 -46 -16 -84q0 -49 34 -75t93 -26t124.5 19t115.5 42.5t113.5 65.5t95 66t83.5 65q9 6 15 6q10 0 10 -6 q-1 -8 -33 -38t-94 -75.5t-129 -84.5q-166 -95 -291 -95q-84 0 -132 36.5t-48 105.5zM57 446l4 -2q6 0 76 41q70 44 110 85.5t40 60.5q0 8 -11 8q-14 0 -55 -27q-41 -28 -102.5 -90t-61.5 -76z" />
<glyph unicode="f" horiz-adv-x="579" d="M-471 -932q0 353 463 1359q9 19 12 26q-2 1 -39.5 11.5t-54 22.5t-21.5 33q-2 8 -2 15q0 18 9 26.5t30 9.5q26 0 57 -19.5t42 -41.5q106 211 289.5 525.5t265.5 396.5q16 16 32 16q14 0 23.5 -12t9.5 -33q-4 -48 -67 -150l-13 -4q-8 0 -14 7.5t-8 7.5q-5 0 -19 -19 q-106 -154 -261 -408t-208 -366q171 -49 351 -49q107 0 174 22h4q10 0 10 -6q0 -17 -52 -28t-122 -11q-97 0 -204.5 14.5t-154.5 32.5q72 -127 72 -378q0 -216 -49 -441q-31 -138 -73.5 -260t-99 -227.5t-128.5 -167.5t-150 -62h-16q-88 8 -88 158zM-451 -930 q0 -145 74 -145h2q58 2 113 46.5t99.5 114.5t85 166t70.5 192.5t56 203.5q55 225 55 440q0 220 -63 352q-8 -18 -78.5 -170.5t-139.5 -307t-143.5 -354.5t-105.5 -337q-25 -122 -25 -201zM-82 532q0 -11 29.5 -27t68.5 -26q-15 21 -65 51q-4 1 -10 4l-10 5t-7 2t-4 -1t-1 -4 t-1 -4z" />
<glyph unicode="g" horiz-adv-x="923" d="M-1116 -1270q0 105 54 228.5t126 230.5q84 125 226 260.5t308.5 257t321 220.5t309.5 186q22 11 46 28t42.5 32t20.5 17q13 9 65 113.5t52 122.5q0 10 -9 10q-17 0 -83 -51.5t-140 -113.5t-159.5 -113.5t-137.5 -51.5q-69 0 -69 66q0 67 68 172.5t169 192.5 q117 102 221 102q79 0 119 -64q19 -36 29 -36q16 0 32.5 46.5t34 93t35.5 46.5q20 0 36.5 -12t16.5 -27q-1 -31 -31 -107t-85 -192t-56 -119q-10 -27 -10 -30q0 -7 6 -7l13 5q30 14 113.5 55t125 60t109.5 45.5t129 43.5l10 2q3 0 4 -1t1 -3.5t1 -3.5q0 -5 -8 -10 q-23 -6 -243 -106.5t-279 -135.5l-6 -4t-5 -3t-4 -3.5t-2.5 -3t-2.5 -4t-2.5 -4.5l-3 -6l-3.5 -7q-43 -101 -96 -214t-127.5 -254t-153 -274.5t-172 -269.5t-186 -246t-195.5 -197.5t-198 -129.5q-86 -39 -179 -39q-115 0 -163 78q-35 52 -35 129zM-1077 -1266 q0 -79 45.5 -124.5t126.5 -45.5q70 0 145 35q121 53 266.5 204.5t272 335.5t242.5 381t191 346.5t103 227.5l2 8q0 11 -8 18t-20 7q-7 0 -19 -4q-112 -57 -235.5 -133.5t-254.5 -171.5t-254 -198t-233 -217.5t-192 -225.5t-130 -226.5t-48 -216.5zM-92 174q0 -24 24 -24 q46 0 164.5 82t213.5 163t104 94l2 13q0 19 -17.5 42.5t-38.5 30.5q-18 9 -43 9q-59 0 -134 -51.5t-134 -120t-100 -136.5t-41 -102z" />
<glyph unicode="h" horiz-adv-x="954" d="M-96 158q0 53 155.5 422.5t190.5 433.5q360 698 473 850q73 96 106 96q13 0 29 -25t16 -45q-2 -27 -53 -123.5t-108 -177.5q-37 -58 -107.5 -172t-146.5 -230.5t-174 -254.5q-40 -54 -152.5 -323.5t-112.5 -297.5v-2q11 15 47 65.5t55.5 76.5t55 72t61.5 72.5t58.5 56 t62 44.5t56.5 17q25 0 41.5 -14t24 -43t10 -58.5t2.5 -73.5l-2 -100q0 -47 3 -79.5t12 -64t29 -47.5t50 -16q166 5 370 213q10 12 21 12q1 -1 3.5 -1t3.5 -1t1 -6q0 -6 -12 -24q-71 -96 -184 -161t-193 -65q-34 0 -59 11t-41 34t-25.5 47.5t-14 62.5t-6 68t-1.5 74v27 q0 77 -7 113t-32 36q-34 0 -105.5 -77t-137 -168.5t-127.5 -181t-71 -99.5q-14 -14 -35 -14q-30 0 -30 41zM330 1026q11 0 112 158q57 84 220 368t163 328q-1 5 -6 6q-19 0 -102 -127q-100 -155 -163.5 -273.5t-182.5 -361.5q-41 -78 -41 -96v-2z" />
<glyph unicode="i" horiz-adv-x="569" d="M-59 236q0 74 38 164t68 120q12 12 25 12q20 0 20 -28q0 -16 -9 -31.5t-27.5 -43t-32.5 -56.5q-46 -94 -46 -152t60 -61q67 0 175.5 52t187.5 105.5t143 104.5q26 20 39 20q6 0 6 -4q0 -15 -31 -37q-51 -39 -104.5 -75.5t-132.5 -86t-152.5 -80t-122.5 -30.5 q-55 3 -79.5 27.5t-24.5 79.5zM139 692q0 12 15.5 20.5t31.5 8.5q15 0 25 -7.5t10 -19.5q0 -14 -12.5 -27.5t-28.5 -13.5q-14 0 -27.5 13.5t-13.5 25.5z" />
<glyph unicode="j" horiz-adv-x="550" d="M-1212 -1317q0 161 150 441.5t378 529.5q105 116 203 205t227 184q28 20 56.5 39.5t34 21.5t18 17t13 19.5t14.5 36.5t28 61q5 12 20 47.5t26 60.5t28 61.5t31.5 62.5t31 50.5t32.5 37.5t30 13q17 -3 23.5 -8t6.5 -18t-6 -31t-23.5 -50t-33.5 -59t-51.5 -86t-61.5 -104 q-14 -22 -14 -35q0 -4 4 -4q7 0 65 33q264 153 406 197q106 34 131 34q12 0 12 -8q-1 -3 -7.5 -4t-23 -4t-32.5 -8q-59 -18 -145.5 -53t-129.5 -58q-92 -47 -295 -168q-13 -9 -27 -31t-18 -34l-196 -414q-71 -147 -110 -227.5t-98 -196.5t-97.5 -182.5t-90 -149.5 t-93.5 -134.5t-91.5 -101t-99.5 -83.5q-64 -45 -119 -45q-100 0 -106 145zM-1184 -1298q3 -63 18 -88.5t48 -30.5l16 -2q61 0 159 91t185 224q61 93 131 222.5t112.5 216.5t113.5 240t88 189q21 44 45.5 94t36 73t23 47t15 35.5t3.5 19.5q0 16 -15 16l-10 -2 q-77 -38 -237 -185t-226 -222q-168 -192 -307 -425.5t-191 -426.5q-8 -50 -8 -86zM164 750q0 20 17.5 36.5t39.5 16.5q18 0 32.5 -13.5t14.5 -25.5q0 -13 -26.5 -33t-46.5 -20q-31 0 -31 39z" />
<glyph unicode="k" horiz-adv-x="735" d="M-223 -135q0 25 43 139q49 134 162 393t239 521q179 369 332 589q5 6 14 18t13 17t11 14t11 13t10.5 10t11 8t10 4t11.5 2q31 0 31 -32q0 -37 -33 -86q-18 -25 -43.5 -48.5t-41.5 -34.5l-17 -10q-125 -189 -273.5 -478t-257.5 -539q20 18 82 79t122 117t129 115.5 t129 95.5t97 37q60 0 60 -43q0 -14 -7.5 -24.5t-17.5 -10.5q-18 0 -35 25q-3 6 -12 6q-25 0 -79.5 -35.5t-130 -100.5t-131.5 -115t-132 -121t-82 -77q-14 -11 -14 -24q0 -10 10 -10h2q567 97 737 159l11 2q6 0 6 -4q0 -6 -13 -12q-38 -20 -155 -50.5t-230.5 -54t-233.5 -47 t-134 -26.5q-31 -7 -47 -39q-34 -60 -66 -168q-9 -23 -21.5 -61t-21.5 -65t-10 -28q-1 -17 -10.5 -27t-20.5 -10q-14 0 -14 17z" />
<glyph unicode="l" horiz-adv-x="833" d="M-61 141q0 287 294 770q161 265 352 506t335 365q136 112 219 112q65 0 65 -79q-8 -114 -118.5 -270.5t-374.5 -420.5q-202 -211 -346.5 -334.5t-200.5 -134.5q-23 -6 -66 -99t-77.5 -219t-34.5 -210q4 -110 48 -166.5t124 -56.5q70 0 145 41q61 31 158.5 121 t210.5 205.5t157 154.5q16 16 25 16q6 0 6 -4t-10 -24q-16 -27 -131 -145.5t-240 -239.5q-68 -62 -101 -86.5t-77 -46.5q-81 -37 -149 -37q-97 0 -155 76.5t-58 205.5zM174 702q0 -6 6 -6q34 0 197 136t330 309q135 143 249 284.5t166 235.5q56 95 56 145q0 41 -39 41 q-89 0 -286 -197t-431 -540q-63 -91 -151.5 -234t-96.5 -174z" />
<glyph unicode="m" horiz-adv-x="1298" d="M-188 68q0 29 62 143.5t124 225t63 130.5t32 47t52 27q15 0 23 -11.5t8 -29.5t-33 -74t-68 -108t-36 -56l2 -2q6 0 52 44t102 96.5t121 96.5t104 44q38 0 55 -14.5t17 -63.5q-3 -83 -56 -264l-2 -2q2 0 11.5 7.5t26.5 22.5t34 33q80 78 127 113t76 35q20 0 36 -19 q13 -14 16 -50t4 -74t7 -74.5t34 -60.5t79 -25q60 0 169.5 60.5t200.5 142.5q51 45 64 45q8 0 8 -13q0 -12 -43 -56.5t-106.5 -96t-149 -91.5t-156.5 -40l-32 2q-30 5 -52.5 17.5t-36 33t-22 40t-11.5 47.5t-4 45t-1 44v4q0 68 -15 68q-19 0 -91.5 -68.5t-141.5 -137.5 t-80 -69q-27 0 -27 37q0 41 43 170.5t43 165.5q0 35 -24 35q-68 -14 -175.5 -113.5t-273.5 -292.5q-67 -75 -98 -104t-45 -29q-16 0 -16 17z" />
<glyph unicode="n" horiz-adv-x="710" d="M-131 158q1 12 3.5 21.5t10 26t13 27.5t22.5 43.5t29 55.5q30 55 64.5 134t39.5 101q4 13 6 20.5t5 12t3.5 5.5t5 3.5t5.5 3.5l14 4q13 0 22 -9t9 -19q0 -11 -12 -39q-43 -75 -96.5 -180.5t-53.5 -124.5l2 -4q6 0 72.5 76t142.5 152.5t107 76.5q43 -6 43 -53 q-1 -11 -12 -79t-11 -118q0 -105 57 -105q45 0 168 92t181 152q8 8 14 8q8 0 8 -2t-2 -4t-6 -5.5t-6 -6.5q-47 -58 -176 -161t-187 -103q-94 2 -94 168q0 52 9.5 107.5t9.5 60.5q0 16 -7 16l-4 -2q-53 -33 -181.5 -190t-168.5 -191q-10 -10 -20 -10q-12 0 -20.5 12t-8.5 27z " />
<glyph unicode="o" horiz-adv-x="419" d="M-92 186q0 69 51 154q17 34 32 77.5t24.5 69.5t26 51.5t45 37t73.5 12.5q53 0 79.5 -28.5t26.5 -76.5q0 -71 -53 -159q-36 -65 -109.5 -140t-130.5 -75q-28 0 -46.5 21t-18.5 56zM-43 178q0 -2 0.5 -5t0.5 -5t1 -4.5t2 -4t3 -3t5.5 -2.5t8 -1.5t10.5 -0.5q32 1 99.5 74 t96.5 120q41 69 41 123q0 36 -16.5 57t-44.5 21q-23 0 -23 -8v-11q0 -28 -35 -63q-45 -44 -97 -144.5t-52 -142.5z" />
<glyph unicode="p" horiz-adv-x="759" d="M-381 -573q2 105 133.5 437.5t261.5 613.5l131 280q3 24 35.5 63t55.5 39q22 0 22 -22q-1 -4 -11 -19t-39 -60t-63 -106q-158 -284 -290 -608t-197 -586q16 30 63.5 146.5t101 250t129.5 290t150 281t162 207.5t166 83q52 -3 73.5 -32.5t24.5 -94.5q0 -88 -45 -178 q133 28 275 28q14 0 14 -6q-6 -6 -16 -6q-131 0 -283 -33q-49 -78 -113 -136.5t-120 -86.5q-32 -16 -62 -16q-23 0 -37 15t-14 38q0 31 27 61q38 47 118 83.5t158 49.5q57 106 57 185q0 53 -17.5 70.5t-51.5 21.5q-42 0 -93 -35.5t-94.5 -86.5t-71 -88t-40.5 -60 q-30 -47 -60 -100.5t-53 -96.5t-53 -106t-45.5 -97t-46 -105.5t-40.5 -94t-42 -100.5t-37 -91q-12 -28 -38.5 -95t-43.5 -104q-8 -14 -22 -14q-19 0 -19 21zM158 213q0 -20 24 -20q61 10 122.5 65t109.5 125q-63 -13 -121.5 -42.5t-93.5 -64.5q-41 -38 -41 -63z" />
<glyph unicode="q" horiz-adv-x="837" d="M-297 -1049q2 87 105 340.5t205 476t102 236.5v12q0 28 22 45q14 12 42 68.5t69 145t61 128.5q-68 -90 -116 -149.5t-113.5 -123t-104.5 -71.5q-10 -4 -30 -4q-45 0 -71 30.5t-26 78.5q0 80 84 194.5t184.5 195t151.5 81.5q33 0 55.5 -28.5t22.5 -63.5q0 -18 -9 -28.5 t-20 -10.5q-16 0 -16 20q0 4 1 6.5t2.5 5.5l2.5 5q0 13 -14 33t-23 20q-43 -7 -120.5 -67t-151 -144.5t-100.5 -151.5q-17 -38 -17 -71q0 -34 18 -55t50 -21l28 4q16 4 35.5 16t42 32t42.5 39.5t47 51t45.5 53.5t47.5 59.5t43.5 56t43 56t36.5 48.5q11 16 23 16q11 0 20 -10 t9 -19q0 -11 -13 -24t-87.5 -161.5t-110.5 -229.5l-4 -17q0 -6 6 -6q20 0 100 57q326 221 528 332q12 6 21 6q6 0 6 -4q0 -6 -14 -14q-407 -263 -496 -328q-28 -21 -57 -39.5t-42.5 -27t-25.5 -17.5t-16 -16.5t-4 -17.5q8 -66 8 -93q0 -136 -61.5 -337.5t-153.5 -379.5 t-176 -249q-44 -39 -74 -39q-23 0 -33 20.5t-10 48.5zM-248 -1049q0 -14 4 -16l2 -2q11 0 45 33t64 73q143 193 229 452t86 409q0 80 -28 80l-7 -3q-18 -6 -115 -231t-188.5 -477t-91.5 -318z" />
<glyph unicode="r" horiz-adv-x="534" d="M-150 84q0 55 71 201.5t142.5 267t88.5 139.5q16 19 30 19q12 0 20.5 -9t8.5 -22q0 -12 -10 -25q-6 -9 -18.5 -19.5t-18.5 -19.5q-95 -149 -172.5 -286t-77.5 -158l2 -2q54 98 111 190q53 86 89.5 133.5t51.5 58.5t27 11q9 0 26.5 -32t40.5 -69.5t45 -47.5q16 -8 62 -8 q36 0 82 9t74 18l28 9l2 -2q-26 -27 -89.5 -44t-119.5 -17q-34 0 -47 8q-31 15 -54.5 47.5t-35.5 57t-19 24.5q-23 0 -95.5 -115t-142 -230.5t-83.5 -115.5q-7 0 -13 8t-6 21z" />
<glyph unicode="s" horiz-adv-x="645" d="M-115 31q0 33 27 69.5t53 56.5t64 46q53 37 168 98q0 1 1 2.5t1 3.5q0 4 -4 6q-5 3 -33.5 16.5t-44.5 22t-42.5 24.5t-41 28.5t-27 29t-12.5 31.5q0 57 54 108t129 81t145 47.5t112 17.5q25 0 39 -19q16 -16 16 -32q0 -25 -40 -62t-56 -37q-10 0 -10 19q0 14 9.5 35 t10.5 26q0 6 -8 6q-41 -4 -98 -20t-113 -39.5t-94.5 -57.5t-38.5 -69q1 -24 49.5 -55t105.5 -55.5t58 -24.5q69 29 188.5 63.5t192.5 42.5l14 2l5 -2q0 -1 -17 -8q-239 -43 -377 -104q56 -53 56 -107q0 -31 -21 -69q-35 -59 -145 -120t-193 -61q-39 3 -59 15.5t-23 44.5z M-104 35q0 -36 49 -47l18 -2q58 0 135 36.5t133 88.5t56 92q0 33 -21 59t-53 37l-10 -4q-82 -36 -172 -94q-135 -96 -135 -166z" />
<glyph unicode="t" horiz-adv-x="313" d="M-1032 1276q3 28 12 41q14 9 89.5 34t90.5 25q17 0 29 -11.5t12 -25.5l-4 -14q0 -6 17 -6q146 11 1185 78q45 93 138 268q6 12 27 50t33.5 61t34 60.5t37.5 61t34 47.5t33 36t26 12q29 0 29 -19q0 -9 -23 -57q-34 -73 -84.5 -159.5t-122.5 -201t-98 -157.5q231 6 473 6 l346 -2q47 -1 151.5 -2t167.5 -2.5t146 -5.5t143 -11q36 -5 58.5 -9t32.5 -10.5t12.5 -9t3 -13.5t0.5 -13v-2q0 -18 -15.5 -31.5t-39.5 -13.5q-33 0 -60 31q-16 22 -58.5 35.5t-150.5 21.5q-61 4 -411 4q-673 0 -820 -6q-123 -209 -192 -356q-164 -362 -321 -778t-183 -545 q-11 -45 -33 -96.5t-41 -51.5q-16 0 -22 29q0 20 14.5 65.5t30.5 87t36.5 92t24.5 60.5q64 181 195 505t231 552q45 98 45 114q0 12 -12 15q-20 6 -20 20q0 21 66 96.5t87 118.5q4 9 16.5 32t18.5 38q-226 -11 -664.5 -55t-607.5 -56q-78 -8 -88 -8q-55 0 -55 31z" />
<glyph unicode="u" horiz-adv-x="712" d="M-123 156q0 6 4 34q26 83 85 194t112 177q18 21 37 21q11 0 19.5 -8.5t8.5 -18.5q0 -32 -43 -57q-50 -31 -117 -153t-67 -183q0 -37 27 -37q13 0 37 12q29 15 145.5 129.5t191.5 202.5q43 51 64 51q16 0 16 -20q0 -12 -18.5 -76t-18.5 -94q0 -67 64 -80q43 0 126.5 52 t154.5 126q12 14 22 14q6 0 6 -4q0 -8 -10 -18q-4 -7 -52 -53.5t-123 -97t-124 -50.5q-13 0 -29 4q-47 18 -64.5 45.5t-17.5 69.5q0 32 6 70q-74 -86 -163.5 -168.5t-151.5 -126.5q-29 -23 -59 -23q-68 0 -68 66z" />
<glyph unicode="v" horiz-adv-x="587" d="M-74 139q0 106 68 283q20 65 51.5 142t50.5 77q25 -3 26 -23q0 -9 -4.5 -20t-13.5 -28.5t-12 -24.5q-29 -60 -73.5 -180.5t-51.5 -163.5q-6 -38 -6 -60q0 -43 25 -43q37 0 131 101q45 49 244 273t245 271q9 9 17 9q12 0 16 -13q0 -7 -36.5 -44t-113.5 -117t-147 -162 q-174 -203 -219 -251q-99 -104 -139 -104q-35 1 -45.5 18.5t-12.5 59.5z" />
<glyph unicode="w" horiz-adv-x="901" d="M-121 141q0 62 54 178.5t120.5 207.5t98.5 91q13 0 22.5 -9t9.5 -19q0 -15 -18 -33t-25 -18l-4 2q-4 0 -37 -33q-63 -78 -123.5 -202t-60.5 -171q0 -18 10 -18q14 0 87 73.5t145 161.5q9 11 21.5 27t19.5 25t17 20.5t16 18t13 13t12.5 9t10.5 2.5q17 0 17 -23 q0 -19 -24.5 -134.5t-24.5 -174.5q0 -53 16.5 -81t54.5 -29q15 0 29.5 9t46.5 36q66 57 119 174t53 180q0 18 -7 38t-7 32q0 17 10 34t24 17q33 0 33 -60q0 -5 -0.5 -10.5t-1.5 -14.5l-2 -18q0 -11 6 -14q28 -25 99 -25q51 0 107.5 12t84.5 27l10 2q5 0 7 -6q0 -6 -7 -10 q-38 -17 -101.5 -31t-117.5 -14q-64 0 -100 20l-23 -69q-55 -167 -131 -256.5t-143 -89.5q-44 0 -71 41t-27 116q0 23 1.5 43.5t7 47.5t9 41.5t14 56t15.5 61.5q-5 0 -66.5 -77.5t-139 -155.5t-118.5 -78q-20 0 -30.5 15.5t-10.5 41.5z" />
<glyph unicode="x" horiz-adv-x="763" d="M-227 35q0 31 223 237q14 11 14 29q-10 58 -10 127q0 80 18 123q6 15 19 26t22 11q13 0 13 -19t-13 -45q-20 -53 -20 -145q0 -53 12 -53q44 33 104 79.5t91.5 70.5t73 55t63.5 46.5t46.5 30.5t39.5 21t25 6q6 0 6 -6q0 -13 -95.5 -79.5t-203 -144.5t-129.5 -114l-4 -17 q12 -45 54 -79.5t105 -34.5q83 1 258.5 96t276.5 178l16 8q4 0 4 -6q0 -4 -6 -10q-108 -94 -292 -193.5t-255 -99.5q-72 0 -110 24.5t-80 82.5q-8 14 -16 14q-5 0 -15 -10q-37 -35 -75.5 -71t-56 -52.5t-37 -35.5t-36.5 -38q-13 -16 -26 -16q-4 0 -4 4z" />
<glyph unicode="y" horiz-adv-x="837" d="M-717 -1161q0 72 31.5 171t77 190t86.5 161.5t71 110.5q338 469 834 749q12 12 37.5 109t25.5 133q0 26 -14 26q-24 0 -88 -75q-135 -154 -229.5 -226.5t-145.5 -72.5q-57 0 -57 73q0 63 44 164t97 175.5t78 74.5q10 0 18.5 -9t8.5 -22q0 -39 -52 -88q-35 -35 -95 -143.5 t-60 -159.5q0 -35 37 -35q92 0 413 385q35 43 66 43q37 0 37 -51q0 -85 -49 -243v-3q0 -4 2 -4h4q222 125 383 172h6q10 0 10 -8q0 -10 -10 -12q-195 -52 -397 -172q-11 -7 -11 -14q-14 -39 -66.5 -187.5t-98 -264t-107.5 -251.5q-170 -385 -384 -621.5t-364 -236.5 q-69 0 -104 46.5t-35 115.5zM-686 -1161q0 -55 25.5 -92t76.5 -37q46 0 113 33q101 49 237 202.5t242 337.5q70 121 197 417.5t166 457.5l12 49q0 2 -2 2l-2 -2q-199 -102 -422 -303q-185 -170 -367 -420q-41 -56 -100.5 -160.5t-117.5 -249.5t-58 -235z" />
<glyph unicode="z" horiz-adv-x="942" d="M-418 -993q0 86 55 213t144 252q47 64 101 125.5t128.5 132.5t111 105t132.5 117.5t111 96.5q16 13 16 29q0 38 -26 64t-60 26q-16 0 -30 -2t-34 -6t-34 -6q-15 0 -15 16q1 16 35.5 65.5t75.5 102.5t74.5 114t33.5 97q0 18 -7.5 30.5t-20.5 12.5q-33 -4 -110 -49.5 t-150 -100.5q-72 -61 -93 -61q-10 0 -17 11t-7 26q2 19 13 29t63 36q34 17 102.5 58t118 64.5t82.5 23.5q58 0 61 -86q0 -46 -26 -96t-79.5 -125t-76.5 -113h37q49 0 85.5 -29.5t45.5 -60.5q4 -23 10 -23l10 6q6 4 47 34t73.5 53.5t84.5 60.5t93.5 65.5t85 56.5t75.5 45.5 t49 22.5h11q9 0 12 -6q0 -6 -15 -14q-39 -13 -228 -133.5t-284 -190.5q-6 -3 -9.5 -6.5l-6 -6t-3.5 -7t-1.5 -6.5t-1 -9t-0.5 -10q-2 -108 -67 -296t-157.5 -371t-205.5 -329.5t-201 -172.5q-50 -12 -80 -12q-56 0 -93.5 35.5t-37.5 101.5zM-381 -997q0 -52 28.5 -74.5 t73.5 -22.5q68 0 147 66.5t150.5 171t139.5 233.5t117 252.5t79.5 228.5t30.5 162q0 19 -6 19l-8 -4q-32 -21 -103 -83t-167.5 -161t-188 -207.5t-168.5 -234t-106 -228.5q-19 -81 -19 -118z" />
<glyph unicode="{" horiz-adv-x="811" d="M0 -205q0 129 45 317.5t125 370.5q57 128 57 158q0 19 -22 25q-20 4 -36.5 18.5t-16.5 26.5q0 25 88 88q109 73 211 209q66 92 101.5 170.5t119.5 312.5q56 159 98.5 249.5t87.5 155.5q59 79 136.5 136t127.5 57q33 -3 33 -18q0 -13 -20 -13q-51 0 -128 -62.5 t-130 -146.5q-43 -71 -79 -156.5t-93 -252.5q-35 -109 -99 -273q-50 -106 -137.5 -216t-177.5 -179l-78 -55q7 -3 19.5 -8t17 -7t12 -6.5t10 -9.5t5 -12.5t2.5 -18.5q0 -42 -66 -188q-76 -189 -123 -371t-47 -295q0 -38 6 -65q12 -63 74.5 -110.5t124.5 -47.5l80 6 q18 0 18 -4q0 -17 -32.5 -27t-75.5 -10q-42 0 -70 11q-38 12 -86 55.5t-68 83.5q-14 44 -14 102z" />
<glyph unicode="|" horiz-adv-x="571" d="M143 -469q0 126 80 1118q56 758 115 1176q35 261 45.5 308.5t34.5 49.5q16 0 16 -26q0 -12 -14 -119q-45 -290 -138.5 -1234.5t-105.5 -1233.5q0 -113 -6 -125l-14 8q-13 10 -13 78z" />
<glyph unicode="}" horiz-adv-x="894" d="M-150 -438q0 12 13 12l14 -2q23 0 86.5 33t104.5 67q78 65 180 275q74 152 162 391q69 190 163 248q18 10 30.5 21t12.5 16q0 2 -5 17t-15 41t-21 50q-24 50 -31 72.5t-7 46.5q8 102 29.5 174t105.5 256q88 188 128 308t40 200q0 92 -54.5 151.5t-130.5 59.5l-47 -4 q-18 0 -18 12q0 14 21.5 22.5t52.5 8.5q53 0 104 -23q54 -31 90.5 -93t36.5 -134q0 -172 -170 -539q-82 -166 -104 -235.5t-25 -153.5q0 -41 42 -138t42 -116q0 -18 -13 -28.5t-51 -26.5q-28 -13 -64.5 -50t-62.5 -77q-4 -6 -71 -182q-171 -460 -303 -586q-48 -45 -125 -85 t-107 -40q-15 0 -24 10.5t-9 20.5z" />
<glyph unicode="~" horiz-adv-x="1040" d="M229 406q2 14 57.5 68t92.5 77q50 27 84 27q35 0 54.5 -16t39.5 -62q13 -34 37.5 -63t38.5 -29q15 0 74.5 35.5t103.5 70.5q42 31 49 31t10 -8q0 -15 -46 -56.5t-105 -77.5t-88 -36q-24 0 -52 22t-44 60q-29 57 -43 74.5t-29 17.5q-48 0 -158 -95q-52 -49 -67 -49 q-9 0 -9 9z" />
<glyph unicode="&#xa2;" horiz-adv-x="655" d="M49 569q0 98 55.5 207t149 190.5t192.5 98.5q17 1 22.5 6.5t14.5 26.5q11 36 40 94.5t42 77.5q22 22 35 22q9 0 12 -2t6 -10q0 -18 -30 -66q-15 -32 -25 -52t-13 -25.5t-9.5 -21t-22.5 -54.5q8 -7 22 -19t20.5 -19t15 -18.5t11.5 -25.5t3 -33q-2 -19 -15.5 -42t-27.5 -23 l-6 2q-6 0 -6 14l4 43q0 24 -17 39.5t-30 15.5q-4 0 -47 -110t-97.5 -257.5t-85.5 -242.5q129 10 258 121q36 31 43 31q6 0 6 -11q0 -3 -11.5 -16.5t-25.5 -24.5q-74 -65 -133 -92t-151 -43q-10 -32 -24.5 -80.5t-22 -73.5t-15 -55.5t-10.5 -52.5q-9 -57 -24 -61h-5 q-8 0 -8 12q10 110 58 256q12 41 12 51q0 1 -25 8q-61 13 -98 72t-37 143zM82 571q0 -83 34.5 -136.5t82.5 -53.5h10q12 2 35 60t74.5 210.5t87.5 251.5q28 83 28 92q0 4 -2 4q-80 -20 -147.5 -67t-111 -106.5t-67.5 -126t-24 -128.5z" />
<glyph unicode="&#xa3;" horiz-adv-x="1347" d="M113 184q0 15 12 33q11 12 30.5 18.5t67.5 12.5q19 3 40.5 6t25 2.5t14 5t11 7t13.5 16.5t23 26q41 44 111.5 149t118.5 193q53 86 53 109v2q-1 11 -16 13.5t-58 2.5h-72q-41 0 -45 17q0 7 9 8.5t36 1.5l158 2q18 0 25 14q20 40 50 109t52.5 118t51.5 103t60.5 91 t65.5 54q40 27 78 27q45 0 80.5 -36t40.5 -81l2 -22q0 -28 -23 -33q-13 0 -18 27q-3 55 -19.5 78.5t-54.5 23.5q-43 -1 -87 -39.5t-75 -99.5q-27 -50 -78.5 -161.5t-66.5 -150.5l-2 -12q0 -4 8 -8l111 -4q43 0 43 -14q0 -13 -25 -13l-129 2q-23 0 -36 -16.5t-60 -106.5 q-58 -108 -126.5 -214t-113.5 -156q-28 -31 -28 -43l2 -4q4 -1 79 -13t106 -16.5t90.5 -10t105.5 -5.5q153 0 223 49q27 22 45 22q8 0 8 -8v-2q0 -17 -41 -47q-84 -57 -241 -57q-96 0 -244 24q-132 21 -164 21q-29 0 -61 -19q-51 -26 -103 -26q-57 0 -63 30z" />
<glyph unicode="&#xa5;" horiz-adv-x="888" d="M66 696q0 93 68 262t151.5 301.5t126.5 137.5q1 0 5.5 -0.5t6 -1t5.5 -1.5t6 -2t5 -3t4.5 -4.5t3 -6t1.5 -8.5v-6q0 -14 -11 -16l-22 -5q-36 0 -119 -139t-137 -284q-23 -55 -40.5 -125t-17.5 -107q0 -61 37 -61q55 0 236.5 177t378.5 417q87 102 108 102q11 0 22 -5.5 t11 -17.5v-6q-11 -46 -78 -180q-32 -64 -82.5 -159t-82 -154t-31.5 -64q17 -2 38 -5t33.5 -5t27 -4t23 -4t16 -4.5t10.5 -5.5t3 -7q0 -6 -8 -6h-8q-135 11 -152 11q-13 -33 -27.5 -70t-22.5 -56.5t-11 -25.5q0 -10 20 -10l10 2q39 0 66 -7t27 -16q0 -8 -9 -8q-5 0 -15.5 1 t-40 3t-73.5 4q-90 -228 -118 -313.5t-35 -163.5q-6 -70 -15 -70q-3 0 -6.5 5.5t-6.5 19t-3 31.5q0 65 23 149q17 54 68 196.5t54 145.5q0 2 -16 2l-100 -4q-29 0 -29 4q0 3 1.5 5.5t6 4.5t9.5 3.5t13.5 2.5l17 2t21.5 1.5t25 1.5t30 2t34 2q61 143 61 156q-49 -3 -87.5 -8 t-57 -8t-25.5 -3q-11 0 -11 6q-1 3 -1 4q0 12 42 19.5t159 19.5q88 212 133 289q16 34 31.5 65t23.5 47.5t14.5 29.5t8.5 18t2 6q-8 -6 -101 -113q-153 -174 -293 -305.5t-200 -159.5q-36 -20 -66 -20q-69 0 -69 102z" />
<glyph unicode="&#xa8;" horiz-adv-x="352" d="M68 1769q0 22 23.5 44t41.5 22q14 -3 14 -25q0 -29 -20 -52t-37 -23q-22 0 -22 34zM199 1765q0 20 23.5 42t41.5 22q12 0 12 -19q-3 -34 -18 -54.5t-37 -20.5t-22 30z" />
<glyph unicode="&#xa9;" horiz-adv-x="1179" d="M129 311q0 111 46 235t122 222q-15 -6 -53 -47.5t-56 -81.5q-12 -36 -12 -61q-2 -18 -12 -21q-7 0 -8.5 4t-3.5 19q0 31 12 67q47 85 100 129q35 27 92 55q35 31 38 34q2 1 24 14h4q5 0 10.5 -3.5t5.5 -9.5q15 3 41.5 9t47 9t40.5 3q207 -4 300.5 -92.5t93.5 -251.5 q0 -81 -13.5 -141t-52.5 -128q-66 -124 -200 -204t-265 -80q-129 0 -215 89t-86 232zM162 328q0 -134 76 -216.5t198 -82.5q87 0 175 39t159 106t116 165t46 206q0 138 -47 196q-46 55 -126.5 85t-170.5 30q-106 0 -189 -39q-48 -25 -103 -103.5t-94.5 -186t-39.5 -199.5z M305 338q0 87 54 190.5t147 186.5q37 33 55.5 42t42.5 9q33 0 51.5 -18.5t18.5 -51.5q0 -47 -43 -110.5t-60 -63.5q-4 0 -4 8q0 9 18.5 68t18.5 82q0 27 -8 27q-19 0 -87.5 -66t-109.5 -141q-53 -97 -53 -170q0 -51 29 -78t82 -27q74 0 127 39q27 17 37 17t10 -11 q-2 -21 -62 -51.5t-125 -30.5q-139 0 -139 150z" />
<glyph unicode="&#xab;" horiz-adv-x="694" d="M47 449q0 16 14 30q32 30 181 121.5t172 91.5q28 -9 28 -24q0 -7 -6 -13q-1 -1 -2.5 -3.5t-2.5 -4.5t-4 -3.5t-7 -2.5q-12 0 -159.5 -82.5t-156.5 -101.5q-6 -3 -6 -11q0 -14 76 -83t76 -78q-3 -6 -8 -6q-8 0 -28 14t-56 42t-58 44q-53 42 -53 70zM270 451q0 11 21 32 q20 20 143.5 91.5t157.5 84.5q3 3 14 3h4q11 0 11 -5q0 -1 1 -5t1 -7q0 -17 -19 -22q-24 -7 -46 -16t-51 -24t-41 -22t-49 -28.5t-42 -24.5q-8 -6 -23.5 -15.5t-28.5 -19t-24 -20.5q34 -35 65 -63.5t47 -41.5t28 -23t16 -15.5t4 -12.5q0 -18 -10 -18q-13 0 -96 78t-83 94z " />
<glyph unicode="&#xad;" d="M45 631q0 5 10.5 12.5t16.5 9.5q37 13 315 13q334 0 334 -33q0 -10 -49 -10q-10 0 -38 2.5t-85.5 5t-140.5 2.5q-199 -2 -342 -10q-21 0 -21 8z" />
<glyph unicode="&#xae;" horiz-adv-x="522" d="M76 1565q0 129 110 227q36 36 90.5 61t90.5 25q7 0 11.5 -3t22.5 -10t52 -14q75 -14 102 -55.5t27 -103.5q0 -78 -47 -154.5t-122.5 -124t-152.5 -47.5q-37 0 -67 10q-41 18 -76 61.5t-39 86.5zM104 1556q0 -74 44.5 -119.5t113.5 -45.5q44 0 94 24q44 21 93.5 69 t74.5 91q25 55 25 123q0 37 -10 67q-17 32 -70 52t-113 20q-98 0 -173.5 -86t-78.5 -195zM223 1491q2 31 27 100.5t55 118.5q14 25 14 33q0 4 -12 4q-14 0 -26.5 -9t-16.5 -9q-6 0 -11 4t-5 10q0 9 32.5 21t53.5 12q14 0 53 -17q17 -6 23 -12t6 -18q-1 -16 -3 -23t-12 -20 t-32 -31q-37 -33 -37 -39h2q8 0 61.5 -51.5t53.5 -61.5q0 -8 -9 -8q-15 0 -41 29q-26 27 -62.5 53.5t-47.5 26.5q-6 -1 -30.5 -64t-31.5 -63q-4 0 -4 14zM305 1645l2 -3q6 0 44 32t38 48q0 17 -38 22q-1 0 -2.5 0.5t-2.5 0.5q-6 -5 -23.5 -47.5t-17.5 -52.5z" />
<glyph unicode="&#xb4;" horiz-adv-x="395" d="M43 1718q1 9 4.5 14t31.5 23.5t85 46.5q99 47 129 47q24 -6 24 -18q0 -10 -39 -27q-55 -26 -108 -53q-25 -14 -52.5 -36.5t-37.5 -24.5h-8q-12 0 -20.5 8.5t-8.5 19.5z" />
<glyph unicode="&#xb8;" horiz-adv-x="397" d="M-86 -162q3 21 16 21t19 -21q12 -31 67 -31q38 0 67.5 20t29.5 46q0 37 -60 72q-5 3 -12.5 6t-10.5 5l-7.5 5t-6.5 7.5t-4 11.5q0 1 15 26q10 16 25.5 36t23.5 32q8 4 14 4q2 -1 4 -1q4 -1 4 -5q-18 -34 -53 -84q66 -37 81 -52q24 -25 24 -63q-3 -49 -37.5 -77.5 t-87.5 -28.5q-45 0 -76.5 18.5t-34.5 52.5z" />
<glyph unicode="&#xbb;" horiz-adv-x="581" d="M0 283q0 8 16 16q230 143 295 186l-69 74q-17 19 -36.5 34t-30.5 22t-15 8q-6 6 -6 16q0 15 12 18q13 0 95.5 -79t82.5 -91q0 -10 -4.5 -18t-9.5 -11.5t-13.5 -8.5t-11.5 -7q-47 -35 -209 -120q-12 -7 -27 -15.5t-22.5 -13.5t-16 -9t-13.5 -6t-9 -2q-8 0 -8 7zM213 279 q1 8 6 13.5t31 19.5t86 42q126 55 167 76.5t44 32.5q0 17 -53.5 59t-106.5 80t-53 45q0 12 6 12q11 0 40.5 -20.5t80 -60.5t78.5 -60q43 -28 43 -59q0 -18 -15.5 -30t-68.5 -38q-260 -123 -279 -123q-6 0 -6 11z" />
<glyph unicode="&#xc2;" horiz-adv-x="1873" d="M0 -362q0 44 41 77q39 25 57 25l15 -2q24 0 98 67q102 89 203 186.5t152.5 150.5t179.5 189.5t172 182.5q8 8 8 14q0 9 -17 9q-141 -6 -413.5 -37t-405.5 -76l-18 -2q-13 0 -22 8.5t-9 20.5q0 23 27 32q38 23 73 23l17 -4q12 -4 20 -4l68 6q101 18 188.5 27.5t238 22.5 t275.5 26q21 3 53 26q225 210 604 667t531 707q94 151 168 244.5t106 93.5q17 0 17 -16q0 -13 -12 -37l-146 -199q-111 -146 -169 -245.5t-173 -350.5q-94 -207 -206 -491t-128 -352q0 -2 11 -6q17 0 205 12t268 12q26 0 33.5 -4t7.5 -14q0 -7 -20.5 -16t-35.5 -9 q-16 0 -16 8q-73 -4 -156 -5.5t-146.5 -4.5t-144.5 -12h-6q-15 0 -22 -17q-182 -686 -182 -1007q0 -65 10 -116t24 -62q11 -11 11 -25q0 -16 -13 -16t-26 18q-45 53 -45 217q0 105 14 230t39 249.5t45.5 213.5t46.5 191.5t29 113.5q0 6 -6 6l-502 -41q-38 -5 -70 -41 q-92 -95 -235 -247t-267.5 -279t-279.5 -275q-21 -19 -44 -42t-34 -33.5t-25.5 -18.5t-29.5 -8q-18 0 -23 7.5t-8 31.5zM1055 598q0 -8 20 -8h8q55 6 240.5 15.5t196.5 10.5q14 0 20 19q156 441 408 958q26 69 26 72l-2 2q-8 0 -33 -37q-86 -107 -208.5 -251t-192 -224 t-256 -293.5t-225.5 -257.5zM2390 2433q0 7 8 12q20 19 50 43t70 54.5t62 48.5l13 4q7 0 11.5 -6t4.5 -13q-26 -132 -37 -172q-7 -20 -20 -20q-5 0 -10 6t-5 14q0 12 14.5 67.5t14.5 63.5l-2 5l-38 -30q-37 -30 -77 -60.5t-47 -30.5q-12 6 -12 14z" />
<glyph unicode="&#xc7;" horiz-adv-x="2146" d="M0 47q0 173 45.5 361.5t116.5 347.5q56 128 141.5 268.5t190.5 279.5t230.5 272t256 244.5t272 198t273.5 131.5q82 29 170 29q137 0 220 -75t83 -222q0 -160 -103 -399q-42 -93 -116.5 -221t-104.5 -158q-29 -33 -57 -33q-14 0 -23.5 14t-9.5 39q1 33 34.5 76t57.5 43h4 q11 0 27 22t55 91q171 310 174 518q0 96 -27 149t-93 84q-48 23 -121 23q-77 0 -144 -23q-151 -49 -319 -159.5t-321 -254.5t-292 -308.5t-246.5 -331.5t-170.5 -314q-68 -155 -114 -344.5t-46 -359.5q0 -272 134.5 -424t363.5 -152q85 0 180 25q152 37 330.5 124t339 192.5 t314 224t267 222.5t185.5 185q7 10 14 10q5 -1 6 -6q0 -1 -8 -12q-83 -104 -289 -287q-216 -192 -444 -347t-472 -259t-429 -104q-131 0 -232 43q-11 -21 -45 -66q68 -38 84 -55q23 -24 23 -60q-4 -49 -37 -76.5t-86 -27.5q-44 0 -77.5 19t-33.5 51q3 20 12 20q12 0 21 -20 q11 -31 67 -31q38 0 67.5 19.5t29.5 45.5q0 35 -60 70q-5 3 -13 7t-10.5 5.5t-6.5 5t-6 8t-3 11.5q0 14 56 84q-140 69 -212.5 214.5t-72.5 352.5z" />
<glyph unicode="&#xce;" horiz-adv-x="1417" d="M0 -457q0 8 13 19.5t20 13.5q33 12 148 30t212 25q229 17 617 17q180 0 274 -6q174 -11 308 -36t134 -48q0 -11 -10 -11q-13 0 -119 23q-158 37 -553 37q-610 0 -894 -62q-91 -16 -117 -16q-33 0 -33 14zM791 -270l4 24q82 377 581 1438l252 532q29 59 29 70 q0 7 -8.5 19.5t-8.5 19.5q0 19 21 37q20 18 80 129t76 155q-238 -10 -380 -20t-415 -39q-160 -16 -174 -16q-49 0 -49 22q2 16 56.5 24t139.5 12.5t111 8.5q311 41 727 41q31 48 55.5 71t53.5 23q22 0 22 -26q0 -6 -4 -20t-6 -25q0 -9 121 -14t282.5 -9.5t216.5 -9.5 q83 -6 165.5 -20.5t94.5 -24.5q7 -7 7 -10q0 -11 -11 -11l-12 5q-41 15 -258 29t-403 14q-53 0 -85 -0.5t-47 -1.5t-46.5 -3t-65.5 -4l-205 -409q-26 -53 -146 -273t-173 -350q-41 -98 -198 -453.5t-235 -562.5q-81 -206 -133 -354q-12 -35 -22 -35q-8 3 -9 8q-1 4 -1 9z M1892 2437q0 6 9 12q20 19 50 43t70 54.5t62 48.5l12 4q7 0 11.5 -6t4.5 -13q-28 -144 -36 -172q-7 -20 -21 -20q-5 0 -9.5 6t-4.5 14q0 12 14 68t14 64l-2 4l-37 -30q-37 -30 -77 -60.5t-47 -30.5q-13 7 -13 14z" />
<glyph unicode="&#xd6;" horiz-adv-x="1531" d="M0 27q0 143 20 233q34 161 111 363.5t166 361.5q26 48 34 95.5t8 86t26 123t84 197.5q67 131 143 229.5t178 186.5q148 128 257 183.5t235 55.5q42 0 69 -6q94 -19 171.5 -84t121.5 -162q33 -85 33 -207q-6 -260 -60 -481t-194 -516q-64 -135 -143.5 -273.5t-186.5 -289 t-216 -268.5t-236.5 -201t-243.5 -96l-60 -2q-72 3 -135 46t-106 117q-30 48 -53 130t-23 178zM41 20q0 -152 65.5 -269.5t159.5 -147.5q21 -9 60 -9q90 0 174.5 38t193.5 122q254 207 506.5 635t351.5 803q68 259 72 455q0 180 -80 300t-217 148q-18 4 -65 4 q-94 0 -146 -18q-81 -29 -185 -100.5t-215 -184.5t-179 -233q-88 -150 -124 -245t-46 -210q12 17 48.5 74t64 98.5t60.5 90t55.5 77t31.5 31.5q9 6 20 6q18 0 29.5 -11.5t11.5 -29.5q0 -19 -43.5 -73t-58.5 -54q-18 0 -176 -246q-9 -14 -19 -29.5t-14 -22t-8.5 -14 t-5.5 -11.5t-1 -9l7 -51q6 -38 19 -75.5t22.5 -60.5t9.5 -30q0 -6 -8 -6q-17 1 -35.5 43t-30 84.5t-12.5 42.5q-4 0 -34 -57t-73.5 -155.5t-85 -212.5t-71 -247t-29.5 -240zM1368 2357q0 26 30.5 54t53.5 28q21 -3 21 -31q0 -36 -26.5 -66t-49.5 -30q-12 0 -20.5 12t-8.5 33 zM1538 2349q0 26 30.5 54t53.5 28q14 0 14 -25q-3 -41 -23 -68.5t-46 -27.5q-13 0 -21 12t-8 27z" />
<glyph unicode="&#xdb;" horiz-adv-x="1628" d="M0 49q0 223 135.5 644t327.5 823q62 131 167.5 312.5t139.5 213.5q12 12 29 12q14 0 24.5 -12t10.5 -31q0 -21 -18 -53t-44 -33q-15 -2 -29.5 -19.5t-56.5 -88.5q-177 -294 -352 -736.5t-246 -742.5q-39 -162 -39 -326q0 -97 43 -149q17 -20 27 -24.5t39 -4.5 q123 0 370 232q207 196 431 489.5t532 773.5q442 684 463 705q12 12 22 12q19 -3 19 -21q0 -30 -49 -131q-245 -509 -387.5 -851.5t-225.5 -622.5q-40 -139 -76 -341.5t-36 -350.5q0 -115 26 -174q13 -33 13 -48q0 -10 -5 -10q-11 0 -25.5 17t-29.5 65t-18 117 q0 57 10 179.5t20 188.5q46 306 182.5 685t409.5 958q51 94 51 109q-7 -6 -132.5 -196t-229.5 -351q-310 -486 -526 -770.5t-418 -472.5q-119 -112 -222.5 -175t-174.5 -63q-73 0 -112.5 68t-39.5 194zM1362 2183q0 7 8 12q20 19 50 43t70 54.5t62 48.5l13 4q7 0 11.5 -5.5 t4.5 -12.5q-26 -135 -37 -173q-7 -20 -20 -20q-5 0 -10 6t-5 14q0 12 14.5 68t14.5 64l-2 4l-38 -30q-37 -30 -77 -60.5t-47 -30.5q-12 6 -12 14z" />
<glyph unicode="&#xdc;" horiz-adv-x="1628" d="M0 49q0 223 135.5 644t327.5 823q62 131 167.5 312.5t139.5 213.5q12 12 29 12q14 0 24.5 -12t10.5 -31q0 -21 -18 -53t-44 -33q-15 -2 -29.5 -19.5t-56.5 -88.5q-177 -294 -352 -736.5t-246 -742.5q-39 -162 -39 -326q0 -97 43 -149q17 -20 27 -24.5t39 -4.5 q123 0 370 232q207 196 431 489.5t532 773.5q442 684 463 705q12 12 22 12q19 -3 19 -21q0 -30 -49 -131q-245 -509 -387.5 -851.5t-225.5 -622.5q-40 -139 -76 -341.5t-36 -350.5q0 -115 26 -174q13 -33 13 -48q0 -10 -5 -10q-11 0 -25.5 17t-29.5 65t-18 117 q0 57 10 179.5t20 188.5q46 306 182.5 685t409.5 958q51 94 51 109q-7 -6 -132.5 -196t-229.5 -351q-310 -486 -526 -770.5t-418 -472.5q-119 -112 -222.5 -175t-174.5 -63q-73 0 -112.5 68t-39.5 194zM1348 2161q0 26 30.5 54t53.5 28q20 -3 20 -31q0 -36 -26.5 -66 t-49.5 -30q-28 0 -28 45zM1518 2152q0 26 30.5 54t53.5 28q14 0 14 -24q-3 -41 -23.5 -68.5t-46.5 -27.5q-13 0 -20.5 11.5t-7.5 26.5z" />
<glyph unicode="&#xe2;" horiz-adv-x="821" d="M-92 274q0 58 101.5 177.5t174.5 152.5q43 19 68 19t44.5 -11t31.5 -26.5t21 -31.5t17 -27t15 -11l10 2q9 0 12 -20q0 -16 -30.5 -85t-30.5 -102q0 -42 20.5 -72t57.5 -30q49 0 123 39q58 28 147.5 86.5t120.5 89.5q18 18 27 18q6 0 6 -10q-2 -24 -98.5 -97.5 t-182.5 -115.5q-86 -41 -147 -41q-63 0 -91 39.5t-28 93.5q0 15 2 30.5t5 27t6 21t5 14.5l2 6l-2 2q-6 0 -72 -47t-148.5 -94.5t-129.5 -47.5q-25 0 -41 14.5t-16 36.5zM-41 279q0 -5 0.5 -6.5t3 -3t8.5 -1.5q25 0 105 45q58 29 141.5 90t85.5 72q0 3 -8.5 20t-27.5 35.5 t-40 18.5q-11 -1 -20 -3t-15.5 -4t-16 -8t-14 -8.5t-16.5 -13.5t-17.5 -16t-23 -21.5t-26.5 -25.5q-46 -48 -82.5 -99.5t-36.5 -70.5zM221 698q0 8 8 13q26 25 96 78t87 67l12 4q7 0 11.5 -5.5t4.5 -12.5q-26 -132 -37 -172q-7 -21 -20 -21q-5 0 -9.5 6t-4.5 15 q0 12 14 67.5t14 63.5l-2 4l-37 -31q-38 -30 -78 -60t-47 -30q-12 6 -12 14z" />
<glyph unicode="&#xe7;" horiz-adv-x="679" d="M-147 -152q6 21 16 21q9 0 18 -21q6 -16 25 -22q16 -8 43 -8q42 0 68 20q28 19 28 45q0 37 -59 72q-3 1 -5.5 2.5t-5.5 3t-4 2.5q-9 3 -16 10q-7 3 -10 17q0 4 4 8q1 1 2 4.5t2 5.5q1 1 3 4t3 4q3 4 13.5 17.5t13.5 19.5q11 11 20 29q-24 9 -43 31q-39 39 -39 106 q6 128 99 268q28 42 84 107q59 68 120 121q65 53 121 53q81 -12 84 -111q0 -22 -10 -32q-12 -12 -25 -15q-7 0 -18 11t-14 26q-1 5 -2 15.5t-2 15.5q0 10 -5 35q-3 12 -16 12q-44 -3 -110 -63q-68 -62 -132 -144q-58 -74 -98 -156q-41 -84 -41 -145q0 -52 27 -82 q28 -31 82 -31q130 9 295 107q154 87 309 223q8 8 14 8h4q0 -2 2 -4q0 -5 -10 -18q-184 -163 -338 -246q-157 -85 -260 -102h-24q-13 0 -33 4l-17 -33l-20 -29q-4 -4 -12 -16q2 -2 10 -6q41 -19 69 -43q25 -22 25 -66q-3 -51 -37 -78q-36 -28 -88 -28q-44 0 -74 18 q-33 17 -36 53z" />
<glyph unicode="&#xee;" horiz-adv-x="569" d="M-59 236q0 74 38 164t68 120q12 12 25 12q20 0 20 -28q0 -16 -9 -31.5t-27.5 -43t-32.5 -56.5q-46 -94 -46 -152t60 -61q67 0 175.5 52t187.5 105.5t143 104.5q26 20 39 20q6 0 6 -4q0 -15 -31 -37q-51 -39 -104.5 -75.5t-132.5 -86t-152.5 -80t-122.5 -30.5 q-55 3 -79.5 27.5t-24.5 79.5zM45 623q0 7 8 12q26 25 96 78t87 67l12 4q7 0 11.5 -5.5t4.5 -12.5q-26 -132 -37 -172q-7 -21 -20 -21q-5 0 -9.5 6t-4.5 15q0 12 14 67.5t14 63.5l-2 4l-37 -31q-38 -30 -78 -60t-47 -30q-12 6 -12 15z" />
<glyph unicode="&#xf6;" horiz-adv-x="419" d="M-92 186q0 69 51 154q17 34 32 77.5t24.5 69.5t26 51.5t45 37t73.5 12.5q53 0 79.5 -28.5t26.5 -76.5q0 -71 -53 -159q-36 -65 -109.5 -140t-130.5 -75q-28 0 -46.5 21t-18.5 56zM-43 178q0 -2 0.5 -5t0.5 -5t1 -4.5t2 -4t3 -3t5.5 -2.5t8 -1.5t10.5 -0.5q32 1 99.5 74 t96.5 120q41 69 41 123q0 36 -16.5 57t-44.5 21q-23 0 -23 -8v-11q0 -28 -35 -63q-45 -44 -97 -144.5t-52 -142.5zM147 674q0 22 23.5 43.5t42.5 21.5q14 -3 14 -24q0 -29 -20 -52.5t-37 -23.5q-10 0 -16.5 10t-6.5 25zM279 670q0 20 23.5 41.5t41.5 21.5q12 0 12 -18 q-3 -34 -18 -55t-37 -21q-10 0 -16 9t-6 22z" />
<glyph unicode="&#xfb;" horiz-adv-x="712" d="M-123 156q0 6 4 34q26 83 85 194t112 177q18 21 37 21q11 0 19.5 -8.5t8.5 -18.5q0 -32 -43 -57q-50 -31 -117 -153t-67 -183q0 -37 27 -37q13 0 37 12q29 15 145.5 129.5t191.5 202.5q43 51 64 51q16 0 16 -20q0 -12 -18.5 -76t-18.5 -94q0 -67 64 -80q43 0 126.5 52 t154.5 126q12 14 22 14q6 0 6 -4q0 -8 -10 -18q-4 -7 -52 -53.5t-123 -97t-124 -50.5q-13 0 -29 4q-47 18 -64.5 45.5t-17.5 69.5q0 32 6 70q-74 -86 -163.5 -168.5t-151.5 -126.5q-29 -23 -59 -23q-68 0 -68 66zM217 676q0 7 8 12q26 25 97.5 79.5t85.5 66.5l12 4 q7 0 11.5 -6t4.5 -13q-26 -132 -37 -172q-7 -20 -20 -20q-5 0 -9.5 6t-4.5 14q0 12 14 67.5t14 63.5l-2 4l-37 -30q-38 -30 -78 -60t-47 -30q-12 6 -12 14z" />
<glyph unicode="&#xfc;" horiz-adv-x="712" d="M-123 156q0 6 4 34q26 83 85 194t112 177q18 21 37 21q11 0 19.5 -8.5t8.5 -18.5q0 -32 -43 -57q-50 -31 -117 -153t-67 -183q0 -37 27 -37q13 0 37 12q29 15 145.5 129.5t191.5 202.5q43 51 64 51q16 0 16 -20q0 -12 -18.5 -76t-18.5 -94q0 -67 64 -80q43 0 126.5 52 t154.5 126q12 14 22 14q6 0 6 -4q0 -8 -10 -18q-4 -7 -52 -53.5t-123 -97t-124 -50.5q-13 0 -29 4q-47 18 -64.5 45.5t-17.5 69.5q0 32 6 70q-74 -86 -163.5 -168.5t-151.5 -126.5q-29 -23 -59 -23q-68 0 -68 66zM207 662q0 22 23 43.5t42 21.5q15 -3 15 -25 q0 -28 -20.5 -51.5t-37.5 -23.5q-22 0 -22 35zM338 657q0 20 23.5 42t41.5 22q13 0 13 -19q-3 -34 -18.5 -54.5t-37.5 -20.5t-22 30z" />
<glyph unicode="&#x11e;" horiz-adv-x="2201" d="M0 225q0 396 334 922q90 144 203 282t247 264.5t273 225t290 163t291 79.5q16 2 50 2q146 0 249 -82.5t115 -198.5q4 -46 4 -74q0 -155 -55 -330.5t-141 -287.5q-19 -27 -41 -27q-13 0 -21 8q-12 8 -12 15t15.5 27t42 53.5t44.5 64.5q62 101 95.5 236.5t33.5 257.5l-2 55 q-8 101 -104 176.5t-225 75.5q-141 -7 -295.5 -70.5t-295 -164t-276 -231t-246 -267.5t-198.5 -277q-332 -538 -332 -913q0 -234 135 -393q107 -121 287 -121q154 0 338 88q130 63 228.5 137.5t287.5 253.5q226 214 389 391q8 8 8 15q0 4 -10 4q-104 -5 -432 -52 q-27 -4 -61 -16.5t-44 -13.5l-28 -2q-60 0 -60 37q1 11 3 14.5t15 6.5t46 5l579 58q3 1 10 2t10 2.5t8.5 6.5t10.5 15q42 72 74 72q14 0 22.5 -12.5t8.5 -28.5q0 -12 -6.5 -26t-6.5 -15q0 -6 19 -6q8 0 122.5 13t162.5 13h28q41 0 41 -24q0 -6 -28 -6h-41l-295 -23 q-30 -2 -43 -31l-82 -153q-120 -214 -219 -533t-127 -510q-9 -78 -25 -84q-11 -8 -22 -8q-22 0 -27 21q0 67 156 549.5t213 605.5l12 35q-9 0 -78 -78q-197 -218 -367.5 -371t-310 -238t-251.5 -122t-216 -37q-195 0 -323 137q-154 177 -154 438zM1540 2454q0 63 25.5 134 t56.5 114.5t49 43.5q9 0 16 -8t7 -20q0 -16 -9.5 -31.5t-28.5 -42.5t-34 -55q-45 -92 -45 -152q0 -33 14 -47t47 -14q51 0 124.5 28.5t149 74.5t129.5 83t103 74q22 20 39 20h4l2 -4q0 -13 -30 -37q-370 -272 -514 -272q-54 1 -79.5 28t-25.5 83z" />
<glyph unicode="&#x11f;" horiz-adv-x="923" d="M-1116 -1270q0 105 54 228.5t126 230.5q84 125 226 260.5t308.5 257t321 220.5t309.5 186q22 11 46 28t42.5 32t20.5 17q13 9 65 113.5t52 122.5q0 10 -9 10q-17 0 -83 -51.5t-140 -113.5t-159.5 -113.5t-137.5 -51.5q-69 0 -69 66q0 67 68 172.5t169 192.5 q117 102 221 102q79 0 119 -64q19 -36 29 -36q16 0 32.5 46.5t34 93t35.5 46.5q20 0 36.5 -12t16.5 -27q-1 -31 -31 -107t-85 -192t-56 -119q-10 -27 -10 -30q0 -7 6 -7l13 5q30 14 113.5 55t125 60t109.5 45.5t129 43.5l10 2q3 0 4 -1t1 -3.5t1 -3.5q0 -5 -8 -10 q-23 -6 -243 -106.5t-279 -135.5l-6 -4t-5 -3t-4 -3.5t-2.5 -3t-2.5 -4t-2.5 -4.5l-3 -6l-3.5 -7q-43 -101 -96 -214t-127.5 -254t-153 -274.5t-172 -269.5t-186 -246t-195.5 -197.5t-198 -129.5q-86 -39 -179 -39q-115 0 -163 78q-35 52 -35 129zM-1077 -1266 q0 -79 45.5 -124.5t126.5 -45.5q70 0 145 35q121 53 266.5 204.5t272 335.5t242.5 381t191 346.5t103 227.5l2 8q0 11 -8 18t-20 7q-7 0 -19 -4q-112 -57 -235.5 -133.5t-254.5 -171.5t-254 -198t-233 -217.5t-192 -225.5t-130 -226.5t-48 -216.5zM-92 174q0 -24 24 -24 q46 0 164.5 82t213.5 163t104 94l2 13q0 19 -17.5 42.5t-38.5 30.5q-18 9 -43 9q-59 0 -134 -51.5t-134 -120t-100 -136.5t-41 -102zM-51 829q0 63 25.5 134t56.5 115t49 44q9 0 15.5 -8t6.5 -20q0 -16 -9 -31.5t-28.5 -42.5t-33.5 -55q-45 -92 -45 -152q0 -33 14 -47 t47 -14q51 0 124.5 28.5t149 74.5t129.5 83t103 74q23 20 39 20h4l2 -4q0 -12 -31 -37q-370 -272 -514 -272q-54 1 -79 27.5t-25 82.5z" />
<glyph unicode="&#x130;" horiz-adv-x="1417" d="M0 -457q0 8 13 19.5t20 13.5q33 12 148 30t212 25q229 17 617 17q180 0 274 -6q174 -11 308 -36t134 -48q0 -11 -10 -11q-13 0 -119 23q-158 37 -553 37q-610 0 -894 -62q-91 -16 -117 -16q-33 0 -33 14zM791 -270l4 24q82 377 581 1438l252 532q29 59 29 70 q0 7 -8.5 19.5t-8.5 19.5q0 19 21 37q20 18 80 129t76 155q-238 -10 -380 -20t-415 -39q-160 -16 -174 -16q-49 0 -49 22q2 16 56.5 24t139.5 12.5t111 8.5q311 41 727 41q31 48 55.5 71t53.5 23q22 0 22 -26q0 -6 -4 -20t-6 -25q0 -9 121 -14t282.5 -9.5t216.5 -9.5 q83 -6 165.5 -20.5t94.5 -24.5q7 -7 7 -10q0 -11 -11 -11l-12 5q-41 15 -258 29t-403 14q-53 0 -85 -0.5t-47 -1.5t-46.5 -3t-65.5 -4l-205 -409q-26 -53 -146 -273t-173 -350q-41 -98 -198 -453.5t-235 -562.5q-81 -206 -133 -354q-12 -35 -22 -35q-8 3 -9 8q-1 4 -1 9z M1948 2408q0 26 30.5 54t53.5 28q20 -3 20 -30q0 -36 -27 -66.5t-49 -30.5q-28 0 -28 45z" />
<glyph unicode="&#x131;" horiz-adv-x="579" d="M-51 248q0 63 25.5 134t56.5 115t49 44q9 0 15.5 -8.5t6.5 -20.5q0 -16 -9 -31.5t-28.5 -42.5t-33.5 -55q-45 -92 -45 -152q0 -33 14 -47t47 -14q51 0 124.5 28.5t149 74.5t129.5 83t103 74q24 21 39 21h4l2 -5q0 -11 -31 -36q-372 -273 -514 -273q-54 1 -79 28t-25 83z " />
<glyph unicode="&#x15e;" horiz-adv-x="1468" d="M0 1167q0 71 63 168q112 169 302 337t411.5 295t421.5 181q150 39 275 39q278 0 278 -190q0 -89 -63 -213t-145 -225.5t-161.5 -173.5t-113.5 -72q-22 0 -35.5 14.5t-13.5 36.5l2 14q3 14 13.5 19t63.5 18q38 10 76 42t107 108q235 280 235 436q0 158 -254 158 q-171 0 -388.5 -83.5t-440.5 -234.5q-227 -158 -407 -359.5t-183 -305.5q0 -82 102 -131q79 -37 313 -87q17 -3 51 -10l46 -10q262 -54 330 -72.5t184 -64.5q2 0 36 11.5t90.5 23.5t113.5 12q55 -1 90.5 -7t48 -13t12.5 -15t-14 -8q-17 2 -43.5 6t-45 6t-36.5 2 q-79 0 -207 -41q36 -27 56 -44t45 -45t36.5 -60.5t12.5 -71.5q0 -119 -143.5 -309t-344.5 -334q-111 -78 -245 -131t-224 -53q-190 15 -190 176q0 87 64 201t171.5 226.5t258 220.5t313.5 181q82 38 82 43q0 4 -45 18.5t-174.5 46t-313.5 68.5q-219 43 -305 76 q-168 65 -168 180zM156 -86q0 -62 44 -99.5t115 -37.5q89 0 202.5 46.5t191.5 100.5q68 44 153 119t166 163.5t136 185t55 167.5q0 21 -7 45q-15 42 -73 95t-88 53l-7 -2q-49 -10 -198 -92t-240 -148q-65 -47 -139.5 -117.5t-145.5 -153.5t-118 -171t-47 -154zM158 -516 q0 16 30 31q39 20 82 76t43 102q6 28 19 28q10 0 19 -20t9 -43q0 -51 -76 -118.5t-112 -67.5q-14 0 -14 12z" />
<glyph unicode="&#x15f;" horiz-adv-x="645" d="M-115 31q0 33 27 69.5t53 56.5t64 46q53 37 168 98q0 1 1 2.5t1 3.5q0 4 -4 6q-5 3 -33.5 16.5t-44.5 22t-42.5 24.5t-41 28.5t-27 29t-12.5 31.5q0 57 54 108t129 81t145 47.5t112 17.5q25 0 39 -19q16 -16 16 -32q0 -25 -40 -62t-56 -37q-10 0 -10 19q0 14 9.5 35 t10.5 26q0 6 -8 6q-41 -4 -98 -20t-113 -39.5t-94.5 -57.5t-38.5 -69q1 -24 49.5 -55t105.5 -55.5t58 -24.5q69 29 188.5 63.5t192.5 42.5l14 2l5 -2q0 -1 -17 -8q-239 -43 -377 -104q56 -53 56 -107q0 -31 -21 -69q-35 -59 -145 -120t-193 -61q-39 3 -59 15.5t-23 44.5z M-104 35q0 -36 49 -47l18 -2q58 0 135 36.5t133 88.5t56 92q0 33 -21 59t-53 37l-10 -4q-82 -36 -172 -94q-135 -96 -135 -166zM-82 -207q12 15 27 33.5t19 24t12 17t13.5 21.5t14.5 29q3 6 7 16t6 12.5t6 2.5q11 0 14.5 -17t-4.5 -38q-5 -11 -11.5 -26t-8.5 -20t-6 -13 t-7.5 -12.5t-8 -10.5t-11.5 -13q-4 -4 -14.5 -10.5t-12.5 -7.5q-11 -8 -31 -6q-17 2 -4 18z" />
<glyph unicode="&#x2c6;" horiz-adv-x="356" d="M61 1675q0 7 9 13q26 25 96.5 79t85.5 66l12 4q7 0 12 -6t5 -12q-26 -132 -37 -172q-7 -21 -21 -21q-5 0 -9.5 6t-4.5 15q0 12 14.5 67.5t14.5 63.5l-2 4l-38 -30q-37 -30 -77 -60.5t-47 -30.5q-13 7 -13 14z" />
<glyph unicode="&#x2da;" horiz-adv-x="264" d="M33 1636q0 41 35.5 92.5t54.5 51.5l12 -4q8 2 15 4l10.5 3t8.5 2t11 1q39 0 39 -51q0 -48 -46 -99t-91 -51q-26 0 -35 11t-14 40zM68 1636q0 -16 12 -16q18 0 55 34.5t37 55.5l4 16q0 9 -6.5 12.5t-26.5 6.5q-26 0 -35 -8t-24 -43q-16 -43 -16 -58z" />
<glyph unicode="&#x2dc;" horiz-adv-x="528" d="M82 1622q0 24 45.5 62t75.5 38q16 -3 23.5 -9t11.5 -21q8 -28 17 -43.5t14.5 -18.5t13.5 -4q19 0 67 40t51 40q13 -4 13 -20q-12 -36 -57 -66.5t-70 -34.5h-4q-26 0 -42 16t-21 34.5t-11.5 34.5t-15.5 16q-8 0 -58 -46q-10 -7 -16 -13.5t-10.5 -10.5t-14.5 -8 q-12 0 -12 14z" />
<glyph unicode="&#x2000;" horiz-adv-x="1373" />
<glyph unicode="&#x2001;" horiz-adv-x="2746" />
<glyph unicode="&#x2002;" horiz-adv-x="1373" />
<glyph unicode="&#x2003;" horiz-adv-x="2746" />
<glyph unicode="&#x2004;" horiz-adv-x="915" />
<glyph unicode="&#x2005;" horiz-adv-x="686" />
<glyph unicode="&#x2006;" horiz-adv-x="457" />
<glyph unicode="&#x2007;" horiz-adv-x="457" />
<glyph unicode="&#x2008;" horiz-adv-x="343" />
<glyph unicode="&#x2009;" horiz-adv-x="549" />
<glyph unicode="&#x200a;" horiz-adv-x="152" />
<glyph unicode="&#x2010;" d="M45 631q0 5 10.5 12.5t16.5 9.5q37 13 315 13q334 0 334 -33q0 -10 -49 -10q-10 0 -38 2.5t-85.5 5t-140.5 2.5q-199 -2 -342 -10q-21 0 -21 8z" />
<glyph unicode="&#x2011;" d="M45 631q0 5 10.5 12.5t16.5 9.5q37 13 315 13q334 0 334 -33q0 -10 -49 -10q-10 0 -38 2.5t-85.5 5t-140.5 2.5q-199 -2 -342 -10q-21 0 -21 8z" />
<glyph unicode="&#x2012;" d="M45 631q0 5 10.5 12.5t16.5 9.5q37 13 315 13q334 0 334 -33q0 -10 -49 -10q-10 0 -38 2.5t-85.5 5t-140.5 2.5q-199 -2 -342 -10q-21 0 -21 8z" />
<glyph unicode="&#x2013;" horiz-adv-x="2048" />
<glyph unicode="&#x2014;" horiz-adv-x="2048" />
<glyph unicode="&#x2018;" horiz-adv-x="196" d="M25 1626q0 27 22 76q17 35 54.5 76t52.5 41q6 0 13 -4t7 -7q0 -21 -37 -47q-36 -28 -55 -67t-19 -66l3 -12q0 -12 -13 -12q-28 0 -28 22z" />
<glyph unicode="&#x2019;" horiz-adv-x="153" d="M-4 1626v4q0 3 5.5 7.5t17 13.5t20.5 18q30 29 41.5 47t11.5 41q0 10 -6 28t-8 30q0 5 5 8.5t9 3.5t14 -12.5t18.5 -34.5t8.5 -43q0 -37 -47 -84t-74 -47q-16 0 -16 20z" />
<glyph unicode="&#x201a;" horiz-adv-x="358" d="M45 -100q0 5 2 9t7 8.5t8.5 7t12 8.5t11.5 8q82 58 86 139q0 11 -4 27.5t-4 21.5q0 14 14 14q13 0 27 -12.5t14 -34.5q0 -8 -2 -22t-2 -17q-2 -34 -61 -104t-88 -70q-4 0 -8 2t-6 4.5t-4 5.5l-3 3v2z" />
<glyph unicode="&#x201c;" horiz-adv-x="229" d="M-4 1659v12q0 35 14 66q17 31 49 64.5t50 33.5q14 0 14 -10q0 -5 -8.5 -11.5t-25 -23t-30.5 -41.5q-30 -53 -30 -92q0 -17 12 -27.5t12 -11.5q0 -5 -6 -10.5t-12 -5.5q-5 0 -29 18q-10 12 -10 39zM86 1645q0 42 32 92.5t64 66.5l21 6q8 0 8 -8q0 -6 -18 -28 q-39 -39 -48 -56q-18 -38 -18 -76q0 -18 6 -34t6 -17l-2 -6h-4q-10 0 -28.5 17.5t-18.5 42.5z" />
<glyph unicode="&#x201d;" horiz-adv-x="229" d="M0 1610q0 3 1 5l2 4t5.5 8t9.5 13q31 22 45 54q21 40 21 78q0 14 -3 25t-6 16.5t-3 7.5q0 8 6 8q8 0 22 -14q15 -18 15 -46q0 -45 -28 -95t-58 -64l-21 -6q-8 0 -8 6zM86 1597q0 4 8.5 9.5t25 21.5t30.5 43q30 53 30 92q0 17 -8 27.5t-8 11.5q0 8 16 8h2q11 0 22 -13.5 t11 -37.5q0 -17 -18 -82q-10 -30 -43 -63t-52 -33q-6 0 -11 5.5t-5 10.5z" />
<glyph unicode="&#x201e;" horiz-adv-x="362" d="M-8 -86q4 11 18 27q35 30 47 55q21 47 21 78q0 18 -7.5 34t-7.5 17q0 6 19 12q5 0 13.5 -9t16 -26.5t7.5 -35.5q0 -42 -33 -90t-66 -62l-20 -6q-8 0 -8 6zM90 -94q0 14 19 20q17 3 45 54q30 52 30 83v9q-2 14 -14 25t-12 16q0 4 3.5 9t10.5 5h4q6 0 16 -7.5t11 -8.5 q8 -11 12 -37l2 -15q0 -22 -18 -67q-9 -29 -43.5 -62.5t-53.5 -33.5q-12 0 -12 10z" />
<glyph unicode="&#x2026;" horiz-adv-x="2048" />
<glyph unicode="&#x202f;" horiz-adv-x="549" />
<glyph unicode="&#x2039;" horiz-adv-x="446" d="M86 440q2 24 7 33.5t26 26.5q3 2 86.5 46.5t148.5 77.5t74 33q18 -5 18 -24v-6q0 -10 -160.5 -92.5t-160.5 -88.5t13 -17.5t44 -36.5t58 -50q34 -29 34 -53l-2 -17q0 -8 -12 -8q-5 0 -13 5t-20 15.5t-23 21.5t-30.5 30t-34.5 33q-32 29 -42.5 42.5t-10.5 28.5z" />
<glyph unicode="&#x203a;" horiz-adv-x="399" d="M0 272v2q0 18 28.5 36.5t125.5 66.5q25 12 41.5 20.5t29.5 14.5t21 12t13 8.5t7.5 7.5l3 6t1.5 7t1 8q-1 3 -3.5 9.5t-3.5 9t-4 7.5t-6 8t-8.5 8t-12.5 10t-17.5 11.5t-23.5 14.5q-84 54 -84 65v2q0 7 4.5 15t9.5 10l8 2q31 0 93.5 -52t84.5 -81q19 -25 19 -41 q0 -20 -26 -40t-95 -57q-43 -21 -92.5 -47.5t-72 -37.5t-32.5 -11t-10 6z" />
<glyph unicode="&#x205f;" horiz-adv-x="686" />
<glyph unicode="&#x20ac;" horiz-adv-x="917" d="M0 696q0 11 39 19q18 4 66.5 7.5t56.5 4.5q13 32 25.5 63.5t17.5 43.5q-85 -10 -168 -13q-7 0 -12 4t-5 9q0 7 8 14t19 8q11 3 67.5 8t80.5 10q41 7 49 31q76 136 189 275.5t200 205.5q83 64 149 64q48 0 84 -32t47 -81l5 -47q0 -39 -14 -66.5t-32 -27.5q-12 0 -21 11.5 t-9 29.5q0 7 5 25t5 26q0 38 -34.5 71.5t-65.5 33.5l-13 -2q-60 -19 -128.5 -77t-129.5 -135.5t-109 -151t-85 -142.5q16 1 61 4.5t62 3.5q25 0 34 -5t9 -18q0 -14 -37 -14l-17 2q-20 0 -92 -8q-37 -7 -43 -23q-2 -6 -8.5 -20t-14 -31.5t-14.5 -38.5q98 8 148 8 q6 0 14.5 -0.5t13.5 -0.5t10.5 -0.5t9 -1.5t6.5 -2.5t4 -4t1 -6.5q0 -16 -24 -16q-42 0 -103.5 -3.5t-93.5 -4.5q-31 -69 -57.5 -180.5t-26.5 -209.5q0 -107 40 -172t130 -65q100 4 177 57t149 166q4 5 8.5 11t7 9.5t5 6.5t5 4.5t4.5 1.5q8 -3 13 -12q0 -29 -82.5 -122 t-149.5 -124t-137 -31q-108 0 -161.5 82.5t-53.5 214.5l-4 49q0 109 67 307l-129 -18q-15 0 -18 16z" />
<glyph unicode="&#x2122;" horiz-adv-x="768" d="M96 1755q5 18 82 21q34 0 59.5 7t38 14t15.5 7l6 -2q6 -16 57 -16q45 0 77 -9t32 -22q0 -8 -21 -8l-69 4q-60 -4 -90 -8q-68 -187 -75 -225q-3 -14 -3 -25v-8q0 -12 -17 -12q-9 0 -16.5 9t-7.5 25q1 12 31.5 99t44.5 120l2 9q0 9 -73 10.5t-73 9.5zM369 1456q0 6 100 205 q59 131 78 131q12 0 16 -14t4 -58q7 -73 11 -80q2 0 12.5 9t27.5 27.5t33 39.5q70 82 97 82q14 0 14 -14q0 -16 -14.5 -119.5t-14.5 -128.5q0 -19 4 -31q13 -23 13 -32q0 -11 -11 -11q-2 0 -24 11q-13 8 -13 126l3 117q-14 -16 -32.5 -37t-28.5 -32t-23 -25.5t-20.5 -21.5 t-17 -14.5t-16.5 -10t-14 -2.5q-6 0 -10.5 2t-8 7.5t-5.5 10.5t-3.5 15.5t-2.5 19.5t-3 24t-4 27q-104 -227 -139 -227q-8 0 -8 4z" />
<glyph unicode="&#x25fc;" horiz-adv-x="634" d="M0 0v635h635v-635h-635z" />
</font>
</defs>
</svg>
