<svg width="25" height="30" xmlns="http://www.w3.org/2000/svg" viewBox="0 0 62.87 68.09">

		<defs>
			<style>
				.services-mobile-icon {
					fill: none;
					stroke: gray;
					stroke-miterlimit: 10;
					stroke-width: 2px;
				}
			</style>
		</defs>

<g id="katman_2" data-name="katman 2"><g id="Layer_1" data-name="Layer 1"><path class="services-mobile-icon" d="M50.31,27.13V18.84C50.31,10.27,41.71,1,30.71,1s-19.6,9.27-19.6,17.84v3.94"/><path class="services-mobile-icon" d="M44.5,28.58v3A13.54,13.54,0,0,1,38.68,43"/><path class="services-mobile-icon" d="M22.72,9.71c0,8.14,16.47,18.87,24.68,18.87"/><path class="services-mobile-icon" d="M22.72,17c-3.49,1.45-7.25,5.29-7.25,10.16v4.36c0,5.1,3.79,10.21,9.7,12.84"/><path class="services-mobile-icon" d="M35.79,48.91a2.9,2.9,0,0,1-2.9,2.9H31.43a2.9,2.9,0,0,1-2.9-2.9h0A2.9,2.9,0,0,1,31.43,46h1.46a2.9,2.9,0,0,1,2.9,2.91Z"/><path class="services-mobile-icon" d="M34.34,48.91h1.5c8,0,14.44-5.56,14.44-13.15"/><path class="services-mobile-icon" d="M53.21,22.78h-2.9V35.84h2.9a2.9,2.9,0,0,0,2.9-2.9V25.68A2.9,2.9,0,0,0,53.21,22.78Z"/><path class="services-mobile-icon" d="M8.21,22.78h2.9V35.84H8.21a2.9,2.9,0,0,1-2.91-2.9V25.68A2.9,2.9,0,0,1,8.21,22.78Z"/><line class="services-mobile-icon" x1="21.27" y1="41.65" x2="21.27" y2="53.26"/><rect class="services-mobile-icon" x="21.1" y="51.88" width="6.16" height="14.37" transform="translate(-34.69 34.39) rotate(-45)"/><rect class="services-mobile-icon" x="31.51" y="55.99" width="14.37" height="6.16" transform="translate(-30.43 44.66) rotate(-45)"/><path class="services-mobile-icon" d="M16.92,56.16,8.67,58a8.7,8.7,0,0,0-6.38,5.75L1,67.78"/><path class="services-mobile-icon" d="M46,56.16,54.2,58a8.67,8.67,0,0,1,6.37,5.75l1.35,4"/></g></g></svg>