
<svg width="25" height="30" xmlns="http://www.w3.org/2000/svg" viewBox="0 0 86.52 71.41">

		<defs>
			<style>

				.properties-mobile-icon {
					fill: gray;
				}
			</style>
		</defs>

<g id="katman_2" data-name="katman 2"><g id="Layer_1" data-name="Layer 1"><path class="properties-mobile-icon" d="M13.12,67.11a1.17,1.17,0,0,0,1.17-1.18V10.19l25-7.44V22.88a1.18,1.18,0,0,0,2.35,0V3.22l9.18,5.33V20.06a1.18,1.18,0,1,0,2.35,0V7.87a1.18,1.18,0,0,0-.59-1L41.07.16a1.18,1.18,0,0,0-.92-.11L12.78,8.19a1.18,1.18,0,0,0-.84,1.12V65.93A1.18,1.18,0,0,0,13.12,67.11Z"/><path class="properties-mobile-icon" d="M44.18,12.09l2.9,1.68a1.16,1.16,0,0,0,.59.16,1.17,1.17,0,0,0,.59-2.19l-2.9-1.68a1.16,1.16,0,0,0-1.6.42A1.18,1.18,0,0,0,44.18,12.09Z"/><path class="properties-mobile-icon" d="M18.91,16.17a1.4,1.4,0,0,0,.34-.05l16.07-4.78a1.17,1.17,0,1,0-.67-2.25L18.58,13.87a1.17,1.17,0,0,0,.33,2.3Z"/><path class="properties-mobile-icon" d="M44.18,18.13l2.9,1.69a1.27,1.27,0,0,0,.59.16,1.17,1.17,0,0,0,1-.59,1.19,1.19,0,0,0-.43-1.61l-2.9-1.68a1.17,1.17,0,0,0-1.18,2Z"/><path class="properties-mobile-icon" d="M17.78,21.35a1.16,1.16,0,0,0,1.13.86,1.22,1.22,0,0,0,.32,0L35.3,17.7a1.18,1.18,0,0,0-.63-2.27L18.6,19.91A1.16,1.16,0,0,0,17.78,21.35Z"/><path class="properties-mobile-icon" d="M36.12,22.62a1.16,1.16,0,0,0-1.43-.84L18.62,25.94a1.18,1.18,0,0,0,.29,2.32,1,1,0,0,0,.3,0l16.07-4.17A1.16,1.16,0,0,0,36.12,22.62Z"/><path class="properties-mobile-icon" d="M18.91,34.3l.24,0,5.94-1.22a1.17,1.17,0,1,0-.47-2.3L18.67,32a1.18,1.18,0,0,0-.91,1.39A1.17,1.17,0,0,0,18.91,34.3Z"/><path class="properties-mobile-icon" d="M18.91,40.35l.19,0,5.8-.93a1.17,1.17,0,0,0-.37-2.32L18.72,38a1.18,1.18,0,0,0,.19,2.34Z"/><path class="properties-mobile-icon" d="M26.14,44.38a1.17,1.17,0,0,0-1.31-1l-6,.7a1.17,1.17,0,0,0,.13,2.34h.14l6.05-.7A1.18,1.18,0,0,0,26.14,44.38Z"/><path class="properties-mobile-icon" d="M25.86,50.66a1.19,1.19,0,0,0-1.27-1.07l-5.78.5a1.17,1.17,0,0,0,.1,2.34H19l5.78-.49A1.19,1.19,0,0,0,25.86,50.66Z"/><path class="properties-mobile-icon" d="M18.86,56.13a1.18,1.18,0,0,0,.05,2.35H19l5.27-.22a1.17,1.17,0,1,0-.09-2.34Z"/><path class="properties-mobile-icon" d="M28.27,30.24V65.93a1.18,1.18,0,1,0,2.35,0V31.17l28.58-6.8V65.93a1.18,1.18,0,1,0,2.35,0V24.68l10.68,4.7V65.93a1.18,1.18,0,1,0,2.35,0V28.61a1.19,1.19,0,0,0-.7-1.08l-13-5.72a1.14,1.14,0,0,0-.75-.07L29.17,29.09A1.18,1.18,0,0,0,28.27,30.24Z"/><path class="properties-mobile-icon" d="M35.74,34.06V61.23a1.18,1.18,0,0,0,2.36,0V34.06a1.18,1.18,0,0,0-2.36,0Z"/><path class="properties-mobile-icon" d="M43.68,32.09V61.23a1.18,1.18,0,1,0,2.35,0V32.09a1.18,1.18,0,0,0-2.35,0Z"/><path class="properties-mobile-icon" d="M51.61,30.25v31a1.18,1.18,0,1,0,2.35,0v-31a1.18,1.18,0,1,0-2.35,0Z"/><path class="properties-mobile-icon" d="M1.18,71.41H85.35a1.18,1.18,0,0,0,0-2.35H1.18a1.18,1.18,0,1,0,0,2.35Z"/></g></g></svg>