<svg id="Layer_1" data-name="Layer 1" xmlns="http://www.w3.org/2000/svg" viewBox="0 0 64 64"><defs><style>.cls-1{fill:#4a4a4a;}</style></defs><path class="cls-1" d="M18,35a.7.7,0,0,0-.7.7V37a13,13,0,0,1-3.84,9.28l-.84.84A.7.7,0,0,0,13,48.27a.72.72,0,0,0,.68-.19l.84-.84A14.4,14.4,0,0,0,18.72,37V35.72A.69.69,0,0,0,18,35Z"/><path class="cls-1" d="M50.49,46.25A13.07,13.07,0,0,1,46.65,37V35.72a.7.7,0,0,0-1.4,0V37a14.46,14.46,0,0,0,4.26,10.27l.84.84a.7.7,0,0,0,1-1Z"/><path class="cls-1" d="M25,36.41a.7.7,0,0,0-.7.7v2A11.15,11.15,0,0,1,21,47.09a.72.72,0,0,0-.19.68.74.74,0,0,0,.5.5.7.7,0,0,0,.68-.19,12.56,12.56,0,0,0,3.7-8.92v-2A.71.71,0,0,0,25,36.41Z"/><path class="cls-1" d="M39.67,39.16v-2a.7.7,0,0,0-1.4,0v2A12.52,12.52,0,0,0,42,48.08a.7.7,0,0,0,1-1A11.11,11.11,0,0,1,39.67,39.16Z"/><path class="cls-1" d="M32,35.72a.69.69,0,0,0-.7.69V47.58a.7.7,0,0,0,1.4,0V36.41A.69.69,0,0,0,32,35.72Z"/><path class="cls-1" d="M50.84,15.47H13.14A2.1,2.1,0,0,0,11,17.56v14a2.1,2.1,0,0,0,2.1,2.09h37.7a2.09,2.09,0,0,0,2.09-2.09v-14A2.09,2.09,0,0,0,50.84,15.47ZM48.05,32.22H15.93V30.83H48.05Zm0-2.79H15.93V28H48.05Zm3.49,2.1a.69.69,0,0,1-.7.69h-1.4V27.08a.43.43,0,0,0-.43-.44H15a.43.43,0,0,0-.43.44v5.14h-1.4a.69.69,0,0,1-.7-.69v-14a.7.7,0,0,1,.7-.7h37.7a.7.7,0,0,1,.7.7Z"/><rect class="cls-1" x="25.01" y="20.36" width="13.96" height="1.4" rx="0.7"/></svg>