<svg id="Layer_1" data-name="Layer 1" xmlns="http://www.w3.org/2000/svg" viewBox="0 0 64 64"><defs><style>.cls-1{fill:#595959;}</style></defs><path class="cls-1" d="M14,36.73a.67.67,0,0,0,.16.47.65.65,0,0,0,.45.2h7.88a.57.57,0,0,0,.44-.2.58.58,0,0,0,.17-.45L22.78,32a.62.62,0,0,0-.62-.58h0a.61.61,0,0,0-.57.65l.23,4.06H15.23v-.11l.33-3.93a.6.6,0,0,0-.14-.45.62.62,0,0,0-.42-.22h0a.62.62,0,0,0-.61.56Z"/><path class="cls-1" d="M34.17,31.77a.6.6,0,0,0-.05.47L35.44,37a.63.63,0,0,0,.59.45h9a.61.61,0,0,0,.61-.62.61.61,0,0,0-.61-.61H36.5l-1.2-4.26a.64.64,0,0,0-.29-.37.67.67,0,0,0-.3-.08l-.17,0A.64.64,0,0,0,34.17,31.77Z"/><path class="cls-1" d="M52.76,42.39l-.43-3.91a2.5,2.5,0,0,0-1.77-2.12l-3.5-1,0,0-4.23-5.22a2.79,2.79,0,0,0-2.18-1H13.94a2.81,2.81,0,0,0-2.79,2.56L10,44.22a.13.13,0,0,0,0,.06v.47a2.68,2.68,0,0,0,2.3,2.67l6.1.9v.08a4.41,4.41,0,0,0,8.59.78l0-.07H40.37l0,.07a4.41,4.41,0,0,0,8.43,0l0-.07h1a4.52,4.52,0,0,0,3.36-1.5,3,3,0,0,0,.78-2V44.9a3.05,3.05,0,0,0-.89-2.15Zm-30,8.67A3.19,3.19,0,1,1,26,47.87,3.19,3.19,0,0,1,22.78,51.06Zm21.83,0a3.19,3.19,0,1,1,3.18-3.19A3.19,3.19,0,0,1,44.61,51.06Zm8.17-5.47a1.78,1.78,0,0,1-.46,1.2,3.27,3.27,0,0,1-2.45,1.1H49v-.1a4.42,4.42,0,0,0-8.83,0v.1h-13v-.1a4.42,4.42,0,0,0-8.74-.8l0,.1-5.95-.88a1.47,1.47,0,0,1-1.26-1.46v-.44l1.15-12.62a1.58,1.58,0,0,1,1.57-1.44H40.63a1.58,1.58,0,0,1,1.23.58l4.36,5.4a.69.69,0,0,0,.3.2l3.69,1.1a1.28,1.28,0,0,1,.9,1.08l.45,4.13a.65.65,0,0,0,.18.37l.51.51a1.81,1.81,0,0,1,.53,1.28Z"/><path class="cls-1" d="M24.23,32.14l.51,4.71a.62.62,0,0,0,.61.55h7.88a.63.63,0,0,0,.48-.24.59.59,0,0,0,.11-.53l-1.18-4.7a.6.6,0,0,0-.28-.38.6.6,0,0,0-.47-.07.63.63,0,0,0-.38.28.62.62,0,0,0-.06.46l1,4H25.9L25.44,32a.55.55,0,0,0-.22-.41.59.59,0,0,0-.38-.14h-.07a.55.55,0,0,0-.41.22A.57.57,0,0,0,24.23,32.14Z"/><path class="cls-1" d="M45.25,20a1.87,1.87,0,0,0-1.48-1.76,4.66,4.66,0,0,1-1.3-.86,6.1,6.1,0,0,0-2.8-1.55,49.84,49.84,0,0,0-6,.35h0c-10.53-4.46-11-4.44-11.28-4.43a23.44,23.44,0,0,0-3,.54.6.6,0,0,0-.46.46.61.61,0,0,0,.21.61l4.67,3.76-.24,0c-1.54.15-3.12.31-3.44.33h-.05a6.83,6.83,0,0,1-1.46-1.76l0,0c-.21-.3-.39-.57-.55-.77a.57.57,0,0,0-.32-.2c-3-.8-3.37-.15-3.51.09s-.38.67.95,3.21a11.15,11.15,0,0,0,2.23,3.14c.19.15.56.42,4.2.7L24,22l.24,0-4.61,4.29a.6.6,0,0,0-.17.62.62.62,0,0,0,.49.43,28.34,28.34,0,0,0,2.91.33H23c.23,0,.75,0,11.23-5.39h1.11a56.28,56.28,0,0,0,7.45-.31C44.9,21.55,45.24,20.54,45.25,20Zm-24.31-6.8.21,0a12.55,12.55,0,0,1,1.24-.2h0c.58.12,3.68,1.35,8.31,3.29l.36.15-.39,0-5,.47-.15,0,0,0Zm10.28,9.21c-4.62,2.35-7.73,3.85-8.32,4h-.06a11.85,11.85,0,0,1-1.21-.1l-.22,0L26,22.05h0l1.05,0,1.61.05h.6l0,.1h0v-.1h.15l.75,0h1.39Zm11.32-1.66a57.42,57.42,0,0,1-7.19.29c-6.89,0-16-.39-17.2-.91h0a14.51,14.51,0,0,1-2.65-4.47l-.05-.14h.16a11.17,11.17,0,0,1,1.61.28h0l0,0,.31.45.07.09c.92,1.35,1.64,2.31,2.49,2.31h0c.23,0,1.35-.12,3.67-.35H24c5.07-.5,14.51-1.42,15.53-1.29a5.4,5.4,0,0,1,2.18,1.29,5,5,0,0,0,1.82,1.11A.7.7,0,0,1,44,20C44,20.21,43.56,20.54,42.54,20.73Z"/></svg>