<svg id="Layer_1" data-name="Layer 1" xmlns="http://www.w3.org/2000/svg" viewBox="0 0 64 64"><defs><style>.cls-1{fill:none;stroke:#505050;stroke-linejoin:round;stroke-width:1.5px;}</style></defs><path class="cls-1" d="M46.82,45.57a3.5,3.5,0,1,1-3.49-3.48A3.48,3.48,0,0,1,46.82,45.57Z"/><path class="cls-1" d="M22.43,45.57a3.5,3.5,0,1,1-3.5-3.48A3.49,3.49,0,0,1,22.43,45.57Z"/><line class="cls-1" x1="22.43" y1="45.57" x2="39.85" y2="45.56"/><path class="cls-1" d="M15.44,45.56H12.82a.87.87,0,0,1-.87-.87V26.38a.87.87,0,0,1,.87-.87H39c4.87,0,9.55,9.66,9.59,9.59s3.49,1.69,3.49,3.92v6.54H46.82"/><path class="cls-1" d="M48.56,35.1h-7A2.59,2.59,0,0,1,39,33.35l-1.56-5"/><polygon class="cls-1" points="28.51 33.35 28.51 29.87 25.03 29.87 25.03 33.35 21.54 33.35 21.54 36.84 25.03 36.84 25.03 40.33 28.51 40.33 28.51 36.84 32 36.84 32 33.35 28.51 33.35"/><path class="cls-1" d="M33.74,23.77v-.88a.87.87,0,0,1,.88-.87h1.74a.87.87,0,0,1,.87.87v.88"/><line class="cls-1" x1="35.49" y1="18.53" x2="35.49" y2="15.05"/><line class="cls-1" x1="32" y1="19.41" x2="29.38" y2="16.79"/><line class="cls-1" x1="38.97" y1="19.41" x2="41.59" y2="16.79"/><line class="cls-1" x1="40.28" y1="22.02" x2="43.33" y2="22.02"/><line class="cls-1" x1="27.64" y1="22.02" x2="30.68" y2="22.02"/></svg>