<svg id="Layer_1" data-name="Layer 1" xmlns="http://www.w3.org/2000/svg" viewBox="0 0 64 64"><defs><style>.cls-1{fill:#4a4a4a;}</style></defs><path class="cls-1" d="M47.68,28.32a15.68,15.68,0,0,0-31.36,0V35.9h5.85A1.88,1.88,0,0,0,24,37.31h.72l1.5,12v1.14a.54.54,0,1,0,1.08,0v-.63h4.18v.63a.54.54,0,1,0,1.08,0v-.63h4.18v.63a.54.54,0,1,0,1.08,0V49.34l1.5-12H40a1.88,1.88,0,0,0,1.81-1.41h5.85Zm-21.76,10,1.91,2-1.47,1.53Zm9.49,1.2-2.13-2.21h4.26Zm0,1.57L37.29,43l-2.66,2.75-1.87-1.94Zm-.75-.78L32,43.06l-2.66-2.75L32,37.55Zm-3.42,3.54-1.87,1.94L26.71,43l1.88-1.95Zm-2.65-4.33-2.13-2.21h4.26Zm-1.45,8.59-.44-3.52,1.91,2Zm.88.66,1.35-1.41,1.35,1.41Zm4-.25-1.88-1.94L32,44.63l1.88,1.95Zm1.28.25,1.35-1.41L36,48.77Zm3.58-.66-1.47-1.53,1.91-2Zm.78-6.27-1.47-1.53,1.91-2Zm3.17-6.41a.79.79,0,0,1-.79.79H24a.79.79,0,0,1-.79-.79v-.14A.79.79,0,0,1,24,34.5H40a.79.79,0,0,1,.79.79Zm5.78-.61H41.83A1.88,1.88,0,0,0,40,33.41H24a1.88,1.88,0,0,0-1.81,1.41H17.41V28.35a14.59,14.59,0,0,1,29.18,0Z"/><path class="cls-1" d="M38,20.78H26a1.89,1.89,0,0,0-1.89,1.89v7.17A1.89,1.89,0,0,0,26,31.73H38a1.89,1.89,0,0,0,1.89-1.89V22.67A1.89,1.89,0,0,0,38,20.78Zm.8,9.06a.8.8,0,0,1-.8.8H26a.8.8,0,0,1-.8-.8V22.67a.8.8,0,0,1,.8-.8H38a.8.8,0,0,1,.8.8Z"/></svg>