<svg id="Layer_1" data-name="Layer 1" xmlns="http://www.w3.org/2000/svg" viewBox="0 0 64 64"><defs><style>.cls-1{fill:#4a4a4a;}</style></defs><path class="cls-1" d="M49.09,25.78a11.4,11.4,0,0,0-3.47.54L41.87,17.2h4.59a1.88,1.88,0,1,1,0,3.76.89.89,0,0,0,0,1.77,3.65,3.65,0,1,0,0-7.29h-5.9a.89.89,0,0,0-.82,1.22l1.75,4.24H23.78l-1.05-1.83h1.48a.88.88,0,1,0,0-1.76h-6a.88.88,0,0,0,0,1.76H20.7l1.56,2.72-2.73,5a11.13,11.13,0,0,0-4.62-1,11.27,11.27,0,1,0,6.17,1.84l2.2-4,6.38,11.14a3.23,3.23,0,0,0-1,2.32,3.3,3.3,0,1,0,3.3-3.3,3.1,3.1,0,0,0-.81.1l-6.4-11.19H42.21L44,27a11.28,11.28,0,1,0,5.09-1.21ZM24.42,37.05a9.5,9.5,0,1,1-5.73-8.73l-4.55,8.3a.88.88,0,0,0,.35,1.2.94.94,0,0,0,.42.11.9.9,0,0,0,.78-.46l4.54-8.3A9.49,9.49,0,0,1,24.42,37.05Zm9.12,0A1.54,1.54,0,1,1,32,35.51,1.54,1.54,0,0,1,33.54,37.05Zm15.55,9.51a9.51,9.51,0,0,1-4.42-17.93l3.6,8.75a.89.89,0,0,0,.82.55.78.78,0,0,0,.33-.07.88.88,0,0,0,.48-1.15L46.3,28a9.51,9.51,0,1,1,2.79,18.6Z"/></svg>