<svg id="Layer_1" data-name="Layer 1" xmlns="http://www.w3.org/2000/svg" viewBox="0 0 64 64"><defs><style>.cls-1{fill:#4a4a4a;}</style></defs><path class="cls-1" d="M17.2,29.81c.08,4.67.9,7.92,2.57,10.19,2.18,3,5.95,4.41,11.51,4.41S40.6,43,42.78,40c1.67-2.27,2.5-5.52,2.57-10.19ZM31.28,45.88c-6.06,0-10.21-1.64-12.69-5-2-2.68-2.86-6.32-2.86-11.8a.73.73,0,0,1,.73-.73H46.09a.74.74,0,0,1,.74.73c0,5.48-.88,9.12-2.86,11.8-2.48,3.37-6.63,5-12.69,5Z"/><path class="cls-1" d="M46.09,48.89H16.46a.74.74,0,0,1,0-1.47H46.09a.74.74,0,1,1,0,1.47Z"/><path class="cls-1" d="M45.51,39.91H44.14a.74.74,0,1,1,0-1.47h1.37a5.89,5.89,0,0,0,5.76-4.59l.39-1.7a1.91,1.91,0,0,0-1.86-2.34H46.09a.74.74,0,0,1,0-1.47H49.8a3.37,3.37,0,0,1,3.29,4.13l-.39,1.71a7.34,7.34,0,0,1-7.19,5.73Z"/><path class="cls-1" d="M34.62,33.33h-18a.74.74,0,0,1,0-1.47h18a.74.74,0,1,1,0,1.47Z"/><path class="cls-1" d="M45.94,33.33H38.32a.74.74,0,0,1,0-1.47h7.62a.74.74,0,1,1,0,1.47Z"/><path class="cls-1" d="M38.91,25.41h3.72a9.69,9.69,0,0,0,9.66-8.95H48.58a9.71,9.71,0,0,0-9.67,9Zm3.72,1.47H38.15a.73.73,0,0,1-.73-.73A11.17,11.17,0,0,1,48.58,15h4.47a.74.74,0,0,1,.74.73A11.17,11.17,0,0,1,42.63,26.88Z"/><path class="cls-1" d="M30.19,20.77a5.39,5.39,0,0,0,5.33,4.64h1.85A5.39,5.39,0,0,0,32,20.77Zm8,6.11H35.52A6.86,6.86,0,0,1,28.67,20a.74.74,0,0,1,.74-.73H32a6.86,6.86,0,0,1,6.86,6.85.73.73,0,0,1-.74.73Z"/><path class="cls-1" d="M20.16,26.88a.69.69,0,0,1-.28-.05.74.74,0,0,1-.4-1c.86-2.12-.54-4.22-1.89-6.25s-2.7-4.06-1.62-6a.72.72,0,0,1,1-.29.73.73,0,0,1,.3,1c-.66,1.2.36,2.74,1.55,4.52,1.49,2.24,3.18,4.79,2,7.63a.73.73,0,0,1-.68.45Z"/><path class="cls-1" d="M24.31,26.88a.62.62,0,0,1-.19,0,.73.73,0,0,1-.52-.9,5.94,5.94,0,0,0-.8-5c-.63-1.14-1.28-2.32-.49-3.87a.74.74,0,1,1,1.31.67c-.42.81-.14,1.38.46,2.49A7.4,7.4,0,0,1,25,26.34a.74.74,0,0,1-.71.54Z"/></svg>