<svg id="Layer_1" data-name="Layer 1" xmlns="http://www.w3.org/2000/svg" viewBox="0 0 64 64"><defs><style>.cls-1{fill:#4d4d4d;}</style></defs><path class="cls-1" d="M24.58,33.93V35.2a.75.75,0,0,0,1.5,0V33.93a.75.75,0,0,0-1.5,0Z"/><path class="cls-1" d="M38.81,36a.76.76,0,0,0,.75-.75V33.93a.75.75,0,0,0-1.5,0V35.2A.76.76,0,0,0,38.81,36Z"/><path class="cls-1" d="M17.69,37.87a15,15,0,0,0,28.62,0,4.53,4.53,0,0,0,.1-9h-.1a15.17,15.17,0,0,0-5.08-7.32.75.75,0,0,0-1,.13.76.76,0,0,0,.13,1.05A13.57,13.57,0,0,1,44.77,29a4.53,4.53,0,0,0-1.91,1,.75.75,0,0,0,.5,1.31.74.74,0,0,0,.5-.2,3.06,3.06,0,0,1,1.91-.77h0a3.52,3.52,0,0,1,.47,0A3,3,0,0,1,48.91,33a3,3,0,0,1-3,3.39h0a.74.74,0,0,0-.83.54,13.51,13.51,0,0,1-26.06,0,.75.75,0,0,0-.8-.54H18.1a3,3,0,0,1-.35-6.06,3.52,3.52,0,0,1,.47,0h0a3.09,3.09,0,0,1,1.92.77.74.74,0,0,0,.5.2.75.75,0,0,0,.5-1.31,4.56,4.56,0,0,0-1.92-1,13.56,13.56,0,0,1,8.41-8.41,3.76,3.76,0,0,0,3.7,3.13,2.77,2.77,0,0,0,2.92-2.92,2.67,2.67,0,0,0-2.67-2.67.75.75,0,0,0-.75.74.76.76,0,0,0,.75.75,1.18,1.18,0,0,1,1.18,1.18,1.29,1.29,0,0,1-1.43,1.43A2.26,2.26,0,0,1,29.07,20c0-.1,0-.2,0-.3h0a3,3,0,0,1,3-2.72,4,4,0,0,1,4,4A5.13,5.13,0,0,1,30.91,26a.75.75,0,1,0,0,1.49,6.63,6.63,0,0,0,6.62-6.61,5.46,5.46,0,0,0-5.45-5.45A4.49,4.49,0,0,0,27.68,19a15,15,0,0,0-10,9.85h-.11a4.53,4.53,0,0,0,.1,9Z"/><path class="cls-1" d="M35.06,39.08a3.7,3.7,0,0,1-6.12,0,.74.74,0,0,0-1-.19.73.73,0,0,0-.19,1,5.18,5.18,0,0,0,8.58,0,.73.73,0,0,0-.19-1A.74.74,0,0,0,35.06,39.08Z"/></svg>