<svg id="Layer_1" data-name="Layer 1" xmlns="http://www.w3.org/2000/svg" viewBox="0 0 64 64"><defs><style>.cls-1{fill:none;stroke:#505050;stroke-linejoin:round;stroke-width:1.5px;}</style></defs><path class="cls-1" d="M11.63,40.6c1.5,0,3-1.81,4.52-1.81s3,1.81,4.53,1.81,3-1.81,4.53-1.81,3,1.81,4.53,1.81,3-1.81,4.52-1.81,3,1.81,4.53,1.81,3-1.81,4.53-1.81,3,1.81,4.53,1.81,3-1.81,4.52-1.81"/><path class="cls-1" d="M38.8,37.43a10.08,10.08,0,0,0,2.71-3.17H16.15L18,37"/><line class="cls-1" x1="20.68" y1="45.13" x2="30.64" y2="45.13"/><line class="cls-1" x1="27.93" y1="51.47" x2="37.89" y2="51.47"/><line class="cls-1" x1="36.08" y1="46.94" x2="46.04" y2="46.94"/><circle class="cls-1" cx="16.15" cy="16.15" r="3.62"/><path class="cls-1" d="M46,15.25c-2.52,0-4.53,1.53-4.53,3.62,0-2.09-2-3.62-4.53-3.62"/><path class="cls-1" d="M51.47,24.3c-2.52,0-4.53,1.54-4.53,3.63,0-2.09-2-3.63-4.53-3.63"/><polyline class="cls-1" points="36.98 34.26 26.11 13.44 26.11 34.26"/><line class="cls-1" x1="26.11" y1="19.78" x2="18.7" y2="34.26"/></svg>