<svg id="Layer_1" data-name="Layer 1" xmlns="http://www.w3.org/2000/svg" viewBox="0 0 64 64"><defs><style>.cls-1{fill:none;stroke:#505050;stroke-linejoin:round;stroke-width:1.5px;}</style></defs><path class="cls-1" d="M11.93,14.39a32.34,32.34,0,0,1,15.29,1.78"/><path class="cls-1" d="M12.83,19.85a25.76,25.76,0,0,1,11.69.84"/><path class="cls-1" d="M13.73,25.37a18.62,18.62,0,0,1,4.05-.44,19.1,19.1,0,0,1,3.14.26"/><path class="cls-1" d="M23.62,43.81l2.6-4.44c.79-1.37.29-1.79-.2-3.61a4.14,4.14,0,0,1,.21-3.53l2.27-4a3.39,3.39,0,0,1,2.91-1.44l2,.12"/><path class="cls-1" d="M31.17,30.81,34.5,25a2.17,2.17,0,0,1,3-1c2.56,1.48,10.08,7.15,9.27,8.55L42,40.78c-.92,1.61-3.53,2.53-4.77,2.88l-3.59,6.23"/><path class="cls-1" d="M38.9,48.3c2,.6,4.23-.39,4.66-1.49,1.59-4.06,7.29-5,7.41-10.83.12-5.38,2.88-8.23-.84-8.7s-1.32-9.34-5.35-7-8.25-2.56-12-2.47-4.41,4.9-8,8.18-6.1,7.61-3.86,10.62c.31.41,1.63.9,2.7,1.8"/></svg>