<svg id="Layer_1" data-name="Layer 1" xmlns="http://www.w3.org/2000/svg" viewBox="0 0 64 64"><defs><style>.cls-1{fill:#4d4d4d;}</style></defs><path class="cls-1" d="M44.51,18h-25a.75.75,0,0,0-.75.76v3a.75.75,0,0,0,.75.76h25a.75.75,0,0,0,.75-.76v-3A.75.75,0,0,0,44.51,18Zm-.75,3H20.24v-1.5H43.76Z"/><path class="cls-1" d="M18.14,29.46H11.83a.75.75,0,1,0,0,1.5h6.31a.75.75,0,0,0,0-1.5Z"/><path class="cls-1" d="M52.17,29.46H45.86a.75.75,0,0,0,0,1.5h6.31a.75.75,0,0,0,0-1.5Z"/><polygon class="cls-1" points="23.81 39.48 22.52 44.45 20.34 44.45 21.66 39.48 20.1 39.48 18.39 45.95 23.68 45.96 25.36 39.48 23.81 39.48"/><polygon class="cls-1" points="45.61 45.95 43.9 39.48 42.34 39.48 43.66 44.45 41.48 44.45 40.19 39.48 38.64 39.48 40.32 45.96 45.61 45.95"/><path class="cls-1" d="M11.57,32.76a.75.75,0,0,0-.75.75v3a.75.75,0,0,0,.75.75H52.43a.75.75,0,0,0,.75-.75v-3a.75.75,0,0,0-.75-.75H42.12l-2.11-8H38.46l2.11,8H38.45l-2.08-8H34.82l2.07,8H27.11l2.07-8H27.63l-2.08,8H23.43l2.11-8H24l-2.11,8Zm40.11,1.5v1.51H12.32V34.26Z"/></svg>