<svg id="Layer_1" data-name="Layer 1" xmlns="http://www.w3.org/2000/svg" viewBox="0 0 64 64"><defs><style>.cls-1{fill:none;stroke:#505050;stroke-linejoin:round;stroke-width:1.7px;}</style></defs><path class="cls-1" d="M17.46,44.27V42.45a1.82,1.82,0,0,1,1.82-1.82h3.63a1.82,1.82,0,0,1,1.82,1.82v1.82"/><path class="cls-1" d="M28.37,44.27V42.45a1.82,1.82,0,0,1,1.81-1.82h3.64a1.82,1.82,0,0,1,1.81,1.82v1.82"/><path class="cls-1" d="M39.27,44.27V42.45a1.82,1.82,0,0,1,1.82-1.82h3.63a1.82,1.82,0,0,1,1.82,1.82v1.82"/><path class="cls-1" d="M12,50.63V48.81A1.82,1.82,0,0,1,13.83,47h3.63a1.83,1.83,0,0,1,1.82,1.82v1.82"/><path class="cls-1" d="M22.91,50.63V48.81A1.83,1.83,0,0,1,24.73,47h3.64a1.82,1.82,0,0,1,1.81,1.82v1.82"/><path class="cls-1" d="M33.82,50.63V48.81A1.82,1.82,0,0,1,35.63,47h3.64a1.83,1.83,0,0,1,1.82,1.82v1.82"/><path class="cls-1" d="M44.72,50.63V48.81A1.83,1.83,0,0,1,46.54,47h3.63A1.82,1.82,0,0,1,52,48.81v1.82"/><rect class="cls-1" x="12.92" y="13.37" width="38.17" height="22.72"/></svg>