<svg id="Layer_1" data-name="Layer 1" xmlns="http://www.w3.org/2000/svg" viewBox="0 0 64 64"><defs><style>.cls-1{fill:#4d4d4d;}</style></defs><path class="cls-1" d="M45.46,9.21a6.42,6.42,0,0,0-6.41,6h-27a.77.77,0,0,0-.77.77V47.31a.76.76,0,0,0,.77.77H45.46a6.43,6.43,0,0,0,6.42-6.42v-26A6.43,6.43,0,0,0,45.46,9.21ZM12.82,46.54V16.79H39V41.66a6.4,6.4,0,0,0,2.25,4.88Zm32.64,0a4.88,4.88,0,1,1,4.88-4.88A4.89,4.89,0,0,1,45.46,46.54Zm0-11.31a6.41,6.41,0,0,0-4.88,2.26V15.63a4.88,4.88,0,0,1,9.76,0V37.49A6.41,6.41,0,0,0,45.46,35.23Z"/><path class="cls-1" d="M45.46,38.63a3,3,0,1,0,3,3A3,3,0,0,0,45.46,38.63Zm0,4.52A1.49,1.49,0,1,1,47,41.66,1.49,1.49,0,0,1,45.46,43.15Z"/><path class="cls-1" d="M34.91,22H17.13a.76.76,0,0,0-.77.77V26a.77.77,0,0,0,.17,1.52h1.2A.77.77,0,0,0,17.9,26V23.57h4.75v11H17.9V32.42a.78.78,0,0,0,.6-.75.77.77,0,0,0-.77-.77h-1.2a.77.77,0,0,0-.77.77.78.78,0,0,0,.6.75v8.11a.77.77,0,0,0,.77.78h8.12v.39a.77.77,0,1,0,1.54,0v-.39h2.49v.39a.77.77,0,1,0,1.54,0v-.39h4.09a.78.78,0,0,0,.77-.78V22.8A.77.77,0,0,0,34.91,22Zm-.77,17.73H30.82v-.39a.77.77,0,0,0-1.54,0v.39H26.79v-.39a.77.77,0,0,0-1.54,0v.39H17.9V36.11h5.52a.77.77,0,0,0,.78-.77V33.06h5.85a.77.77,0,0,0,0-1.54H24.2V23.57h5.08V28.1a.77.77,0,0,0,1.54,0V23.57h3.32Z"/></svg>