<svg id="Layer_1" data-name="Layer 1" xmlns="http://www.w3.org/2000/svg" viewBox="0 0 64 64"><defs><style>.cls-1{fill:none;stroke:#505050;stroke-linejoin:round;stroke-width:1.5px;}</style></defs><path class="cls-1" d="M32,40.76a2.54,2.54,0,0,1-2.53,2.54H20.6v3.8a1.25,1.25,0,0,1-1.26,1.26H14.27A1.25,1.25,0,0,1,13,47.1V38.23c0-2.53,0-4.94,2.53-7.47v-.12A2.54,2.54,0,0,1,13,28.1V26.84a1.26,1.26,0,0,1,1.26-1.27h3.8L20.6,18c.37-1.15,5.1-2.53,11.4-2.53S43,16.82,43.4,18l2.53,7.6h3.8A1.26,1.26,0,0,1,51,26.84V28.1a2.54,2.54,0,0,1-2.53,2.54v.12C51,33.29,51,35.7,51,38.23V47.1a1.25,1.25,0,0,1-1.26,1.26H44.66A1.25,1.25,0,0,1,43.4,47.1V43.3H35.8"/><line class="cls-1" x1="32" y1="40.76" x2="32" y2="33.17"/><path class="cls-1" d="M27.57,30.64a2.53,2.53,0,0,0,2.53,2.53"/><path class="cls-1" d="M36.43,30.64a2.53,2.53,0,0,1-2.53,2.53"/><line class="cls-1" x1="30.1" y1="33.17" x2="33.9" y2="33.17"/><line class="cls-1" x1="27.57" y1="25.57" x2="27.57" y2="30.64"/><line class="cls-1" x1="36.43" y1="25.57" x2="36.43" y2="30.64"/><line class="cls-1" x1="27.57" y1="25.57" x2="36.43" y2="25.57"/><line class="cls-1" x1="29.47" y1="20.51" x2="29.47" y2="25.57"/><line class="cls-1" x1="34.53" y1="20.51" x2="34.53" y2="25.57"/></svg>