<svg id="Layer_1" data-name="Layer 1" xmlns="http://www.w3.org/2000/svg" viewBox="0 0 64 64"><defs><style>.cls-1{fill:#4d4d4d;}</style></defs><path class="cls-1" d="M49.59,37.58V30.42a.4.4,0,0,0-.4-.4H45.74a.4.4,0,0,0-.4.4v7.16a.4.4,0,0,0,.4.4h3.45A.4.4,0,0,0,49.59,37.58Zm-.8-.39H46.14V30.82h2.65Z"/><rect class="cls-1" x="40" y="14.45" width="1.81" height="1.81"/><rect class="cls-1" x="36.67" y="14.45" width="1.81" height="1.81"/><rect class="cls-1" x="33.52" y="14.45" width="1.81" height="1.81"/><rect class="cls-1" x="30.11" y="14.45" width="1.81" height="1.81"/><rect class="cls-1" x="26.96" y="14.45" width="1.81" height="1.81"/><rect class="cls-1" x="23.72" y="14.45" width="1.81" height="1.81"/><rect class="cls-1" x="20.55" y="14.45" width="1.81" height="1.81"/><path class="cls-1" d="M12.6,51a.58.58,0,0,0,.57.57H52.23a.58.58,0,0,0,0-1.15H43.82V13a.58.58,0,0,0-.57-.57H18.36a.58.58,0,0,0-.58.57V50.4H13.17A.58.58,0,0,0,12.6,51ZM31.33,20.37h9.34v30H31.33Zm-10.49,0h9.34v30H20.84Zm-1.91-2.29H42.67V50.4h-.85V19.79a.58.58,0,0,0-.58-.57h-21a.58.58,0,0,0-.57.57V50.4h-.76Zm0-4.48H42.67v3.33H18.93Z"/><polygon class="cls-1" points="48.29 33.64 46.47 33.64 47.47 31.91 48.29 33.64"/><polygon class="cls-1" points="47.3 36.19 46.47 34.47 48.29 34.47 47.3 36.19"/></svg>