<svg id="Layer_1" data-name="Layer 1" xmlns="http://www.w3.org/2000/svg" viewBox="0 0 64 64"><defs><style>.cls-1{fill:#595959;}</style></defs><path class="cls-1" d="M44.58,20l.36-1.2H47.1c.34,0,.73,0,1-.26l.44-.52,3.39-4.07a.88.88,0,0,0,0-1.24.87.87,0,0,0-1.24,0L47,17H39.12a.88.88,0,0,0,0,1.76h4c-.54,1.79-1.08,3.59-1.61,5.38-.91,3-1.82,6.05-2.72,9.07l-3.18-1.33L30,29.55l-1.09-.46,0,0c-.33-.16-.68-.29-1-.42a13.8,13.8,0,0,0-1.45-.51,11.31,11.31,0,0,0-2.51-.34q-1.09-2.06-2.2-4.11h3.23a2.6,2.6,0,0,0,.88-.12,2.17,2.17,0,0,0,1.38-2,.41.41,0,0,0,0-.11V20.22A2.2,2.2,0,0,0,25.64,18,7.56,7.56,0,0,0,23.86,18H15.08a2,2,0,0,0-1.48.57,2.74,2.74,0,0,0-.6,2,5,5,0,0,0,.16,1.8A1.92,1.92,0,0,0,15,23.69h4.71L22,27.91a12,12,0,0,0-6,2.67,11.78,11.78,0,0,0-4.14,8.93A11.1,11.1,0,0,0,16,48.18a11.79,11.79,0,0,0,2.82,1.64H13.6a.88.88,0,0,0,0,1.76H50.76a.88.88,0,0,0,0-1.76H46.17a8.29,8.29,0,0,0,1.58-1.13A7.68,7.68,0,0,0,45,35.85L40.4,33.91c.28-.95.56-1.89.85-2.83Zm-19.33-.23h0ZM15,21.93h-.06l0,0,0,0,0,0h0l0,0c.1,0,0-.05,0,0l0,0,0,0s0,0,0-.07a1.86,1.86,0,0,1,0-.61v-.79a1.13,1.13,0,0,1,.08-.56l0,0,0,0H25.19l0,0,.08.07s.09.17.07.12a.57.57,0,0,1,0,.14c0-.08,0-.06,0,.05s0,.26,0,.39v.92s0,.14,0,.18a1,1,0,0,1,0,.13l-.06.1c-.05.05-.14.12,0,.05-.09.06,0,0-.15,0ZM41.63,36.31l2.85,1.2.09,0A5.92,5.92,0,0,1,48,45.3a6.2,6.2,0,0,1-1.14,1.81A5.77,5.77,0,0,1,45,48.45a6.11,6.11,0,0,1-2.7.56H24.63c-.56,0-1.12,0-1.68,0a10.59,10.59,0,0,1-4.41-1.23,9.35,9.35,0,0,1-4.87-7A9.92,9.92,0,0,1,16.8,32.2,10,10,0,0,1,20.73,30a9.57,9.57,0,0,1,2.32-.4,8.38,8.38,0,0,1,3,.31q.74.25,1.47.54l.23.09.11,0c.14.06.27.13.41.18l.06,0,1.25.53ZM14.88,19.73c-.08.1.1,0,0,0Zm0,0h0Zm0,2.18h0ZM28.41,45.05c-.5-.93-1-1.86-1.49-2.79a4.11,4.11,0,0,0,1.26-2.86.49.49,0,0,0,0-.12v-.1a4.12,4.12,0,1,0-6.56,3.41,4,4,0,0,0,3.77.56c.37.7.74,1.4,1.12,2.09H24.79a.89.89,0,0,0,0,1.77h6a.89.89,0,0,0,0-1.77h-2.3A1.54,1.54,0,0,0,28.41,45.05Zm-4.34-3.41a2.36,2.36,0,1,1,2.36-2.36A2.37,2.37,0,0,1,24.07,41.64Z"/></svg>