<svg id="Layer_1" data-name="Layer 1" xmlns="http://www.w3.org/2000/svg" viewBox="0 0 64 64"><defs><style>.cls-1{fill:none;stroke:#505050;stroke-linejoin:round;stroke-width:1.5px;}</style></defs><path class="cls-1" d="M33.06,41c5.86-4,12.7-6.08,19.3-4.09"/><path class="cls-1" d="M39.08,44.85c2.07-2.44,7.6-6.15,13.28-4.83"/><path class="cls-1" d="M43.51,49.28c.63-2.9,4.72-6.2,8.85-5.91"/><path class="cls-1" d="M11.64,48.39c6.8-4.31,10.62-.88,14.67,2.63"/><path class="cls-1" d="M11.64,41.27C22.91,35.81,36.05,39.06,45.09,51"/><path class="cls-1" d="M11.64,44.85c9.25-5.12,17.7-1.77,24.26,6.17"/><path class="cls-1" d="M45.28,25.38H36.51a3.28,3.28,0,0,0-2.76-1.8,2.94,2.94,0,0,0-1.11.23,4.92,4.92,0,0,0-4.56-3.23c-2.68,0-4.86,3-4.87,4.8H16.06"/><line class="cls-1" x1="17.83" y1="29.8" x2="11.64" y2="29.8"/><line class="cls-1" x1="39.08" y1="29.8" x2="29.34" y2="29.8"/><line class="cls-1" x1="19.61" y1="29.8" x2="21.38" y2="29.8"/><line class="cls-1" x1="47.05" y1="25.38" x2="48.82" y2="25.38"/><line class="cls-1" x1="50.59" y1="25.38" x2="52.36" y2="25.38"/><circle class="cls-1" cx="41.74" cy="16.52" r="3.54"/></svg>