<svg id="Layer_1" data-name="Layer 1" xmlns="http://www.w3.org/2000/svg" viewBox="0 0 64 64"><defs><style>.cls-1{fill:#4d4d4d;}</style></defs><path class="cls-1" d="M25.14,26.58a.78.78,0,1,0,.78.78A.78.78,0,0,0,25.14,26.58Z"/><path class="cls-1" d="M25.14,40.42a.79.79,0,1,0-.78-.78A.78.78,0,0,0,25.14,40.42Z"/><path class="cls-1" d="M38.86,40.42a.79.79,0,1,0-.78-.78A.78.78,0,0,0,38.86,40.42Z"/><path class="cls-1" d="M38.86,26.58a.78.78,0,1,0,.78.78A.78.78,0,0,0,38.86,26.58Z"/><path class="cls-1" d="M34.67,48.09h8.38a.61.61,0,0,0,.61-.61v-4h4.5a.61.61,0,0,0,.61-.61V36.32a.61.61,0,0,0-.61-.61H46.05a.61.61,0,0,0-.61.61.61.61,0,0,0,.61.61h1.5v5.36H43.66V31.43h4.5a.61.61,0,0,0,.61-.61V24.24a.61.61,0,0,0-.61-.61H46.05a.61.61,0,1,0,0,1.22h1.5v5.36H43.66V18.94a.61.61,0,0,0-.31-.53L39.16,16a.59.59,0,0,0-.6,0l-4.2,2.41a.63.63,0,0,0-.3.53v4.69H29.94V18.94a.6.6,0,0,0-.3-.53L25.45,16a.61.61,0,0,0-.61,0l-4.19,2.41a.61.61,0,0,0-.31.53v4.69h-4.5a.61.61,0,0,0-.61.61v6.58a.61.61,0,0,0,.61.61H18a.61.61,0,1,0,0-1.22H16.45V24.85h3.89V35.71h-4.5a.61.61,0,0,0-.61.61V42.9a.61.61,0,0,0,.61.61H18a.61.61,0,1,0,0-1.22H16.45V36.93h3.89V47.48a.61.61,0,0,0,.61.61h8.38a.61.61,0,0,0,.61-.61v-4h4.12v4A.61.61,0,0,0,34.67,48.09Zm.61-28.8,3.58-2.06,3.58,2.06V46.87H35.28ZM28.72,46.87H21.56V19.29l3.58-2.06,3.58,2.06Zm1.22-22h4.12v5.36H29.94Zm0,6.58h4.12v4.28H29.94Zm0,10.86V36.93h4.12v5.36Z"/></svg>