<svg id="Layer_1" data-name="Layer 1" xmlns="http://www.w3.org/2000/svg" viewBox="0 0 64 64"><defs><style>.cls-1{fill:none;stroke:#505050;stroke-linejoin:round;stroke-width:1.5px;}</style></defs><polygon class="cls-1" points="53.04 23.7 44.18 23.7 44.18 22.59 46.39 15.95 50.82 15.95 53.04 22.59 53.04 23.7"/><line class="cls-1" x1="48.61" y1="23.7" x2="48.61" y2="29.23"/><rect class="cls-1" x="44.18" y="29.23" width="13.29" height="7.75"/><rect class="cls-1" x="44.18" y="36.98" width="13.29" height="7.75"/><line class="cls-1" x1="45.29" y1="44.73" x2="45.29" y2="48.06"/><line class="cls-1" x1="37.54" y1="44.73" x2="37.54" y2="48.06"/><line class="cls-1" x1="8.75" y1="44.73" x2="8.75" y2="48.06"/><line class="cls-1" x1="56.36" y1="44.73" x2="56.36" y2="48.06"/><path class="cls-1" d="M7.64,28.12V17.05a1.11,1.11,0,0,1,1.11-1.11H37.54a1.11,1.11,0,0,1,1.1,1.11V28.12"/><path class="cls-1" d="M9.53,30.34H36.75a3,3,0,0,1,3,3V44.73a0,0,0,0,1,0,0H6.53a0,0,0,0,1,0,0V33.34A3,3,0,0,1,9.53,30.34Z"/><path class="cls-1" d="M12.07,28.12V25.91a2.21,2.21,0,0,1,2.21-2.21h4.43a2.21,2.21,0,0,1,2.22,2.21v2.21"/><path class="cls-1" d="M25.36,28.12V25.91a2.21,2.21,0,0,1,2.21-2.21H32a2.21,2.21,0,0,1,2.21,2.21v2.21"/></svg>