<svg id="Layer_1" data-name="Layer 1" xmlns="http://www.w3.org/2000/svg" viewBox="0 0 64 64"><defs><style>.cls-1{fill:#4a4a4a;}</style></defs><path class="cls-1" d="M33,48.38H21.26a2.56,2.56,0,0,1-2.56-2.56V31.33h-3a.66.66,0,0,1-.43-.15,2.09,2.09,0,0,1,0-3.38L30.06,16.07a3.09,3.09,0,0,1,3.74,0,.7.7,0,0,1-.87,1.09,1.71,1.71,0,0,0-2,0L16.18,28.9a.79.79,0,0,0-.33.59.7.7,0,0,0,.17.44H19.4a.7.7,0,0,1,.7.7V45.82A1.16,1.16,0,0,0,21.26,47H33a.7.7,0,1,1,0,1.4Z"/><path class="cls-1" d="M47.41,50.86H37.82a2,2,0,0,1-1.57-.81,2.85,2.85,0,0,1-.57-1.73V18.17a2.36,2.36,0,0,1,2.14-2.53h9.59a2,2,0,0,1,1.57.8,2.81,2.81,0,0,1,.57,1.73V48.32A2.37,2.37,0,0,1,47.41,50.86ZM37.82,17c-.35,0-.74.46-.74,1.13V48.32a1.45,1.45,0,0,0,.27.87.65.65,0,0,0,.47.27h9.59c.35,0,.74-.47.74-1.14V18.17a1.42,1.42,0,0,0-.27-.86.65.65,0,0,0-.47-.27Z"/><path class="cls-1" d="M40.4,46.82H36.73a.7.7,0,0,1,0-1.4H40.4a.7.7,0,0,1,0,1.4Z"/><path class="cls-1" d="M40.4,27.52H36.73a.7.7,0,0,1,0-1.4H40.4a.7.7,0,1,1,0,1.4Z"/><path class="cls-1" d="M40.4,40.39H36.73a.7.7,0,0,1,0-1.4H40.4a.7.7,0,0,1,0,1.4Z"/><path class="cls-1" d="M36.73,34a.7.7,0,0,1,0-1.4H40.4a.7.7,0,1,1,0,1.4Z"/><path class="cls-1" d="M32,40.53H28.17a2.23,2.23,0,0,1-2.23-2.23V33.6a2.23,2.23,0,0,1,2.23-2.23H32a.7.7,0,0,1,0,1.4H28.17a.83.83,0,0,0-.83.83v4.7a.83.83,0,0,0,.83.83H32a.7.7,0,1,1,0,1.4Z"/></svg>