<svg id="Layer_1" data-name="Layer 1" xmlns="http://www.w3.org/2000/svg" viewBox="0 0 64 64"><defs><style>.cls-1{fill:none;stroke:#505050;stroke-linejoin:round;stroke-width:1.5px;}</style></defs><g id="history"><path class="cls-1" d="M44.6,27.12a2.1,2.1,0,0,0-2-2c-2.12,0-3.7,2.64-1.59,4.75a4.05,4.05,0,0,0,2.64,1.05c3.17,0,4.75-2.24,4.75-5s-2.64-5-5.8-5H21.44c-3.16,0-5.8,2.24-5.8,5s1.58,5,4.75,5A4.05,4.05,0,0,0,23,29.89c2.11-2.11.53-4.75-1.59-4.75a2.1,2.1,0,0,0-2,2"/><polyline class="cls-1" points="20.39 18.8 17.75 18.8 17.75 15.64 46.25 15.64 46.25 18.8 43.61 18.8"/><path class="cls-1" d="M44.67,18.81c0,1.58-2.11,2.11-2.11,2.11H21.44s-2.11-.53-2.11-2.11"/><line class="cls-1" x1="26.19" y1="25.14" x2="37.81" y2="25.14"/><line class="cls-1" x1="21.44" y1="34.11" x2="21.44" y2="48.36"/><line class="cls-1" x1="32" y1="31.47" x2="32" y2="48.36"/><line class="cls-1" x1="37.28" y1="31.47" x2="37.28" y2="48.36"/><line class="cls-1" x1="42.56" y1="34.11" x2="42.56" y2="48.36"/><line class="cls-1" x1="26.72" y1="31.47" x2="26.72" y2="48.36"/><line class="cls-1" x1="27.25" y1="28.31" x2="36.75" y2="28.31"/></g></svg>