<svg id="Layer_1" data-name="Layer 1" xmlns="http://www.w3.org/2000/svg" viewBox="0 0 64 64"><defs><style>.cls-1{fill:none;stroke:#505050;stroke-miterlimit:10;stroke-width:1.7px;}</style></defs><line class="cls-1" x1="7.62" y1="29.62" x2="36.06" y2="29.62"/><line class="cls-1" x1="47.24" y1="29.62" x2="56.38" y2="29.62"/><line class="cls-1" x1="10.67" y1="29.62" x2="10.67" y2="50.96"/><line class="cls-1" x1="53.33" y1="29.62" x2="53.33" y2="50.96"/><rect class="cls-1" x="10.67" y="29.62" width="12.19" height="7.11"/><rect class="cls-1" x="10.67" y="36.73" width="12.19" height="7.11"/><line class="cls-1" x1="15.75" y1="32.67" x2="17.78" y2="32.67"/><line class="cls-1" x1="15.75" y1="39.78" x2="17.78" y2="39.78"/><path class="cls-1" d="M38.06,18.45h7.17a2,2,0,0,1,2,2V37.8a3,3,0,0,1-3,3H36.06a0,0,0,0,1,0,0V20.45A2,2,0,0,1,38.06,18.45Z"/><line class="cls-1" x1="27.94" y1="40.8" x2="36.06" y2="40.8"/><line class="cls-1" x1="39.11" y1="40.8" x2="39.11" y2="48.92"/><path class="cls-1" d="M45.21,51v-2a1,1,0,0,0-1-1H34a1,1,0,0,0-1,1v2"/><line class="cls-1" x1="39.11" y1="47.91" x2="39.11" y2="50.96"/><path class="cls-1" d="M30,40.8V36.73a2,2,0,0,1,2-2h4.06"/><rect class="cls-1" x="13.72" y="13.37" width="17.27" height="11.17"/><line class="cls-1" x1="19.81" y1="24.54" x2="19.81" y2="27.59"/><line class="cls-1" x1="24.89" y1="24.54" x2="24.89" y2="27.59"/></svg>