<svg id="Layer_1" data-name="Layer 1" xmlns="http://www.w3.org/2000/svg" viewBox="0 0 64 64"><defs><style>.cls-1{fill:none;stroke:#505050;stroke-linejoin:round;stroke-width:1.5px;}</style></defs><path class="cls-1" d="M25,44.57a2,2,0,0,1,1.66-.83h10c.93,0,7.47-4.15,7.47-4.15s3.7-3.8,5-5.08c-.36-.88-.7-2.35-2.75-2.35s-4,1.78-4.72,2.94l-2.49,1.17"/><path class="cls-1" d="M29.93,38.76h6.63c3.32,0,3.32-4.15,0-4.15H32.18c-.69,0-2.38-2.49-4.61-2.49H25c-2.08,0-3.32,1.55-4.15,2.49s-2.49,3.32-2.49,3.32"/><rect class="cls-1" x="16.62" y="36.28" width="5.87" height="14.08" transform="translate(-24.91 26.52) rotate(-45)"/><line class="cls-1" x1="16.65" y1="40.42" x2="18.31" y2="42.08"/><line class="cls-1" x1="18.31" y1="32.12" x2="51.5" y2="32.12"/><path class="cls-1" d="M21.63,30.46a13.28,13.28,0,0,1,26.55,0"/><path class="cls-1" d="M25.85,27.82A9.11,9.11,0,0,1,33,20.52"/><path class="cls-1" d="M32.41,17.19V14.7a.83.83,0,0,1,.83-.83h3.32a.83.83,0,0,1,.83.83v2.49"/></svg>