<svg id="Layer_1" data-name="Layer 1" xmlns="http://www.w3.org/2000/svg" viewBox="0 0 64 64"><defs><style>.cls-1{fill:none;stroke:#505050;stroke-linejoin:round;stroke-width:1.5px;}</style></defs><path class="cls-1" d="M13.43,41c1.34,0,2.67-1.6,4-1.6s2.66,1.6,4,1.6,2.66-1.6,4-1.6,2.67,1.6,4,1.6,2.66-1.6,4-1.6,2.66,1.6,4,1.6,2.67-1.6,4-1.6,2.66,1.6,4,1.6,2.66-1.6,4-1.6"/><line class="cls-1" x1="21.43" y1="44.98" x2="30.22" y2="44.98"/><line class="cls-1" x1="27.82" y1="50.57" x2="36.61" y2="50.57"/><line class="cls-1" x1="35.02" y1="46.58" x2="43.81" y2="46.58"/><path class="cls-1" d="M41,13.43c-2.23,0-4,1.35-4,3.2,0-1.85-1.77-3.2-4-3.2"/><path class="cls-1" d="M51,18.16c-2.22,0-4,1.36-4,3.2,0-1.84-1.77-3.2-4-3.2"/><path class="cls-1" d="M14.8,36.26c1-1.37,1.72-2.62,2.26-3.32s2.57-2.46,3.28-3c.71-.92,2.92-3.58,3.46-4.09.16-.14,1.76-3.59,2.27-4.13s2.69-3.29,2.92-3.32c.86-.12,2.24-1.08,3.92,1.43a19.59,19.59,0,0,1,2.36,4.37c.31.19,1.77,1.35,1.77,1.35"/><path class="cls-1" d="M34,21.62a21.24,21.24,0,0,1,2.58-2.34,5.71,5.71,0,0,1,2.85,1.06c.4.51,2.19,4.48,2.76,5.4a57,57,0,0,0,3.47,5.07"/><path class="cls-1" d="M42.64,26.5A18.24,18.24,0,0,1,45.48,24a7.46,7.46,0,0,1,2.35,1.73,19.15,19.15,0,0,0,1.8,2.82"/><path class="cls-1" d="M29.65,24.49A5.27,5.27,0,0,0,28,28.42a7.51,7.51,0,0,1-1.11,3.81l-1.61,2.9"/><path class="cls-1" d="M36.06,28.39c.6.92,2.32,2.66,2.32,3.17s-.57,1.67,2.13,3.57"/><circle class="cls-1" cx="16.2" cy="20.2" r="3.2"/></svg>