<svg id="Layer_1" data-name="Layer 1" xmlns="http://www.w3.org/2000/svg" viewBox="0 0 64 64"><defs><style>.cls-1{fill:#4d4d4d;}</style></defs><path class="cls-1" d="M12.12,38.06a.65.65,0,0,1-.45-.17.68.68,0,0,1-.06-1L21.92,25.07a.66.66,0,0,1,.47-.23.65.65,0,0,1,.5.18l12.8,11.86a.67.67,0,0,1,0,1,.68.68,0,0,1-1,0L22.48,26.49,12.63,37.83A.68.68,0,0,1,12.12,38.06Z"/><path class="cls-1" d="M52.62,38.38a.69.69,0,0,1-.51-.23L41.74,26.47l-9.15,8a.68.68,0,0,1-1-.06.69.69,0,0,1,.07-1L41.35,25a.69.69,0,0,1,1,.06L53.13,37.25a.68.68,0,0,1-.06,1A.7.7,0,0,1,52.62,38.38Z"/><path class="cls-1" d="M31.72,11.87a.68.68,0,0,1-.68-.68v-.65a.68.68,0,0,1,1.36,0v.65A.69.69,0,0,1,31.72,11.87Z"/><path class="cls-1" d="M31.72,22.1a.68.68,0,0,1-.68-.68v-7.7a.68.68,0,0,1,1.36,0v7.7A.69.69,0,0,1,31.72,22.1Z"/><path class="cls-1" d="M19.85,19.24a.69.69,0,0,1-.48-.2L18.28,18a.68.68,0,1,1,1-1l1.09,1.09a.68.68,0,0,1,0,1A.69.69,0,0,1,19.85,19.24Z"/><path class="cls-1" d="M23.56,22.94a.67.67,0,0,1-.48-.2l-1.59-1.59a.67.67,0,0,1,0-1,.69.69,0,0,1,1,0L24,21.78a.69.69,0,0,1,0,1A.71.71,0,0,1,23.56,22.94Z"/><path class="cls-1" d="M25.05,24.43a.67.67,0,0,1-.48-.2l-.2-.2a.68.68,0,0,1,1-1l.2.2a.69.69,0,0,1,0,1A.71.71,0,0,1,25.05,24.43Z"/><path class="cls-1" d="M44.82,18a.67.67,0,0,1-.48-.2.69.69,0,0,1,0-1l.38-.38a.68.68,0,1,1,1,1l-.38.37A.63.63,0,0,1,44.82,18Z"/><path class="cls-1" d="M38,24.78a.69.69,0,0,1-.48-.2.67.67,0,0,1,0-1l4-4a.69.69,0,0,1,1,0,.67.67,0,0,1,0,1l-4,4A.69.69,0,0,1,38,24.78Z"/><path class="cls-1" d="M37.2,18.15a.58.58,0,0,1-.26-.06.67.67,0,0,1-.36-.89L38,13.76a.69.69,0,0,1,.89-.36.67.67,0,0,1,.36.89l-1.45,3.44A.68.68,0,0,1,37.2,18.15Z"/><path class="cls-1" d="M36.08,20.79a.58.58,0,0,1-.26-.05.67.67,0,0,1-.36-.89l.2-.48a.68.68,0,0,1,1.25.53l-.2.48A.67.67,0,0,1,36.08,20.79Z"/><path class="cls-1" d="M35.23,22.8a.75.75,0,0,1-.26-.05.67.67,0,0,1-.36-.89l0-.09a.68.68,0,1,1,1.26.53l0,.09A.67.67,0,0,1,35.23,22.8Z"/><path class="cls-1" d="M24.55,14a.67.67,0,0,1-.63-.42L23.71,13a.67.67,0,0,1,.36-.89.68.68,0,0,1,.89.36l.22.52a.68.68,0,0,1-.37.89A.58.58,0,0,1,24.55,14Z"/><path class="cls-1" d="M26.3,18.15a.68.68,0,0,1-.62-.42L25,16.1a.68.68,0,0,1,1.26-.53l.68,1.64a.67.67,0,0,1-.36.88A.66.66,0,0,1,26.3,18.15Z"/><path class="cls-1" d="M28.26,22.83a.66.66,0,0,1-.62-.41l-1.1-2.62a.68.68,0,1,1,1.26-.52l1.09,2.61a.68.68,0,0,1-.36.89A.65.65,0,0,1,28.26,22.83Z"/><path class="cls-1" d="M12.65,23.72a.52.52,0,0,1-.24,0l-.27-.1a.68.68,0,1,1,.49-1.27l.27.11a.68.68,0,0,1-.25,1.31Z"/><path class="cls-1" d="M18.38,25.94a.69.69,0,0,1-.24-.05l-3.81-1.47a.68.68,0,0,1,.49-1.27l3.81,1.47a.68.68,0,0,1-.25,1.32Z"/><path class="cls-1" d="M48.7,23.76a.68.68,0,0,1-.27-1.3l2.77-1.2a.68.68,0,0,1,.54,1.25L49,23.71A.65.65,0,0,1,48.7,23.76Z"/><path class="cls-1" d="M45.2,25.27a.67.67,0,0,1-.62-.41.68.68,0,0,1,.35-.89l.44-.19A.68.68,0,1,1,45.91,25l-.44.19A.86.86,0,0,1,45.2,25.27Z"/><path class="cls-1" d="M27.37,28.17a.68.68,0,0,1-.56-1.06,5.93,5.93,0,0,1,9.81,0,.68.68,0,0,1-1.13.77,4.56,4.56,0,0,0-7.55,0A.7.7,0,0,1,27.37,28.17Z"/><path class="cls-1" d="M28.1,53.09a.69.69,0,0,1-.59-.34l-1.35-2.34a5.42,5.42,0,0,1,2.39-7.62l9.07-4.22-2.53-.52a.68.68,0,0,1-.52-.81.66.66,0,0,1,.8-.52l3.17.66a1.14,1.14,0,0,1,.9,1,1.15,1.15,0,0,1-.65,1.17L29.13,44A4,4,0,0,0,27,46.48a4.06,4.06,0,0,0,.36,3.25l1.36,2.34a.68.68,0,0,1-.25.93A.69.69,0,0,1,28.1,53.09ZM38.26,38.71Z"/><path class="cls-1" d="M39.76,53.09a.63.63,0,0,1-.39-.13l-7.8-5.52a2.5,2.5,0,0,1,0-4.06l6.54-5a.68.68,0,0,1,.95.13.67.67,0,0,1-.13,1l-6.54,5h0a1.13,1.13,0,0,0,0,1.85l7.79,5.52a.69.69,0,0,1,.17.95A.7.7,0,0,1,39.76,53.09Z"/><path class="cls-1" d="M54.45,38.38H42.78a.68.68,0,0,1,0-1.36H54.45a.68.68,0,0,1,0,1.36Z"/><path class="cls-1" d="M20.34,38.38H10.25a.68.68,0,0,1,0-1.36H20.34a.68.68,0,0,1,0,1.36Z"/><path class="cls-1" d="M31.71,38.38H22.76a.68.68,0,1,1,0-1.36h9a.68.68,0,0,1,0,1.36Z"/><path class="cls-1" d="M27.37,41.32H14.73a.68.68,0,0,1,0-1.36H27.37a.68.68,0,0,1,0,1.36Z"/><path class="cls-1" d="M51.5,41.32H44.84a.68.68,0,0,1,0-1.36H51.5a.68.68,0,0,1,0,1.36Z"/><path class="cls-1" d="M42.38,41.32h-.71a.68.68,0,0,1,0-1.36h.71a.68.68,0,0,1,0,1.36Z"/><path class="cls-1" d="M46.81,43.78h-8a.68.68,0,1,1,0-1.36h8a.68.68,0,1,1,0,1.36Z"/><path class="cls-1" d="M49,43.78a.74.74,0,0,1-.48-.2.44.44,0,0,1-.08-.11.24.24,0,0,1-.06-.11.65.65,0,0,1,0-.13.59.59,0,0,1,0-.13.68.68,0,0,1,0-.14.56.56,0,0,1,0-.12.34.34,0,0,1,.06-.12.39.39,0,0,1,.08-.1.71.71,0,0,1,.62-.19l.12,0,.12.06a.43.43,0,0,1,.1.09.66.66,0,0,1,.2.48.67.67,0,0,1-.2.48.39.39,0,0,1-.1.08.23.23,0,0,1-.12.06l-.12,0Z"/><path class="cls-1" d="M24.84,43.78H19.09a.68.68,0,1,1,0-1.36h5.75a.68.68,0,0,1,0,1.36Z"/></svg>