<svg id="Layer_1" data-name="Layer 1" xmlns="http://www.w3.org/2000/svg" viewBox="0 0 64 64"><defs><style>.cls-1{fill:#595959;}</style></defs><path class="cls-1" d="M57.82,45.63a.64.64,0,0,0-.64-.64H55.82V26.35a.64.64,0,0,0-.64-.64h-6V15.25a.64.64,0,0,0-.25-.52.65.65,0,0,0-.57-.1L8.64,26.34a.65.65,0,0,0-.46.62V45H6.82a.64.64,0,0,0-.64.64v3.12a.65.65,0,0,0,.64.65H57.18a.65.65,0,0,0,.64-.65ZM54.54,27V45h-3V35.67a.64.64,0,0,0-.64-.64H38.24a.64.64,0,0,0-.64.64V45H34.55V27Zm-4.33,9.32V45H47.29V36.31Zm-4.21,0V45H43.08V36.31Zm-4.2,0V45H38.88V36.31ZM9.46,27.44l.15,0L47.86,16.11v9.6h-14a.64.64,0,0,0-.64.64V45H30.46V36.3a.64.64,0,0,0-.64-.65H12.93a.64.64,0,0,0-.64.65V45H9.46Zm19.72,9.5v8H13.57v-8ZM56.53,48.11H7.47V46.27H56.53Z"/><path class="cls-1" d="M41.62,29.25h-1a.08.08,0,0,0-.08.05l-.36,1.14c-.08.26-.17.59-.25.94-.06-.28-.14-.58-.23-.94l-.34-1.14a.08.08,0,0,0-.07-.05h-1a.08.08,0,0,0-.08.07L38,32.74a.14.14,0,0,0,0,.06l.06,0h.71a.08.08,0,0,0,.08-.07l.06-1.3c0-.25,0-.55,0-.83.06.25.12.52.19.76l.37,1.33a.09.09,0,0,0,.07.06h.61a.09.09,0,0,0,.07-.06l.41-1.33c.09-.27.18-.56.26-.83,0,.34,0,.65,0,.89h0l0,1.31a.08.08,0,0,0,.08.07h.76l0,0a.07.07,0,0,0,0-.06l-.19-3.42A.07.07,0,0,0,41.62,29.25Z"/><path class="cls-1" d="M44.47,29.3a.08.08,0,0,0-.07-.05h-1a.08.08,0,0,0-.08.05l-1,3.42a.06.06,0,0,0,0,.07.06.06,0,0,0,.06,0h.8a.08.08,0,0,0,.08,0l.22-.83h.87l.25.83a.08.08,0,0,0,.07,0h.83a.06.06,0,0,0,.06,0,.08.08,0,0,0,0-.07Zm-.6.91a3.29,3.29,0,0,0,.1.37l.18.63H43.6l.17-.63A3.29,3.29,0,0,0,43.87,30.21Z"/><path class="cls-1" d="M48.26,32H47v-2.7a.08.08,0,0,0-.08-.07h-.78a.07.07,0,0,0-.07.07v3.42a.07.07,0,0,0,.07.08h2.14a.08.08,0,0,0,.08-.08v-.65A.08.08,0,0,0,48.26,32Z"/><path class="cls-1" d="M48.92,32.82h2.14a.07.07,0,0,0,.07-.08v-.65a.07.07,0,0,0-.07-.07H49.77v-2.7a.07.07,0,0,0-.07-.07h-.78a.08.08,0,0,0-.08.07v3.42A.08.08,0,0,0,48.92,32.82Z"/></svg>