<svg id="Layer_1" data-name="Layer 1" xmlns="http://www.w3.org/2000/svg" viewBox="0 0 64 64"><defs><style>.cls-1{fill:none;stroke:#505050;stroke-linejoin:round;stroke-width:1.5px;}</style></defs><circle class="cls-1" cx="31.05" cy="15.81" r="3.81"/><circle class="cls-1" cx="47.24" cy="39.62" r="3.81"/><path class="cls-1" d="M34.86,45.33l6.66,5.72h6.67c2.86,0,3.81-3.81,3.81-3.81l-8.57-1s-2-2.6-2.83-3.83a5.33,5.33,0,0,0-5-2.84H21.52"/><line class="cls-1" x1="21.52" y1="47.24" x2="37.08" y2="47.24"/><polyline class="cls-1" points="12 38.67 21.52 38.67 21.52 52"/><line class="cls-1" x1="27.93" y1="33.45" x2="26.75" y2="36.91"/><path class="cls-1" d="M25.08,27l1.39,5.47,4.72,3.33a3.2,3.2,0,0,0,4.55-.31l.48-.48L31,29.86S30.17,26,29.85,25a5.08,5.08,0,0,0-3.41-3.66c-2.13-.5-3.65-.14-4.41,1.71l-5.4,13.12"/></svg>