<svg id="Layer_1" data-name="Layer 1" xmlns="http://www.w3.org/2000/svg" viewBox="0 0 64 64"><defs><style>.cls-1{fill:none;stroke:#505050;stroke-linejoin:round;stroke-width:1.5px;}</style></defs><g id="meeting"><path class="cls-1" d="M23.51,41.62H18.4a3.94,3.94,0,0,1-3.95-3.94V27.27a2.63,2.63,0,0,1,2.63-2.63h.06a2.84,2.84,0,0,1,2,.85l3.05,3.11h3.53a1.7,1.7,0,0,1,1.7,1.7h0a1.7,1.7,0,0,1-1.7,1.7H20.33l-1.92-1.7"/><line class="cls-1" x1="25.77" y1="49.55" x2="23.51" y2="40.49"/><path class="cls-1" d="M20.11,32v4.53h5a2.83,2.83,0,0,1,2.79,2.34l1.86,10.68"/><path class="cls-1" d="M15.58,22.38c0-1.14-1.13-.57-1.13-4A3.4,3.4,0,0,1,17.85,15a3.17,3.17,0,0,1,3.39,3.39c0,4-2.26,2.83-2.26,4.53"/><path class="cls-1" d="M40.49,41.62H45.6a3.94,3.94,0,0,0,3.95-3.94V27.27a2.63,2.63,0,0,0-2.63-2.63h-.06a2.84,2.84,0,0,0-2,.85L41.79,28.6H38.26a1.7,1.7,0,0,0-1.7,1.7h0a1.7,1.7,0,0,0,1.7,1.7h5.41l1.92-1.7"/><line class="cls-1" x1="38.23" y1="49.55" x2="40.49" y2="40.49"/><path class="cls-1" d="M43.89,32v4.53h-5a2.83,2.83,0,0,0-2.79,2.34L34.26,49.55"/><path class="cls-1" d="M48.42,22.38c0-1.14,1.13-.57,1.13-4A3.4,3.4,0,0,0,46.15,15a3.17,3.17,0,0,0-3.39,3.39c0,4,2.26,2.83,2.26,4.53"/><line class="cls-1" x1="20.11" y1="32" x2="42.76" y2="32"/><g id="executive"><path class="cls-1" d="M33.13,24.07c.57.57.32,2.2,0,2.83a14.13,14.13,0,0,1,.57,2.84"/><path class="cls-1" d="M39.36,26.34a4.84,4.84,0,0,0-1.7-1.7l-2.83-1.13a7.43,7.43,0,0,1-5.66,0l-2.83,1.13a4.84,4.84,0,0,0-1.7,1.7"/><path class="cls-1" d="M30.3,29.74a14.13,14.13,0,0,1,.57-2.84c-.32-.63-.57-2.26,0-2.83"/><path class="cls-1" d="M33.7,21.81c1.58-1,1.43-1.73,1.62-3.26a4.18,4.18,0,0,0-.27-2.47,3.06,3.06,0,0,0-1.77-1.42,4,4,0,0,0-2.56,0A3.06,3.06,0,0,0,29,16.08a4.18,4.18,0,0,0-.27,2.47c.19,1.53,0,2.21,1.62,3.26"/></g></g></svg>