<svg id="Layer_1" data-name="Layer 1" xmlns="http://www.w3.org/2000/svg" viewBox="0 0 64 64"><defs><style>.cls-1{fill:#4a4a4a;}</style></defs><path class="cls-1" d="M50.39,19.27h-.24v-.2c0-2-2.95-3.35-3.29-3.5a.67.67,0,0,0-.52,0c-.33.15-3.28,1.53-3.28,3.5v.2h-.25a.63.63,0,0,0-.63.63v2.56a.64.64,0,0,0,.63.64h.34v5.68h-2a9.16,9.16,0,0,0-8.48-8.49v-1a2.79,2.79,0,0,0,1.91-1.57.64.64,0,0,0-1.17-.52,1.52,1.52,0,1,1-1.57-2.13.63.63,0,0,0,.55-.71.64.64,0,0,0-.71-.56,2.79,2.79,0,0,0-.29,5.49v1a9.16,9.16,0,0,0-8.48,8.49h-2V23.1h.34a.64.64,0,0,0,.63-.64V19.9a.63.63,0,0,0-.63-.63h-.25v-.2c0-2-3-3.35-3.28-3.5a.67.67,0,0,0-.52,0c-.34.15-3.29,1.53-3.29,3.5v.2h-.24a.63.63,0,0,0-.64.63v2.56a.64.64,0,0,0,.64.64H14V47.72a.63.63,0,0,0,.64.64H49.41a.63.63,0,0,0,.64-.64V23.1h.34a.64.64,0,0,0,.64-.64V19.9A.63.63,0,0,0,50.39,19.27Zm-6.94,2.55V20.54h6.3v1.28Zm.88-2.75c0-.81,1.4-1.76,2.27-2.2.88.44,2.27,1.38,2.27,2.2v.2H44.33ZM32,21.55a7.88,7.88,0,0,1,7.84,7.23H24.16A7.88,7.88,0,0,1,32,21.55Zm-17.75.27V20.54h6.3v1.28Zm.88-2.75c0-.81,1.39-1.76,2.27-2.2.87.44,2.27,1.38,2.27,2.2v.2H15.13Zm4.44,28H15.23v-24h4.34Zm1.28-17h22.3v17H37.83V38.7a5.83,5.83,0,1,0-11.66,0v8.38H20.85Zm15.71,17H27.44V38.7a4.56,4.56,0,0,1,9.12,0Zm12.21,0H44.43v-24h4.34Z"/></svg>