<svg id="Layer_1" data-name="Layer 1" xmlns="http://www.w3.org/2000/svg" viewBox="0 0 64 64"><defs><style>.cls-1{fill:none;stroke:#505050;stroke-linejoin:round;stroke-width:1.5px;}</style></defs><rect class="cls-1" x="21.38" y="36.03" width="3.43" height="7.49" transform="translate(-21.36 27.98) rotate(-45)"/><polyline class="cls-1" points="27.7 31.68 41.11 18.27 41.98 14.97 51.88 13.12 52.78 16.42 44.75 21.92 31.32 35.29"/><path class="cls-1" d="M31.55,27.83A2.85,2.85,0,0,1,30,24.1c.58-1.53,3.89-2.5,3.49-4-.2-.76-1.1-1.34-2.54-1.2a6.77,6.77,0,0,0-4.54,2.19c-1.42,1.61-1.81,4.84-3.24,6.09-3.13,2.73-5.91,2.29-9.24,5.1C8.33,37,12.57,42.58,16.05,46.05s9.08,7.71,13.81,2.09c2.8-3.32,1.55-5.16,4.33-8.35,1.27-1.47,3.83-1.56,5.4-2.62a6.13,6.13,0,0,0,2.18-3.35c.17-1.51-.51-2.28-1.4-2.24-1.33.05-1.77,1.86-3.47,1.71a2,2,0,0,1-1.66-1.86"/></svg>