<svg id="Layer_1" data-name="Layer 1" xmlns="http://www.w3.org/2000/svg" viewBox="0 0 64 64"><defs><style>.cls-1{fill:none;stroke:#505050;stroke-linejoin:round;stroke-width:1.5px;}</style></defs><path class="cls-1" d="M16.73,44.35h6a0,0,0,0,1,0,0v1.72a2,2,0,0,1-2,2h-2a2,2,0,0,1-2-2V44.35A0,0,0,0,1,16.73,44.35Z"/><path class="cls-1" d="M44.05,44.35h2a2,2,0,0,1,2,2v1.72a0,0,0,0,1,0,0h-6a0,0,0,0,1,0,0V46.35A2,2,0,0,1,44.05,44.35Z" transform="translate(90.06 92.42) rotate(180)"/><path class="cls-1" d="M21.35,28.71l1.15-2.87A3.7,3.7,0,0,1,26,23.5H27.9"/><path class="cls-1" d="M18.22,31.69l-.46-1.85a1.5,1.5,0,0,0-1.44-1.13H14.5"/><path class="cls-1" d="M39.82,39.51A1.86,1.86,0,0,0,38,37.65H27.53a1.86,1.86,0,1,0,0,3.72H38A1.86,1.86,0,0,0,39.82,39.51Z"/><line class="cls-1" x1="45.03" y1="41.37" x2="47.27" y2="41.37"/><line class="cls-1" x1="17.48" y1="41.37" x2="20.46" y2="41.37"/><path class="cls-1" d="M41.31,36.9H45a1.49,1.49,0,0,0,1.49-1.49"/><path class="cls-1" d="M23.44,36.9H19.71a1.49,1.49,0,0,1-1.49-1.49"/><rect class="cls-1" x="30.14" y="13.82" width="19.36" height="19.36" rx="3"/><path class="cls-1" d="M36.1,30.2V17.54h4.09a4.1,4.1,0,1,1,0,8.19H36.1"/><path class="cls-1" d="M27.9,30.94H20.46a5.22,5.22,0,0,0-5.22,5.22v6.7a1.49,1.49,0,0,0,1.49,1.49H48a1.49,1.49,0,0,0,1.49-1.49V35.41"/></svg>