<svg id="Layer_1" data-name="Layer 1" xmlns="http://www.w3.org/2000/svg" viewBox="0 0 64 64"><defs><style>.cls-1{fill:#4a4a4a;}</style></defs><path class="cls-1" d="M44.27,50.89H19.73A2.89,2.89,0,0,1,16.84,48V31.29H13.39a.73.73,0,0,1-.47-.17,2.36,2.36,0,0,1,0-3.81l4.49-3.57V14.29a1.1,1.1,0,0,1,1.09-1.1h5.23a1.1,1.1,0,0,1,1.1,1.1v3.55l5.05-4a3.52,3.52,0,0,1,4.24,0l17,13.49a2.36,2.36,0,0,1,0,3.81.73.73,0,0,1-.47.17H47.16V48A2.89,2.89,0,0,1,44.27,50.89ZM13.69,29.77h3.9a.76.76,0,0,1,.76.76V48a1.38,1.38,0,0,0,1.38,1.38H44.27A1.38,1.38,0,0,0,45.65,48V30.53a.76.76,0,0,1,.76-.76h3.9a.84.84,0,0,0,.23-.55.93.93,0,0,0-.4-.72L33.18,15a2,2,0,0,0-2.36,0l-6.27,5a.76.76,0,0,1-1.23-.59V14.7h-4.4v9.41a.77.77,0,0,1-.29.59l-4.77,3.8a.93.93,0,0,0-.4.72A.84.84,0,0,0,13.69,29.77Z"/><path class="cls-1" d="M30.16,38.1a.78.78,0,0,1-.71-.49.76.76,0,0,1,.45-1c.91-.35.14-2.55-.18-3.49q-.13-.37-.21-.63A7,7,0,0,0,29,31.18a2.59,2.59,0,0,0-2.15-.7c-1.69.05-2,.68-2.37,1.42A2.79,2.79,0,0,1,23.66,33c-.21.15-.45.3-.7.46a6.05,6.05,0,0,0-1.49,1.2,2.76,2.76,0,0,0,.87,1.59c.06,0,.21.1.54-.06,1.18-.6,1.67-.8,1.69-.81a.75.75,0,0,1,1,.41.75.75,0,0,1-.41,1s-.47.2-1.6.77a2.06,2.06,0,0,1-1.89.06C20.39,37,20,35,20,34.81a.69.69,0,0,1,0-.2c.09-1,1.21-1.76,2.19-2.4.23-.15.45-.29.63-.42a1.87,1.87,0,0,0,.35-.56c.43-.87,1.09-2.19,3.69-2.26a4,4,0,0,1,3.4,1.31l.06.09a7.71,7.71,0,0,1,.7,1.75c0,.12.1.31.17.53.52,1.47,1.58,4.54-.71,5.4A.86.86,0,0,1,30.16,38.1Z"/><path class="cls-1" d="M27.41,48.19c-1.63,0-2.85-.8-2.85-1.87,0-.86.78-1.54,1.94-1.78,0-1.73-.1-4.16-.19-5.08s-1.47-2.4-1.94-2.8a.76.76,0,0,1-.08-1.06.75.75,0,0,1,1.06-.09c.23.2,2.28,2,2.46,3.8.11,1,.18,3.78.22,5.88a.75.75,0,0,1-.73.77,2,2,0,0,0-1.2.36,2.07,2.07,0,0,0,1.31.36,1.86,1.86,0,0,0,1.33-.4c0-.45.21-4.49.25-5.27a.76.76,0,1,1,1.51.09c-.06.93-.24,5-.25,5.23C30.25,47.39,29,48.19,27.41,48.19Z"/><path class="cls-1" d="M39,48.19c-1.63,0-2.85-.8-2.85-1.87a1.76,1.76,0,0,1,1.25-1.57c0-.32,0-.67,0-1a6.76,6.76,0,0,0,0-1.33c-.41-.67-1.68-.62-1.7-.62h0L30,41.71a.76.76,0,0,1,0-1.51h0l5.64.08a3.46,3.46,0,0,1,3.07,1.4,4.31,4.31,0,0,1,.23,2.11,8.57,8.57,0,0,0,0,1.37.74.74,0,0,1-.58.87,1.57,1.57,0,0,0-.67.29,2.07,2.07,0,0,0,1.31.36,1.86,1.86,0,0,0,1.33-.4c0-.32,0-.77,0-.82.26-2.34.57-5.46.6-5.84v-2a1.86,1.86,0,0,0-1.84-1.86c-.78,0-6.8.26-8.75-1.17a.75.75,0,1,1,.89-1.21c1.16.85,5.41,1,7.81.87h0a3.37,3.37,0,0,1,3.36,3.37v2.16s-.33,3.41-.6,5.89a6.18,6.18,0,0,0-.05.7C41.83,47.39,40.61,48.19,39,48.19Z"/></svg>