<svg id="Layer_1" data-name="Layer 1" xmlns="http://www.w3.org/2000/svg" viewBox="0 0 64 64"><defs><style>.cls-1{fill:none;stroke:#505050;stroke-linejoin:round;stroke-width:1.5px;}</style></defs><g id="vet"><path class="cls-1" d="M24.16,27.17a1.21,1.21,0,0,0-2.42,0"/><line class="cls-1" x1="28.98" y1="28.38" x2="27.17" y2="29.59"/><path class="cls-1" d="M23,36.22a3.62,3.62,0,0,1,3.62-3.62c1.52,0,3-.6,3-2.41V29c0-1.2-.61-1.2-.61-1.2H27.69c-1.12.06-1.12-.61-1.12-1.21A3.62,3.62,0,0,0,23,23H21.74v-3S13.3,23,13.3,32A12.67,12.67,0,0,0,26,44.67h8.44v6h7.24v-6h6V37.43h-6V30.81"/><polyline class="cls-1" points="28.98 42.26 28.98 37.43 34.41 37.43 34.41 31.4 35.02 31.4"/><path class="cls-1" d="M36.45,18s-.79,6.65-.79,9.46a3.95,3.95,0,1,0,7.89,0c0-2.81-3.95-4.53-3.95-9.46"/><path class="cls-1" d="M43.46,19.33a.6.6,0,1,1-.6-.6A.6.6,0,0,1,43.46,19.33Z"/><path class="cls-1" d="M48.29,19.43v1c0,.84.67,1.28,1.51,1.28h.9"/><path class="cls-1" d="M30.79,26a25.25,25.25,0,0,0,2.62-6.44c.8-2.91,2.3-6.23,6.25-6.23a6,6,0,0,1,6.22,6h1.2c3,.08,3.62,1.06,3.62,2.57a5.18,5.18,0,0,1-4.82,4.67"/></g></svg>