<svg id="Layer_1" data-name="Layer 1" xmlns="http://www.w3.org/2000/svg" viewBox="0 0 64 64"><defs><style>.cls-1{fill:none;stroke:#505050;stroke-linejoin:round;stroke-width:1.5px;}</style></defs><g id="languages"><polyline class="cls-1" points="21.88 30.81 25.45 21.88 29.02 30.81"/><line class="cls-1" x1="23.07" y1="27.83" x2="27.83" y2="27.83"/><line class="cls-1" x1="34.38" y1="23.07" x2="42.12" y2="23.07"/><line class="cls-1" x1="38.55" y1="21.88" x2="38.55" y2="23.07"/><path class="cls-1" d="M40.93,23.07c0,3.57-3,7.74-6.55,7.74"/><path class="cls-1" d="M36,25.46c.93,2.81,3.36,5.35,6.15,5.35"/><path class="cls-1" d="M49.26,38.55h0a1.19,1.19,0,0,1,1.19,1.19v1.78H13.55V39.74a1.19,1.19,0,0,1,1.19-1.19h0"/><polyline class="cls-1" points="21.88 49.85 27.24 41.52 23.67 41.52 18.31 49.85"/><polyline class="cls-1" points="45.69 49.85 40.33 41.52 36.76 41.52 42.12 49.85"/><line class="cls-1" x1="24.26" y1="46.28" x2="39.74" y2="46.28"/><polyline class="cls-1" points="15.93 38.55 14.74 38.55 14.74 14.15 49.26 14.15 49.26 38.55 20.1 38.55"/><path class="cls-1" d="M41.74,36.17h2a2,2,0,0,1,2,2v.38a0,0,0,0,1,0,0h-6a0,0,0,0,1,0,0v-.38A2,2,0,0,1,41.74,36.17Z"/></g></svg>