<svg id="Layer_1" data-name="Layer 1" xmlns="http://www.w3.org/2000/svg" viewBox="0 0 64 64"><defs><style>.cls-1{fill:#4d4d4d;}</style></defs><path class="cls-1" d="M53.61,24.43a.61.61,0,0,0-.17-.61,37,37,0,0,0-6.25-4.54,35.17,35.17,0,0,0-6.79-3.12A26.77,26.77,0,0,0,32,14.74h0a26.88,26.88,0,0,0-8.44,1.42,34.63,34.63,0,0,0-6.79,3.12,35.52,35.52,0,0,0-6.18,4.54.62.62,0,0,0-.17.61v0h0a.61.61,0,0,0,.1.34,6.67,6.67,0,0,0,5.76,2.91,6.92,6.92,0,0,0,5.25-2.21,6.94,6.94,0,0,0,5.25,2.21,7.2,7.2,0,0,0,4.62-1.59V36.66H26.84a.63.63,0,0,0-.63.63.64.64,0,0,0,.63.63h4.52v9.46H27.53a34.09,34.09,0,0,1,.17-5.9h1.18a.63.63,0,0,0,.63-.63.63.63,0,0,0-.63-.63H22a9.7,9.7,0,0,0-2.27-5.35.63.63,0,0,0-.88.9c1,.94,1.63,2.67,2,5.14a34.17,34.17,0,0,1,.23,6.47H14.46a.63.63,0,0,0-.63.63.63.63,0,0,0,.63.63H49.54a.63.63,0,0,0,.63-.63.63.63,0,0,0-.63-.63H42.89a34.17,34.17,0,0,1,.23-6.47c.36-2.47,1-4.2,2-5.14a.63.63,0,0,0-.88-.9A9.7,9.7,0,0,0,42,40.22H35.12a.63.63,0,0,0-.63.63.63.63,0,0,0,.63.63H36.3a34.09,34.09,0,0,1,.17,5.9H32.62V37.92h4.54a.64.64,0,0,0,.63-.63.63.63,0,0,0-.63-.63H32.62V26.12a7.2,7.2,0,0,0,4.62,1.59,6.94,6.94,0,0,0,5.25-2.21,6.94,6.94,0,0,0,5.25,2.21,6.69,6.69,0,0,0,5.74-2.87.66.66,0,0,0,.14-.39Zm-31.39,17h4.21a34.84,34.84,0,0,0-.16,5.9h-3.9A35.71,35.71,0,0,0,22.22,41.48Zm15.35,0h4.21a35.71,35.71,0,0,0-.15,5.9h-3.9A36,36,0,0,0,37.57,41.48Zm9-21.13a40.23,40.23,0,0,1,5,3.47H42.78a20,20,0,0,0-2.24-2.88,27.62,27.62,0,0,0-5.83-4.78A31.11,31.11,0,0,1,46.53,20.35ZM22.6,23.82c1-1.57,3.46-4.78,8.76-7.45v7.45Zm10,0V16.4a26.79,26.79,0,0,1,7,5.36,21.79,21.79,0,0,1,1.69,2.06ZM17.41,20.34a31.14,31.14,0,0,1,11.67-4.16A24.07,24.07,0,0,0,23.14,21a15.3,15.3,0,0,0-2,2.82H12.46A39.32,39.32,0,0,1,17.41,20.34Zm-5.06,4.74h7.79a6,6,0,0,1-3.9,1.37A6,6,0,0,1,12.35,25.08Zm10.49,0h7.8a6.24,6.24,0,0,1-7.8,0Zm10.5,0h7.8a6.24,6.24,0,0,1-7.8,0Zm10.5,0h7.8a6.24,6.24,0,0,1-7.8,0Z"/></svg>