<svg id="Layer_1" data-name="Layer 1" xmlns="http://www.w3.org/2000/svg" viewBox="0 0 64 64"><defs><style>.cls-1{fill:none;stroke:#505050;stroke-linejoin:round;stroke-width:1.5px;}</style></defs><path class="cls-1" d="M45,43.74h2.52c0,2.51,2.51,2.51,2.51,5v.84H14v-.84c0-2.51,2.51-2.51,2.51-5H19"/><path class="cls-1" d="M44.15,39.54H45a.84.84,0,0,1,.84.84V42.9a.84.84,0,0,1-.84.84H19a.84.84,0,0,1-.84-.84V40.38a.84.84,0,0,1,.84-.84H23.2"/><path class="cls-1" d="M19.85,39.54c0-6,5.25-9.22,11.73-9.22s11.74,3.21,11.74,9.22"/><line class="cls-1" x1="31.58" y1="26.97" x2="31.58" y2="30.32"/><line class="cls-1" x1="29.07" y1="26.97" x2="34.1" y2="26.97"/><line class="cls-1" x1="39.96" y1="39.54" x2="44.15" y2="39.54"/><line class="cls-1" x1="31.58" y1="14.4" x2="31.58" y2="20.26"/><line class="cls-1" x1="23.28" y1="17.83" x2="26.55" y2="21.94"/><line class="cls-1" x1="19.85" y1="26.13" x2="24.04" y2="26.97"/><line class="cls-1" x1="39.88" y1="17.83" x2="36.61" y2="21.94"/><line class="cls-1" x1="43.32" y1="26.13" x2="39.12" y2="26.97"/></svg>