<svg id="Layer_1" data-name="Layer 1" xmlns="http://www.w3.org/2000/svg" viewBox="0 0 64 64"><defs><style>.cls-1{fill:none;stroke:#505050;stroke-linejoin:round;stroke-width:1.5px;}</style></defs><circle class="cls-1" cx="25.18" cy="15.64" r="3.64"/><path class="cls-1" d="M26,27.53l4.43,5.68,5.35,1.48a3.29,3.29,0,0,0,4.1-2.43c-1.65-.69-6.84-3.06-6.84-3.06L29.93,25c-2.22-2.85-3.73-2.84-5.09-2.84a3.34,3.34,0,0,0-3.06,4.57l3.76,10.06a4.3,4.3,0,0,0,4.13,2.44"/><path class="cls-1" d="M38.19,34.44l2.07,1.33a4.25,4.25,0,0,1,1.54,2L47,49.27s-3.66.34-5.45-1.82L38.82,42"/><path class="cls-1" d="M12.45,20.18h3.64a2.73,2.73,0,0,1,2.73,2.73V36.55a2.72,2.72,0,0,0,2.73,2.72H33.36A2.73,2.73,0,0,1,36.09,42V52"/><path class="cls-1" d="M38.47,25.64c4.36-5.46-4.47-5.3.91-10.91"/><path class="cls-1" d="M44.38,25.64c4.36-5.46-4.47-5.3.91-10.91"/><path class="cls-1" d="M50.29,25.64c4.36-5.46-4.47-5.3.91-10.91"/></svg>