<svg id="Layer_1" data-name="Layer 1" xmlns="http://www.w3.org/2000/svg" viewBox="0 0 64 64"><defs><style>.cls-1{fill:none;stroke:#505050;stroke-linejoin:round;stroke-width:1.5px;}</style></defs><polyline class="cls-1" points="34.33 20.37 39.75 20.37 39.75 25.8"/><polyline class="cls-1" points="18.05 20.37 12.62 20.37 12.62 50.6 28.12 50.6"/><rect class="cls-1" x="31.22" y="28.9" width="20.15" height="21.7"/><path class="cls-1" d="M20.37,24.25v-5a5.82,5.82,0,0,1,5.82-5.81h0A5.81,5.81,0,0,1,32,19.21v5"/><line class="cls-1" x1="18.82" y1="24.25" x2="21.92" y2="24.25"/><line class="cls-1" x1="30.45" y1="24.25" x2="33.55" y2="24.25"/><path class="cls-1" d="M46,32.78v2.71a4.26,4.26,0,0,1-4.26,4.26h0a4.26,4.26,0,0,1-4.26-4.26V32.78"/><line class="cls-1" x1="47.5" y1="32.78" x2="44.4" y2="32.78"/><line class="cls-1" x1="38.98" y1="32.78" x2="35.88" y2="32.78"/><line class="cls-1" x1="22.7" y1="20.37" x2="29.67" y2="20.37"/></svg>