<svg id="Layer_1" data-name="Layer 1" xmlns="http://www.w3.org/2000/svg" viewBox="0 0 64 64"><defs><style>.cls-1{fill:none;stroke:#505050;stroke-linejoin:round;stroke-width:1.5px;}</style></defs><g id="smart_home" data-name="smart home"><path class="cls-1" d="M45.9,31.49H48V27.88L32.86,16.3a1.55,1.55,0,0,0-1.72,0L16,27.88v3.61H18.1V46.93a1,1,0,0,0,1,1H44.87a1,1,0,0,0,1-1Z"/><polyline class="cls-1" points="39.72 18.61 39.72 16.55 45.9 16.55 45.9 22.73"/><path class="cls-1" d="M28.36,36.6a5.14,5.14,0,0,1,7.28,0"/><path class="cls-1" d="M25.81,34.05a8.76,8.76,0,0,1,12.38,0"/><path class="cls-1" d="M23.26,31.5a12.36,12.36,0,0,1,17.48,0"/><circle class="cls-1" cx="32" cy="40.24" r="1.54"/></g></svg>