<svg id="Layer_1" data-name="Layer 1" xmlns="http://www.w3.org/2000/svg" viewBox="0 0 64 64"><defs><style>.cls-1{fill:#4d4d4d;}</style></defs><path class="cls-1" d="M51.93,18.36a1,1,0,0,0-.49-.84,1,1,0,0,0-1,0,5.5,5.5,0,0,1-4.52.75l-.13-.07a8.87,8.87,0,0,0-10.46-1.41,8.47,8.47,0,0,0-4.61,8l0,.36-.35-.05a21.33,21.33,0,0,1-13.93-7.6,1,1,0,0,0-.83-.35,1,1,0,0,0-.77.48,8.6,8.6,0,0,0-.19,8.5l.2.36-.41.07a1,1,0,0,0-.87,1,8.72,8.72,0,0,0,3,6.58l.25.22-.24.23a1,1,0,0,0-.25,1,8.9,8.9,0,0,0,5,5.38l.62.25-.6.29a15.16,15.16,0,0,1-8.27,1.38H13a1,1,0,0,0-.5,1.81A23.45,23.45,0,0,0,25.1,48.3,23,23,0,0,0,48.44,24.92v-.14l.11-.09C50.23,23.24,51.93,20.73,51.93,18.36Zm-5,5.15a1,1,0,0,0-.42.84,21,21,0,0,1-21.36,22,21.77,21.77,0,0,1-7-1.14l-1.07-.36,1.11-.22a16.94,16.94,0,0,0,7.11-3.19h0a1,1,0,0,0-.58-1.75,7,7,0,0,1-5.47-2.84l-.32-.45.55,0a8.68,8.68,0,0,0,1.68-.27,1,1,0,0,0,.72-1,.94.94,0,0,0-.78-.92,6.87,6.87,0,0,1-5.2-4.67L15.71,29l.52.13a8.75,8.75,0,0,0,1.89.25h0a1,1,0,0,0,.95-.7,1,1,0,0,0-.4-1.09,6.63,6.63,0,0,1-2.84-7.26l.13-.51.37.37a23.34,23.34,0,0,0,15.54,6.94.93.93,0,0,0,.79-.34,1,1,0,0,0,.21-.86,6.52,6.52,0,0,1,3.4-7.43,6.84,6.84,0,0,1,8.35,1.27c.64.69,3.08.74,4.35.45l.64-.15-.31.58A8.64,8.64,0,0,1,46.88,23.51Z"/></svg>