<svg id="Layer_1" data-name="Layer 1" xmlns="http://www.w3.org/2000/svg" viewBox="0 0 64 64"><defs><style>.cls-1{fill:#4d4d4d;}</style></defs><path class="cls-1" d="M45.58,18.44a7.87,7.87,0,0,0-2.83-1.84,11.49,11.49,0,0,0-3.92-.75c-1.78-.09-2.32-.11-6.82-.11s-5,0-6.82.1a11.93,11.93,0,0,0-3.92.75,7.87,7.87,0,0,0-2.83,1.84,8,8,0,0,0-1.84,2.83,12,12,0,0,0-.75,3.93c-.09,1.76-.11,2.34-.11,6.81s0,5,.1,6.81a12,12,0,0,0,.75,3.93,7.94,7.94,0,0,0,1.85,2.83,7.75,7.75,0,0,0,2.82,1.84,12,12,0,0,0,3.93.75c1.78.08,2.37.1,6.81.1s5,0,6.81-.1a11.83,11.83,0,0,0,3.92-.75,8.18,8.18,0,0,0,4.68-4.67,12,12,0,0,0,.75-3.92c.08-1.79.1-2.38.1-6.82s0-5.05-.09-6.81a11.83,11.83,0,0,0-.75-3.92A7.79,7.79,0,0,0,45.58,18.44Zm.21,20.27a9.2,9.2,0,0,1-.59,3.17,5.83,5.83,0,0,1-3.32,3.32,9.64,9.64,0,0,1-3.16.59c-1.79.08-2.32.09-6.71.09s-4.92,0-6.7-.09a9.78,9.78,0,0,1-3.17-.59,5.51,5.51,0,0,1-2-1.31,5.37,5.37,0,0,1-1.3-2,9.64,9.64,0,0,1-.59-3.16c-.07-1.77-.09-2.36-.09-6.7s0-4.94.09-6.71a9.78,9.78,0,0,1,.59-3.17,5.42,5.42,0,0,1,1.32-2,5.48,5.48,0,0,1,2-1.31,9.58,9.58,0,0,1,3.17-.58c1.77-.08,2.36-.1,6.7-.1s4.93,0,6.7.1a9.26,9.26,0,0,1,3.17.59,5.71,5.71,0,0,1,3.31,3.31,9.13,9.13,0,0,1,.59,3.16c.08,1.78.1,2.36.1,6.71S45.87,37,45.79,38.71Z"/><path class="cls-1" d="M32,23.8a8.21,8.21,0,1,0,8.2,8.2A8.21,8.21,0,0,0,32,23.8Zm0,14A5.82,5.82,0,1,1,37.83,32,5.83,5.83,0,0,1,32,37.82Z"/><circle class="cls-1" cx="40.85" cy="23.16" r="1.69"/></svg>