<svg id="Layer_1" data-name="Layer 1" xmlns="http://www.w3.org/2000/svg" viewBox="0 0 64 64"><defs><style>.cls-1{fill:#4d4d4d;}</style></defs><path class="cls-1" d="M13.35,52a.85.85,0,0,1-.85-.85.86.86,0,0,1,.85-.86h3.82a.41.41,0,0,0,.42-.41V46a.42.42,0,0,0-.42-.42,4.68,4.68,0,0,1-4.67-4.68V30.73a4.68,4.68,0,0,1,4.67-4.68h2.55a4.69,4.69,0,0,1,4.68,4.68V40.91a4.69,4.69,0,0,1-4.68,4.68.42.42,0,0,0-.42.42v3.82a.41.41,0,0,0,.42.41h6.73a.41.41,0,0,0,.42-.41v-28a.85.85,0,0,1,.55-.79L50.34,12.1a.81.81,0,0,1,.31,0,.85.85,0,0,1,.48.15.84.84,0,0,1,.37.7V51.1a.85.85,0,0,1-.85.85Zm32.2-6.8a.86.86,0,0,1,.86.86v3.82a.41.41,0,0,0,.42.41h2.54a.41.41,0,0,0,.42-.41V14.76a.42.42,0,0,0-.18-.34.41.41,0,0,0-.24-.08l-.15,0L28.85,22.29a.43.43,0,0,0-.27.39V49.83a.41.41,0,0,0,.42.41h2.55a.41.41,0,0,0,.41-.41V46a.86.86,0,0,1,1.72,0v3.82a.41.41,0,0,0,.41.41H44.28a.41.41,0,0,0,.42-.41V46A.85.85,0,0,1,45.55,45.15ZM18.45,35a.86.86,0,0,1,.85.86v7.64a.42.42,0,0,0,.42.42,3,3,0,0,0,3-3V30.73a3,3,0,0,0-3-3H17.17a3,3,0,0,0-3,3V40.91a3,3,0,0,0,3,3,.42.42,0,0,0,.42-.42V35.82A.87.87,0,0,1,18.45,35Z"/><rect class="cls-1" x="31.96" y="34.96" width="1.71" height="1.71"/><rect class="cls-1" x="38.33" y="34.96" width="1.71" height="1.71"/><rect class="cls-1" x="44.7" y="34.96" width="1.71" height="1.71"/><rect class="cls-1" x="31.96" y="40.06" width="1.71" height="1.71"/><rect class="cls-1" x="38.33" y="40.06" width="1.71" height="1.71"/><rect class="cls-1" x="38.33" y="45.15" width="1.71" height="1.71"/><rect class="cls-1" x="44.7" y="40.06" width="1.71" height="1.71"/><rect class="cls-1" x="31.96" y="24.78" width="1.71" height="1.71"/><rect class="cls-1" x="38.33" y="24.78" width="1.71" height="1.71"/><rect class="cls-1" x="44.7" y="24.78" width="1.71" height="1.71"/><rect class="cls-1" x="44.7" y="19.69" width="1.71" height="1.71"/><rect class="cls-1" x="31.96" y="29.87" width="1.71" height="1.71"/><rect class="cls-1" x="38.33" y="29.87" width="1.71" height="1.71"/><rect class="cls-1" x="44.7" y="29.87" width="1.71" height="1.71"/></svg>