<svg id="Layer_1" data-name="Layer 1" xmlns="http://www.w3.org/2000/svg" viewBox="0 0 64 64"><defs><style>.cls-1{fill:#4d4d4d;}</style></defs><path class="cls-1" d="M26.73,26.32V36.79a1.49,1.49,0,0,0,2.2,1.31l9.65-5.19a1.48,1.48,0,0,0,.78-1.3,1.51,1.51,0,0,0-.77-1.32L28.94,25a1.54,1.54,0,0,0-.72-.18,1.49,1.49,0,0,0-1.49,1.49Zm2,.85,8.09,4.43L28.73,36Z"/><path class="cls-1" d="M46.93,47.75a6.53,6.53,0,0,0,4.46-2.13c1.42-1.54,1.83-4.69,1.84-4.82,0-.41.33-3.77.33-7.14V30.39c0-3.37-.29-6.73-.32-7.1l.28,0h0l-.28,0v0c0-.34-.41-3.38-1.85-4.9a6.91,6.91,0,0,0-4.54-2.12l-.29,0c-5.78-.42-14.47-.48-14.55-.48s-8.79.06-14.63.48l-.24,0a6.76,6.76,0,0,0-4.54,2.18c-1.38,1.51-1.79,4.49-1.83,4.83s-.33,3.77-.33,7.13v3.27c0,3.37.29,6.73.32,7.1s.4,3.34,1.85,4.86a7,7,0,0,0,4.69,2.09l.45.06h.09c3.32.32,13.75.47,14.2.48.1,0,8.8-.06,14.58-.48ZM32.06,46.27c-.44,0-10.73-.17-14-.47l-.54-.07a5,5,0,0,1-3.46-1.46,7.48,7.48,0,0,1-1.32-3.69c0-.15-.31-3.59-.31-6.92V30.39c0-3.36.29-6.75.31-6.9a8,8,0,0,1,1.33-3.71,4.72,4.72,0,0,1,3.26-1.55l.2,0c5.28-.38,12.93-.46,14.42-.48.13,0,8.73.06,14.43.47l.19,0a4.91,4.91,0,0,1,3.36,1.51,7.71,7.71,0,0,1,1.31,3.74s.31,3.54.31,6.91v3.27c0,3.3-.29,6.76-.31,6.9a8.46,8.46,0,0,1-1.33,3.71,4.51,4.51,0,0,1-3.2,1.5l-.26,0C41,46.19,33,46.26,32.06,46.27Z"/></svg>