<svg id="Layer_1" data-name="Layer 1" xmlns="http://www.w3.org/2000/svg" viewBox="0 0 64 64"><defs><style>.cls-1{fill:none;stroke:#505050;stroke-linejoin:round;stroke-width:1.5px;}</style></defs><path class="cls-1" d="M21.61,18.5c-.05,1.36,2.37,2,5.3,2s5.31-.58,5.31-2.59-2.38-2.59-5.31-2.59S21.65,17.13,21.61,18.5Z"/><path class="cls-1" d="M19.26,36c-4.23,1.16-7.11,3.34-7.11,5.21,0,2.44,4.88,4,11.26,4.27"/><path class="cls-1" d="M34.65,27.9a11.56,11.56,0,0,0-3.24-1"/><path class="cls-1" d="M22.32,27c-4,1-6.82,3.47-6.82,5.63,0,2.61,4.12,4.07,9.45,4.29"/><path class="cls-1" d="M43.46,37.42c0,5.52-4.56,10-4.56,10s-4.55-4.48-4.55-10,4.55-10,4.55-10S43.46,31.89,43.46,37.42Z"/><path class="cls-1" d="M34.52,35.56c-2.1-2.09-5.84-2.3-5.84-2.3s-1.37,5.35,1.45,9.27,8.77,4.89,8.77,4.89"/><path class="cls-1" d="M29.53,41.55A9.38,9.38,0,0,0,26,42.81s1.86,4.19,5.45,5.47c1.66.59,5.71.66,7.49-.86"/><path class="cls-1" d="M43.29,35.56c2.1-2.09,5.84-2.3,5.84-2.3s1.37,5.35-1.46,9.27-8.77,4.89-8.77,4.89"/><path class="cls-1" d="M48.28,41.55a9.46,9.46,0,0,1,3.57,1.26S50,47,46.4,48.28c-1.66.59-5.72.66-7.5-.86"/><path class="cls-1" d="M22.59,19.78c-2.85,1-4.56,2.46-4.56,4,0,2.16,3.84,3.62,8.58,3.62s8.59-1,8.59-4.43c0-2.21-1.82-2.63-4.24-3.15"/></svg>