<svg id="Layer_1" data-name="Layer 1" xmlns="http://www.w3.org/2000/svg" viewBox="0 0 64 64"><defs><style>.cls-1{fill:none;stroke:#505050;stroke-linejoin:round;stroke-width:1.5px;}</style></defs><path class="cls-1" d="M32,50.6c8.18,0,12.4-1.77,12.4-1.77s0-11.91,0-14.84a12.64,12.64,0,0,0,7.77-5.69c-.74-1.71-4.55-10-5.85-11.33s-7.49-3.44-8.12-3.57c-.91-.17-1.72,2.66-6.2,2.66s-5.29-2.83-6.2-2.66c-.63.13-6.86,2.24-8.12,3.57s-5.11,9.62-5.85,11.33A12.64,12.64,0,0,0,19.6,34c0,2.93,0,14.84,0,14.84S23.82,50.6,32,50.6"/><line class="cls-1" x1="19.6" y1="33.78" x2="19.6" y2="30.23"/><line class="cls-1" x1="44.4" y1="33.78" x2="44.4" y2="30.23"/><line class="cls-1" x1="29.34" y1="36.43" x2="34.66" y2="36.43"/><polyline class="cls-1" points="29.34 26.69 32 26.69 32 36.43"/></svg>