<svg id="Layer_1" data-name="Layer 1" xmlns="http://www.w3.org/2000/svg" viewBox="0 0 64 64"><defs><style>.cls-1{fill:none;stroke:#505050;stroke-linejoin:round;stroke-width:1.5px;}</style></defs><path class="cls-1" d="M49.18,30.22c.69-.59,1.39-1.23,2.11-2,4.19-4.18,3.48-9.31-.71-13.5"/><path class="cls-1" d="M50.58,14.76c-4.18-4.19-9.31-4.9-13.5-.71-5.35,5.35-6.62,9.37-9.55,20.19a8.93,8.93,0,0,1-2.3,4L13.77,49.68l-1.18.71A2.68,2.68,0,0,0,15,52.76l.71-1.19L27.12,40.11a9,9,0,0,1,4-2.3c4-1.09,7.09-1.94,9.63-2.85"/><path class="cls-1" d="M26.62,36.45a2.29,2.29,0,0,0,2.27,2.27"/><circle class="cls-1" cx="44.75" cy="35.36" r="4.02"/><circle class="cls-1" cx="43.41" cy="35.36" r="0.67"/><circle class="cls-1" cx="46.09" cy="35.36" r="0.67"/></svg>