<svg id="Layer_1" data-name="Layer 1" xmlns="http://www.w3.org/2000/svg" viewBox="0 0 64 64"><defs><style>.cls-1{fill:none;stroke:#505050;stroke-linejoin:round;stroke-width:1.5px;}</style></defs><path class="cls-1" d="M13.76,39.87l4.49-3.69a2.31,2.31,0,0,1,3.25.25l1.68,1.76a2.29,2.29,0,0,0,3.29.2L29,36.22a2.3,2.3,0,0,1,3.24.14l1.91,1.9a2.3,2.3,0,0,0,3.29.09l2.3-2.08a2.29,2.29,0,0,1,3.23,0l2.15,2a2.3,2.3,0,0,0,3.29,0l2.06-2a2.29,2.29,0,0,1,3.23-.07l2.39,2.12"/><path class="cls-1" d="M7.92,48.36l4.49-3.68a2.3,2.3,0,0,1,3.25.24l1.67,1.77a2.31,2.31,0,0,0,3.3.2l2.52-2.17a2.29,2.29,0,0,1,3.24.14l1.91,1.9a2.31,2.31,0,0,0,3.29.09l2.3-2.09a2.3,2.3,0,0,1,3.23,0l2.15,2a2.3,2.3,0,0,0,3.29,0l2.06-2a2.29,2.29,0,0,1,3.23-.07l2.39,2.11"/><path class="cls-1" d="M34.27,18.63a3.19,3.19,0,1,1,6.37,0V35.76"/><path class="cls-1" d="M22.59,18.63a3.19,3.19,0,1,1,6.37,0V36.48"/><line class="cls-1" x1="40.64" y1="23.94" x2="31.08" y2="23.94"/><line class="cls-1" x1="40.64" y1="30.31" x2="31.08" y2="30.31"/></svg>