<svg id="Layer_1" data-name="Layer 1" xmlns="http://www.w3.org/2000/svg" viewBox="0 0 64 64"><defs><style>.cls-1{fill:#4d4d4d;}</style></defs><rect class="cls-1" x="31.19" y="12.67" width="1.61" height="4.03"/><rect class="cls-1" x="31.19" y="47.3" width="1.61" height="4.03"/><rect class="cls-1" x="47.3" y="31.19" width="4.03" height="1.61"/><rect class="cls-1" x="12.67" y="31.19" width="4.03" height="1.61"/><rect class="cls-1" x="15.37" y="22.96" width="1.61" height="4.03" transform="translate(-13.21 29.61) rotate(-66.04)"/><rect class="cls-1" x="14.1" y="38.07" width="4.03" height="1.61" transform="translate(-14.12 9.6) rotate(-23.41)"/><rect class="cls-1" x="46.92" y="36.87" width="1.61" height="4.03" transform="translate(-6.91 67.24) rotate(-66.59)"/><rect class="cls-1" x="45.88" y="24.31" width="4.03" height="1.61" transform="translate(-6.04 21.1) rotate(-23.41)"/><rect class="cls-1" x="23.58" y="47.28" width="4.03" height="1.61" transform="translate(-28.55 54.07) rotate(-68.28)"/><rect class="cls-1" x="36.39" y="15.11" width="4.03" height="1.61" transform="translate(9.41 45.7) rotate(-68.28)"/><rect class="cls-1" x="37.74" y="46.02" width="1.61" height="4.03" transform="translate(-15.3 18.14) rotate(-22.21)"/><rect class="cls-1" x="24.65" y="13.96" width="1.61" height="4.03" transform="translate(-4.15 10.8) rotate(-22.21)"/><rect class="cls-1" x="41.97" y="17.86" width="8.05" height="1.61" transform="translate(-0.18 36.9) rotate(-43.64)"/><rect class="cls-1" x="13.98" y="44.53" width="8.05" height="1.61" transform="translate(-26.29 24.9) rotate(-43.58)"/><rect class="cls-1" x="17.86" y="13.98" width="1.61" height="8.05" transform="translate(-7.27 17.84) rotate(-43.6)"/><rect class="cls-1" x="44.53" y="41.97" width="1.61" height="8.05" transform="translate(-19.22 43.95) rotate(-43.6)"/><path class="cls-1" d="M32,19.59A12.41,12.41,0,1,0,44.41,32,12.43,12.43,0,0,0,32,19.59Zm3.19,2.09a6.52,6.52,0,0,0-.48,1.39,3.48,3.48,0,0,0,.42,2.4l2.18,3.8,0,0h0a7.41,7.41,0,0,1,.95,3.92,6.29,6.29,0,1,1-12.58,0,7.19,7.19,0,0,1,.93-3.88s0,0,0,0l0-.06,2.16-3.78a3.49,3.49,0,0,0,.37-2.67,7,7,0,0,0-.42-1.13,10.84,10.84,0,0,1,6.38,0ZM32,42.8a10.79,10.79,0,0,1-4.69-20.51,4.76,4.76,0,0,1,.36.94,2,2,0,0,1-.2,1.45l-2.15,3.75a8.93,8.93,0,0,0-1.22,4.81,7.9,7.9,0,0,0,15.8,0,9,9,0,0,0-1.23-4.82l-2.14-3.75a1.81,1.81,0,0,1-.24-1.28,4.43,4.43,0,0,1,.4-1.1A10.79,10.79,0,0,1,32,42.8Z"/></svg>