<svg id="Layer_1" data-name="Layer 1" xmlns="http://www.w3.org/2000/svg" viewBox="0 0 64 64"><defs><style>.cls-1{fill:none;stroke:#505050;stroke-linejoin:round;stroke-width:1.5px;}</style></defs><path class="cls-1" d="M22.2,34.74V20.63a4.7,4.7,0,0,1,4.7-4.71H37.1a4.7,4.7,0,0,1,4.7,4.71V34.74"/><path class="cls-1" d="M25.33,26.12V22.2a3.15,3.15,0,0,1,3.14-3.14h.79"/><path class="cls-1" d="M19.85,26.9h-.79l-1.95.78a3.14,3.14,0,0,0-2,2.91v8.86a2.35,2.35,0,0,0,2.35,2.35h29a2.35,2.35,0,0,0,2.35-2.35V30.59a3.14,3.14,0,0,0-2-2.91l-2-.78h-.79"/><line class="cls-1" x1="32.39" y1="44.15" x2="32.39" y2="47.29"/><polyline class="cls-1" points="26.9 48.08 28.47 47.29 36.31 47.29 37.88 48.08"/><line class="cls-1" x1="25.33" y1="27.69" x2="25.33" y2="29.26"/><path class="cls-1" d="M44.87,35.53A39.56,39.56,0,0,0,32,33.44a39.57,39.57,0,0,0-12.91,2.09"/></svg>