<svg id="Layer_1" data-name="Layer 1" xmlns="http://www.w3.org/2000/svg" viewBox="0 0 64 64"><defs><style>.cls-1{fill:#4d4d4d;}</style></defs><path class="cls-1" d="M52.58,30.07a.59.59,0,0,0-.6-.59H46.12l.37-.27c.12-.1.25-.19.37-.3A6.59,6.59,0,0,0,49.08,25l.86-5.33a.63.63,0,0,0-.14-.48.57.57,0,0,0-.45-.21H35.86a.58.58,0,0,0-.59.69l.35,2.16L26.7,24.06a.61.61,0,0,0-.43.73.61.61,0,0,0,.27.36.56.56,0,0,0,.45.07l6.23-1.59.26.89a3.65,3.65,0,0,0,1.79,2.24,3.7,3.7,0,0,0,1.58.46h.08l0,.07a6.48,6.48,0,0,0,1.73,1.92l.37.27H12a.59.59,0,0,0-.6.59v4.08a.6.6,0,0,0,.6.6h3.67v12.7a.59.59,0,0,0,.59.6H48.22a.59.59,0,0,0,.59-.6V34.75H52a.6.6,0,0,0,.6-.6ZM37.06,26a2.53,2.53,0,0,1-2.44-1.84l-.24-.86,4.93-1.26.21.8a2.53,2.53,0,0,1-1.75,3.06A2.44,2.44,0,0,1,37.06,26Zm1.29,1.17L38.23,27l.18-.07a3.72,3.72,0,0,0,2.26-4.4l-.35-1.37a.61.61,0,0,0-.27-.36.6.6,0,0,0-.45-.07l-2.82.72-.22-1.36H48.65l-.75,4.64a5.37,5.37,0,0,1-9.55,2.43Zm9.27,19.66H16.88V43.43H47.62Zm0-4.62H16.88V39.08H47.62Zm0-4.36H16.88V34.75H47.62Zm3.77-4.33H12.61V30.67H51.39Z"/><path class="cls-1" d="M39.62,17.05a.59.59,0,0,0,.6-.59c0-.16.1-.25.39-.47a1.73,1.73,0,0,0,.86-1.41,1.74,1.74,0,0,0-.86-1.42c-.29-.22-.39-.31-.39-.47s.09-.24.39-.46a1.74,1.74,0,0,0,.86-1.42.58.58,0,0,0-.59-.59.59.59,0,0,0-.6.59c0,.16-.09.24-.39.46A1.74,1.74,0,0,0,39,12.69a1.74,1.74,0,0,0,.86,1.42c.31.23.39.31.39.47s-.09.24-.39.46A1.74,1.74,0,0,0,39,16.46.58.58,0,0,0,39.62,17.05Z"/><path class="cls-1" d="M44.33,17.05a.58.58,0,0,0,.59-.59c0-.16.09-.24.39-.47a1.72,1.72,0,0,0,.87-1.41,1.74,1.74,0,0,0-.86-1.42c-.31-.23-.4-.32-.4-.47s.1-.24.39-.46h0a1.74,1.74,0,0,0,.86-1.42.59.59,0,0,0-.6-.59.58.58,0,0,0-.59.59c0,.16-.1.24-.39.46a1.72,1.72,0,0,0-.87,1.42,1.72,1.72,0,0,0,.87,1.42c.29.22.39.31.39.47s-.1.24-.39.46a1.72,1.72,0,0,0-.87,1.42A.59.59,0,0,0,44.33,17.05Z"/></svg>