<svg id="Layer_1" data-name="Layer 1" xmlns="http://www.w3.org/2000/svg" viewBox="0 0 64 64"><defs><style>.cls-1{fill:none;stroke:#505050;stroke-linejoin:round;stroke-width:1.5px;}</style></defs><path class="cls-1" d="M13.29,20.53h11.5a4.82,4.82,0,0,1,4.32,2.67l5.14,10.29A7.12,7.12,0,0,1,35,36.73V49.51a1.21,1.21,0,0,1-1.21,1.2H30.19A1.21,1.21,0,0,1,29,49.51V47.09H13.29"/><path class="cls-1" d="M31.4,27.77h2.41A1.21,1.21,0,0,1,35,29v1.21L30.19,32.6H13.29"/><circle class="cls-1" cx="28.38" cy="39.24" r="3.02"/><polygon class="cls-1" points="47.7 15.7 41.66 15.7 41.05 13.29 48.3 13.29 47.7 15.7"/><path class="cls-1" d="M47.38,15.7H42a3.58,3.58,0,0,0-.92,2.42,3.62,3.62,0,1,0,6.32-2.42Z"/><path class="cls-1" d="M48.3,37.43h2.41V27.77a3.62,3.62,0,0,0-3.62-3.62l-2.41,3.62-2.42-3.62a3.62,3.62,0,0,0-3.62,3.62v9.66h2.42"/><polyline class="cls-1" points="48.3 30.19 48.3 50.72 41.05 50.72 41.05 30.19"/><line class="cls-1" x1="44.68" y1="39.85" x2="44.68" y2="50.71"/></svg>