<svg id="Layer_1" data-name="Layer 1" xmlns="http://www.w3.org/2000/svg" viewBox="0 0 64 64"><defs><style>.cls-1{fill:#4d4d4d;}</style></defs><path class="cls-1" d="M50.29,25.68a19.52,19.52,0,0,0-3.72-6.41,19.36,19.36,0,0,0-20.89-5.56,19.52,19.52,0,0,0-6.41,3.72,19.36,19.36,0,0,0-5.56,20.89,19.52,19.52,0,0,0,3.72,6.41,19.36,19.36,0,0,0,20.89,5.56,19.52,19.52,0,0,0,6.41-3.72,19.22,19.22,0,0,0,4.64-6l0-.05a.14.14,0,0,0,0-.06A19.06,19.06,0,0,0,51.32,33,19.36,19.36,0,0,0,50.29,25.68Zm-10.36-10a18.94,18.94,0,0,1,3.2,2,18.35,18.35,0,0,1-.67,21.2,18.08,18.08,0,0,1-4.23-1.84A18.5,18.5,0,0,0,40,34.15a21,21,0,0,0,2-8.23,19.65,19.65,0,0,0-2.29-10.31Zm-2.12-.87h0c4.22,6,3.92,15.59-.62,21.55a17.94,17.94,0,0,1-4.5-4.45,19.16,19.16,0,0,0,1.74-9.66,19.49,19.49,0,0,0-2.68-8.4A18.09,18.09,0,0,1,37.81,14.83ZM15.7,24.07A18.16,18.16,0,0,1,30.37,14a18.25,18.25,0,0,1,1.74,3.48A18.82,18.82,0,0,0,21,20a20.19,20.19,0,0,0-5.72,5Q15.48,24.54,15.7,24.07Zm-1.64,5.32c3.08-7,11-11.63,18.44-10.69h0a18.49,18.49,0,0,1,.71,6,20,20,0,0,0-11.5,2.56,19.57,19.57,0,0,0-7.67,7.44A18.24,18.24,0,0,1,14.06,29.39Zm.42,7.21v0c.09-.18.17-.37.26-.55,3.12-6.42,11.17-10.87,18.41-10.15a18.19,18.19,0,0,1-1.55,5.54,19.28,19.28,0,0,0-9.24,3.33A19.75,19.75,0,0,0,19.68,37a.75.75,0,0,0-.15.16,19.24,19.24,0,0,0-3.1,4.13A18.13,18.13,0,0,1,14.48,36.6Zm9.59,11.7a18,18,0,0,1-6.88-5.86,17.76,17.76,0,0,1,2.68-3.88A20.93,20.93,0,0,0,36.1,49.64,18,18,0,0,1,24.07,48.3Zm15.57.13a19.41,19.41,0,0,1-18.87-10.8A17.91,17.91,0,0,1,24.27,35a19.78,19.78,0,0,0,8.2,8.94,19.65,19.65,0,0,0,10,2.83A19.51,19.51,0,0,1,39.64,48.43Zm4.51-3c-7.37.88-15.79-4-18.79-11v0a18.11,18.11,0,0,1,6.35-1.78A19.35,19.35,0,0,0,39.2,39a19.57,19.57,0,0,0,8.61,1.87A17.72,17.72,0,0,1,44.15,45.44Zm4.3-5.83a17.89,17.89,0,0,1-4.69-.38,16.85,16.85,0,0,0,1.7-2.8,19.37,19.37,0,0,0,1.91-7.87,19.86,19.86,0,0,0-1.4-8.1A18.15,18.15,0,0,1,48.45,39.61Z"/></svg>