<svg id="Layer_1" data-name="Layer 1" xmlns="http://www.w3.org/2000/svg" viewBox="0 0 64 64"><defs><style>.cls-1{fill:none;stroke:#505050;stroke-linejoin:round;stroke-width:1.5px;}</style></defs><path class="cls-1" d="M22.88,23.64a30.55,30.55,0,0,0-10.35,5.65c3.25,11.87,9.88,18.77,19.18,19.88A8.94,8.94,0,0,0,34,45.68"/><path class="cls-1" d="M19.47,37.19c.29.82,1.78,1,3.16.52a3.46,3.46,0,0,0,2.29-1.92"/><path class="cls-1" d="M38.4,45.68c9.07-4.37,14-11.58,12.93-28.46A36.27,36.27,0,0,0,38.4,14.64a36.33,36.33,0,0,0-12.94,2.58C24.42,34.1,29.33,41.31,38.4,45.68Z"/><path class="cls-1" d="M44.43,34.47a21.61,21.61,0,0,1-12.07,0c-.57-.21,2.35,5.17,6,5.17S45,34.26,44.43,34.47Z"/><path class="cls-1" d="M40.12,28.43c0-1.26,1.29-2.58,3.45-2.58s4.31,1.55,4.31,2.58"/><path class="cls-1" d="M28.91,28.43c0-1,2.16-2.58,4.31-2.58s3.45,1.32,3.45,2.58"/></svg>