<svg id="Layer_1" data-name="Layer 1" xmlns="http://www.w3.org/2000/svg" viewBox="0 0 64 64"><defs><style>.cls-1{fill:#4d4d4d;}</style></defs><path class="cls-1" d="M23.8,16.25a3.45,3.45,0,1,0,3.44,3.45A3.45,3.45,0,0,0,23.8,16.25Zm0,5.47a2,2,0,1,1,2-2A2,2,0,0,1,23.8,21.72Z"/><path class="cls-1" d="M40.75,16l-2.23-2.23a.73.73,0,0,0-1,0L35,16.25H32L32,16.13a8.92,8.92,0,1,0,0,7.13l.05-.12H49a.88.88,0,0,0,.32-.07l5.47-2.74a.72.72,0,0,0,.19-1.14l-5.47-5.47a.73.73,0,0,0-1,0L46.22,16,44,13.72a.73.73,0,0,0-1,0Zm5,1.51a.7.7,0,0,0,1,0L49,15.23l4.27,4.27-4.48,2.22H31.53a.71.71,0,0,0-.67.47,7.5,7.5,0,1,1,0-5,.71.71,0,0,0,.67.47h3.75a.67.67,0,0,0,.5-.21L38,15.23l2.23,2.23a.7.7,0,0,0,1,0l2.23-2.23Z"/><path class="cls-1" d="M44.4,44.69a.71.71,0,1,0,.71.71A.71.71,0,0,0,44.4,44.69Z"/><path class="cls-1" d="M55,37.61A6.17,6.17,0,0,0,46.55,36l-5.39,3.58-.11-.18a3.44,3.44,0,0,0-3-1.76H33.62a2.06,2.06,0,0,1-1.34-.49l-.64-.57a9,9,0,0,0-11.78,0l-1.38,1.21-2.72,1.93v-.91a.71.71,0,0,0-.71-.72H9.58a.71.71,0,0,0-.71.72V52.51a.71.71,0,0,0,.71.71h5.47a.71.71,0,0,0,.71-.71V50h3.06l15.77,3.18a.77.77,0,0,0,.57-.13l6.36-4.68a.71.71,0,1,0-.85-1.14l-6.1,4.49-.09,0L19.06,48.62h-3.3V41.49l.08-.06,1.92-1.34a20.16,20.16,0,0,0,2.78-2.18l.26-.23a7.52,7.52,0,0,1,9.9,0l.64.56a3.42,3.42,0,0,0,2.28.85h4.44a2,2,0,0,1,0,4H27.12a.71.71,0,1,0,0,1.42H38.06A3.46,3.46,0,0,0,41.5,41.2v-.11l.09-.05,5.75-3.82a4.75,4.75,0,0,1,5.89.51l.17.16L47.28,42.4a.71.71,0,0,0,.84,1.14l6.73-4.94A.71.71,0,0,0,55,37.61ZM14.33,51.8h-4V39.55h4Z"/></svg>