<svg id="Layer_1" data-name="Layer 1" xmlns="http://www.w3.org/2000/svg" viewBox="0 0 64 64"><defs><style>.cls-1{fill:none;stroke:#4d4d4d;stroke-miterlimit:10;stroke-width:1.3px;}</style></defs><line class="cls-1" x1="21.85" y1="41.87" x2="27.67" y2="41.87"/><path class="cls-1" d="M26.84,19.43H45.12a2.5,2.5,0,0,1,2.5,2.49V45.2"/><path class="cls-1" d="M16.86,13.61H35.15a2.5,2.5,0,0,1,2.49,2.5v1.66"/><path class="cls-1" d="M32.65,49.35A3.32,3.32,0,0,1,29.33,46V21.92a2.5,2.5,0,0,0-5,0V39.38a2.5,2.5,0,0,1-5,0V16.11a2.49,2.49,0,1,0-5,0V18.6h3.32"/><path class="cls-1" d="M36,46V45.2H52.6V46a3.32,3.32,0,0,1-3.32,3.32H32.65A3.32,3.32,0,0,0,36,46Z"/><rect class="cls-1" x="32.65" y="28.57" width="4.16" height="4.16" rx="2"/><rect class="cls-1" x="40.13" y="34.39" width="4.16" height="4.16" rx="2"/><line class="cls-1" x1="35.15" y1="39.38" x2="41.8" y2="27.74"/></svg>