<svg id="Layer_1" data-name="Layer 1" xmlns="http://www.w3.org/2000/svg" viewBox="0 0 64 64"><defs><style>.cls-1{fill:#4d4d4d;}</style></defs><path class="cls-1" d="M49.44,23.91H44.29v5.16h5.15Zm-1,4.11h-3V25h3Z"/><path class="cls-1" d="M49.44,31.48H44.29v5.16h5.15Zm-1,4.11h-3V32.53h3Z"/><path class="cls-1" d="M49.44,39.06H44.29v5.16h5.15Zm-1,4.11h-3V40.11h3Z"/><path class="cls-1" d="M19.71,23.91H14.56v5.16h5.15ZM18.66,28H15.61V25h3.05Z"/><path class="cls-1" d="M19.71,31.48H14.56v5.16h5.15Zm-1.05,4.11H15.61V32.53h3.05Z"/><path class="cls-1" d="M19.71,39.06H14.56v5.16h5.15Zm-1.05,4.11H15.61V40.11h3.05Z"/><path class="cls-1" d="M30.79,16.44H25.63v5.15h5.16Zm-1.05,4.1H26.68V17.49h3.06Z"/><path class="cls-1" d="M38.37,16.44H33.21v5.15h5.16Zm-1,4.1H34.26V17.49h3.06Z"/><path class="cls-1" d="M30.79,24H25.63v5.15h5.16Zm-1.05,4.1H26.68V25.06h3.06Z"/><path class="cls-1" d="M38.37,24H33.21v5.15h5.16Zm-1,4.1H34.26V25.06h3.06Z"/><path class="cls-1" d="M30.79,31.59H25.63v5.15h5.16Zm-1.05,4.1H26.68v-3h3.06Z"/><path class="cls-1" d="M38.37,31.59H33.21v5.15h5.16Zm-1,4.1H34.26v-3h3.06Z"/><path class="cls-1" d="M52.71,50.53V20.44H42.07v-8H21.93v8H11.29V50.53H8.56v1H55.44v-1Zm-30.78,0H12.34v-29h9.59Zm12.56,0h-5V42.45h5Zm6.53,0H35.54V41.4H28.46v9.13H23V13.47H41Zm10.64,0H42.07v-29h9.59Z"/></svg>