<svg id="Layer_1" data-name="Layer 1" xmlns="http://www.w3.org/2000/svg" viewBox="0 0 64 64"><defs><style>.cls-1{fill:none;stroke:#505050;stroke-linejoin:round;stroke-width:1.5px;}</style></defs><path class="cls-1" d="M26.66,38.58a3.46,3.46,0,0,0,3.28-3.29v-7.4c0-2.72-5.36-4.11-8.22-4.11s-8.22,1.39-8.22,4.11v7.4a3.47,3.47,0,0,0,3.29,3.29"/><path class="cls-1" d="M36.52,40.22c1.6,0,3.29-.87,3.29-2.46v-7.4c0-2.72-4.83-4.12-7.4-4.12a8.17,8.17,0,0,0-.82.05"/><path class="cls-1" d="M21.72,21.31A3.15,3.15,0,0,0,25,18V16.38a3.15,3.15,0,0,0-3.29-3.29,3.16,3.16,0,0,0-3.29,3.29V18A3.16,3.16,0,0,0,21.72,21.31Z"/><line class="cls-1" x1="36.52" y1="50.91" x2="36.52" y2="32"/><path class="cls-1" d="M47.21,43.51c1.6,0,3.29-.87,3.29-2.47v-7.4c0-2.71-4.83-4.11-7.4-4.11a10.08,10.08,0,0,0-1.64.15"/><line class="cls-1" x1="47.21" y1="50.91" x2="47.21" y2="35.29"/><line class="cls-1" x1="26.66" y1="50.91" x2="26.66" y2="29.53"/><line class="cls-1" x1="16.79" y1="29.53" x2="16.79" y2="50.91"/><line class="cls-1" x1="21.72" y1="37.76" x2="21.72" y2="50.91"/><path class="cls-1" d="M32.41,23.78a3.16,3.16,0,0,0,3.29-3.29V18.84a3.29,3.29,0,0,0-6.58,0v1.65A3.16,3.16,0,0,0,32.41,23.78Z"/><path class="cls-1" d="M43.92,27.07a3.16,3.16,0,0,0,3.29-3.29V22.13a3.29,3.29,0,1,0-6.58,0v1.65A3.16,3.16,0,0,0,43.92,27.07Z"/></svg>