<svg id="Layer_1" data-name="Layer 1" xmlns="http://www.w3.org/2000/svg" viewBox="0 0 64 64"><defs><style>.cls-1{fill:#4d4d4d;}</style></defs><path class="cls-1" d="M36.2,49H34.26a.65.65,0,0,1,0-1.3H36.2a.65.65,0,1,1,0,1.3Z"/><path class="cls-1" d="M23.24,49H14.42a5.22,5.22,0,0,1-5.21-5.22l0-29.35a5.17,5.17,0,0,1,5.16-5.19h1.39a.66.66,0,0,1,.66.65V39.25a.66.66,0,0,1-.66.65h-1.3a3.92,3.92,0,0,0,0,7.83h8.82a.65.65,0,0,1,0,1.3ZM14.35,10.57a3.88,3.88,0,0,0-3.88,3.87h0l0,25.92a5.24,5.24,0,0,1,3.92-1.77h.65v-28Z"/><path class="cls-1" d="M29.7,49H27.8a.65.65,0,0,1,0-1.3h1.9a.65.65,0,0,1,0,1.3Z"/><path class="cls-1" d="M54.18,49H40.76a.65.65,0,0,1,0-1.3H53.53V15.79H15.72a.66.66,0,0,1-.65-.66.65.65,0,0,1,.65-.65H54.18a.65.65,0,0,1,.65.65V48.38A.65.65,0,0,1,54.18,49Z"/><path class="cls-1" d="M49,45.12h-28a.65.65,0,0,1-.65-.65V19a.65.65,0,0,1,.65-.65H49a.65.65,0,0,1,.65.65V44.47A.65.65,0,0,1,49,45.12ZM21.57,43.81H48.3V19.7H21.57Z"/><path class="cls-1" d="M49,27.84H46.89a.65.65,0,0,1,0-1.3H49a.65.65,0,0,1,0,1.3Z"/><path class="cls-1" d="M43.73,27.84H40.47a.65.65,0,0,1-.65-.65V19a.65.65,0,0,1,.65-.65.66.66,0,0,1,.66.65v7.5h2.6a.65.65,0,1,1,0,1.3Z"/><path class="cls-1" d="M28.9,29.31h-8a.65.65,0,1,1,0-1.3h7.33V26.54a.65.65,0,0,1,.65-.65.66.66,0,0,1,.66.65v2.12A.66.66,0,0,1,28.9,29.31Z"/><path class="cls-1" d="M28.9,25.24a.65.65,0,0,1-.65-.65V23.5a.65.65,0,0,1,.65-.65.66.66,0,0,1,.66.65v1.09A.66.66,0,0,1,28.9,25.24Z"/><path class="cls-1" d="M28.9,21.54a.65.65,0,0,1-.65-.65V19a.65.65,0,0,1,.65-.65.66.66,0,0,1,.66.65v1.85A.66.66,0,0,1,28.9,21.54Z"/><path class="cls-1" d="M28.39,37H20.92a.65.65,0,1,1,0-1.3h7.47a.65.65,0,1,1,0,1.3Z"/><path class="cls-1" d="M37.21,37H31.84a.65.65,0,1,1,0-1.3h5.37a.65.65,0,1,1,0,1.3Z"/><path class="cls-1" d="M41.78,37H40.47a.65.65,0,1,1,0-1.3h1.31a.65.65,0,1,1,0,1.3Z"/><path class="cls-1" d="M49,37H44.38a.65.65,0,1,1,0-1.3H49A.65.65,0,1,1,49,37Z"/><path class="cls-1" d="M34.93,45.12a.65.65,0,0,1-.65-.65V36.32a.65.65,0,0,1,.65-.65.66.66,0,0,1,.66.65v8.15A.66.66,0,0,1,34.93,45.12Z"/></svg>