<svg id="Layer_1" data-name="Layer 1" xmlns="http://www.w3.org/2000/svg" viewBox="0 0 64 64"><defs><style>.cls-1,.cls-2{fill:#4d4d4d;}.cls-2{fill-rule:evenodd;}</style></defs><path class="cls-1" d="M43.87,12.42H17.49a.45.45,0,0,0-.45.46V51.12a.45.45,0,0,0,.45.46H43.87A3.1,3.1,0,0,0,47,48.49v-33A3.1,3.1,0,0,0,43.87,12.42Zm2.18,36.07a2.19,2.19,0,0,1-2.18,2.18H18V13.33H43.87a2.19,2.19,0,0,1,2.18,2.18Z"/><path class="cls-1" d="M39.25,16.38H24.75a.45.45,0,0,0-.46.45.46.46,0,0,0,.46.46h14.5a.46.46,0,0,0,.46-.46A.45.45,0,0,0,39.25,16.38Z"/><path class="cls-1" d="M33.32,42.75H30.68a1.79,1.79,0,0,0-1.78,1.78v2.64a1.78,1.78,0,0,0,1.78,1.77h2.64a1.78,1.78,0,0,0,1.78-1.77V44.53A1.79,1.79,0,0,0,33.32,42.75Zm.86,2.64h-.86a.46.46,0,0,0,0,.92h.86v.86a.87.87,0,0,1-.86.86H30.68a.87.87,0,0,1-.86-.86v-.86h.86a.46.46,0,0,0,0-.92h-.86v-.86a.86.86,0,0,1,.86-.86h2.64a.86.86,0,0,1,.86.86Z"/><path class="cls-1" d="M37.93,40.12H26.07a.45.45,0,0,0-.46.45.46.46,0,0,0,.46.46H37.93a.46.46,0,0,0,.46-.46A.45.45,0,0,0,37.93,40.12Z"/><path class="cls-2" d="M35.69,29.49l-.57.58L35,29.26l-.74-.36.74-.37.12-.81.57.59.81-.14-.38.73.38.72Zm-1.6,1.09a3.71,3.71,0,1,1,0-3.59,2.85,2.85,0,0,0-2.25-1.09,2.89,2.89,0,1,0,0,5.77,2.85,2.85,0,0,0,2.25-1.09Z"/><path class="cls-1" d="M32,21.16a7.63,7.63,0,1,0,7.62,7.63A7.63,7.63,0,0,0,32,21.16Zm6.72,7.63A6.72,6.72,0,1,1,32,22.06,6.73,6.73,0,0,1,38.72,28.79Z"/></svg>