<svg id="Layer_1" data-name="Layer 1" xmlns="http://www.w3.org/2000/svg" viewBox="0 0 64 64"><defs><style>.cls-1{fill:#505050;}</style></defs><path class="cls-1" d="M32.14,34.39a.71.71,0,0,1-.32-.07l-20.4-8.54a.83.83,0,0,1,0-1.52l20.13-8.82a.82.82,0,0,1,.65,0L52.58,24a.83.83,0,0,1,0,1.52L32.47,34.32A.93.93,0,0,1,32.14,34.39ZM13.84,25l18.29,7.66,18-7.91L31.87,17.09Z"/><path class="cls-1" d="M23.65,43.27H22V29.66a.84.84,0,0,1,.45-.74l9.18-4.78.76,1.47-8.73,4.55Z"/><path class="cls-1" d="M25.78,51.13H19.85A.83.83,0,0,1,19,50.3V46.24a3.79,3.79,0,1,1,7.58,0V50.3A.83.83,0,0,1,25.78,51.13Zm-5.1-1.66H25V46.24a2.14,2.14,0,0,0-4.28,0Z"/><path class="cls-1" d="M32.14,40.16c-7.17,0-13.57-2.29-15.95-5.71a.86.86,0,0,1-.14-.47V27.19H17.7v6.52c2.17,2.83,8.05,4.8,14.44,4.8s12.27-2,14.44-4.8V26.87h1.65V34a.86.86,0,0,1-.14.47C45.71,37.87,39.31,40.16,32.14,40.16Z"/></svg>