<svg id="Layer_1" data-name="Layer 1" xmlns="http://www.w3.org/2000/svg" viewBox="0 0 64 64"><defs><style>.cls-1{fill:#505050;}</style></defs><path class="cls-1" d="M31.77,42a13,13,0,1,1,13.05-13A13.06,13.06,0,0,1,31.77,42Zm0-24.46A11.42,11.42,0,1,0,43.19,28.93,11.43,11.43,0,0,0,31.77,17.51Z"/><path class="cls-1" d="M53.17,51.14a.8.8,0,0,1-.57-.24L39.84,38.15A.82.82,0,0,1,41,37L53.75,49.75a.81.81,0,0,1,0,1.15A.82.82,0,0,1,53.17,51.14Z"/><path class="cls-1" d="M12.65,34.94a.81.81,0,0,1-.81-.81V33a.82.82,0,0,1,.81-.82.82.82,0,0,1,.82.82v1.09A.82.82,0,0,1,12.65,34.94Z"/><path class="cls-1" d="M9,34.94a.82.82,0,0,1-.82-.81v-3.7A.82.82,0,0,1,9,29.62a.81.81,0,0,1,.81.81v3.7A.81.81,0,0,1,9,34.94Z"/><path class="cls-1" d="M16.46,34.94a.82.82,0,0,1-.82-.81V28.47a.82.82,0,0,1,.82-.81.81.81,0,0,1,.81.81v5.66A.81.81,0,0,1,16.46,34.94Z"/><path class="cls-1" d="M24.07,34.94a.82.82,0,0,1-.82-.81V28.58a.82.82,0,0,1,.82-.81.81.81,0,0,1,.81.81v5.55A.81.81,0,0,1,24.07,34.94Z"/><path class="cls-1" d="M28.09,34.94a.82.82,0,0,1-.82-.81v-7.5a.82.82,0,0,1,.82-.82.82.82,0,0,1,.81.82v7.5A.81.81,0,0,1,28.09,34.94Z"/><path class="cls-1" d="M32.11,34.94a.82.82,0,0,1-.82-.81V21.63a.82.82,0,0,1,.82-.82.82.82,0,0,1,.81.82v12.5A.81.81,0,0,1,32.11,34.94Z"/><path class="cls-1" d="M36,34.94a.81.81,0,0,1-.81-.81V21.63a.82.82,0,0,1,.81-.82.82.82,0,0,1,.82.82v12.5A.82.82,0,0,1,36,34.94Z"/><path class="cls-1" d="M40,34.94a.81.81,0,0,1-.81-.81V28.37a.82.82,0,0,1,.81-.82.82.82,0,0,1,.82.82v5.76A.82.82,0,0,1,40,34.94Z"/><path class="cls-1" d="M47.32,34.94a.81.81,0,0,1-.81-.81V28.91a.82.82,0,0,1,.81-.82.82.82,0,0,1,.82.82v5.22A.82.82,0,0,1,47.32,34.94Z"/><path class="cls-1" d="M51.13,34.94a.82.82,0,0,1-.82-.81V25a.82.82,0,0,1,.82-.82.82.82,0,0,1,.81.82v9.13A.81.81,0,0,1,51.13,34.94Z"/><path class="cls-1" d="M55,34.94a.81.81,0,0,1-.81-.81V27.28a.82.82,0,0,1,.81-.82.82.82,0,0,1,.82.82v6.85A.82.82,0,0,1,55,34.94Z"/></svg>