<svg id="Layer_1" data-name="Layer 1" xmlns="http://www.w3.org/2000/svg" viewBox="0 0 64 64"><defs><style>.cls-1{fill:#4d4d4d;stroke:#4d4d4d;stroke-miterlimit:10;stroke-width:0.5px;}</style></defs><path class="cls-1" d="M31.46,48.84a.63.63,0,0,0,1.08,0L43.4,30A13.16,13.16,0,0,0,20.6,16.87,13,13,0,0,0,20.6,30ZM21.68,17.5A11.91,11.91,0,0,1,42.32,29.41L32,47.28,21.68,29.41A11.8,11.8,0,0,1,21.68,17.5Z"/><path class="cls-1" d="M32,32.45a9.19,9.19,0,1,0-9.19-9.19A9.2,9.2,0,0,0,32,32.45Zm0-17.13a7.94,7.94,0,1,1-7.94,7.94A7.95,7.95,0,0,1,32,15.32Z"/><path class="cls-1" d="M39.07,42.86a.64.64,0,0,0-.69.57.63.63,0,0,0,.57.68c7.84.76,12.07,2.63,12.07,4,0,1.64-6.25,4.12-17.56,4.33H30.54C19.23,52.24,13,49.76,13,48.12c0-1.38,4.23-3.25,12.07-4a.63.63,0,0,0,.57-.68.64.64,0,0,0-.69-.57c-3.09.3-13.2,1.56-13.2,5.26s9.74,5.41,18.79,5.58h3c9-.17,18.78-2,18.78-5.58S42.16,43.16,39.07,42.86Z"/></svg>