<svg id="Layer_1" data-name="Layer 1" xmlns="http://www.w3.org/2000/svg" viewBox="0 0 64 64"><defs><style>.cls-1{fill:#4d4d4d;}</style></defs><path class="cls-1" d="M53.88,23.89a1.65,1.65,0,0,0-1.3-.63H49.32L51,16.19a1.75,1.75,0,0,0-.33-1.51A1.78,1.78,0,0,0,49.3,14H43.13V12.51H44a.66.66,0,0,0,.67-.66.67.67,0,0,0-.67-.67H41a.67.67,0,0,0-.67.67.66.66,0,0,0,.67.66h.84V14H35.31a1.78,1.78,0,0,0-1.4.68,1.75,1.75,0,0,0-.33,1.51l1.72,7.07H32a1.65,1.65,0,0,0-1.61,2l1.77,7.3a1.65,1.65,0,0,0,1.44,1.25v3.71H15.42a2.47,2.47,0,0,0-1.76.74L10,42.09a.7.7,0,0,0-.19.47v7.79a3.55,3.55,0,0,0,3.55,3.55H49a2.07,2.07,0,0,0,2.07-2.07V46a.67.67,0,0,0-.67-.67.66.66,0,0,0-.66.67v5.88a.73.73,0,0,1-.74.73H46.25v-5a1.91,1.91,0,0,0-1.91-1.91H40.28a1.9,1.9,0,0,0-1.91,1.91v5H35V33.86H49.75v9a.66.66,0,0,0,.66.67.67.67,0,0,0,.67-.67v-9a1.65,1.65,0,0,0,1.33-1.24l1.77-7.3a1.66,1.66,0,0,0-.3-1.41ZM39.7,47.53a.58.58,0,0,1,.58-.58h4.06a.58.58,0,0,1,.57.58v5H39.7ZM34.88,15.88A.46.46,0,0,1,35,15.5a.45.45,0,0,1,.35-.17h14a.45.45,0,0,1,.35.17.43.43,0,0,1,.08.38l-1.79,7.38H36.67ZM14.62,39.23a1.14,1.14,0,0,1,.8-.33H33.63v3H12ZM11.1,50.35V43.23H33.63v9.33H31.55v-5a1.91,1.91,0,0,0-1.91-1.91H25.58a1.9,1.9,0,0,0-1.91,1.91v5H13.32a2.22,2.22,0,0,1-2.22-2.21ZM25,52.56v-5a.58.58,0,0,1,.58-.58h4.06a.58.58,0,0,1,.57.58v5ZM52.89,25c-1.61,6.08-1.46,7.84-2.48,7.54H34.3c-.27,0-.66.12-.81-.24L31.72,25c0-.14,0-.3.31-.39H52.58c.13,0,.3,0,.31.39Z"/><path class="cls-1" d="M48.3,26.28H36.62A.67.67,0,0,0,36,27v3.22a.67.67,0,0,0,.67.67H48.3a.67.67,0,0,0,.67-.67V27a.67.67,0,0,0-.67-.67Zm-.67,3.23H37.29V27.62H47.63Z"/><path class="cls-1" d="M20.61,45.62H14.06a.67.67,0,0,0,0,1.33h6.55a.67.67,0,0,0,0-1.33Z"/><path class="cls-1" d="M39,35.35a.67.67,0,0,0,0,1.33h6.55a.67.67,0,1,0,0-1.33Z"/><path class="cls-1" d="M40.44,18.59a.74.74,0,1,0,.74.74A.74.74,0,0,0,40.44,18.59Z"/><path class="cls-1" d="M44,18.59a.74.74,0,1,0,.74.74A.74.74,0,0,0,44,18.59Z"/><path class="cls-1" d="M10.54,20.49l1.58,1.35a4.54,4.54,0,0,0,5.12.37l13.61-8.6a.7.7,0,0,0,.18-1c-.75-1-2.67-2.6-4.53-1.47-1.54.94-4.2,2.73-5.08,3.32L16.6,12.64a.64.64,0,0,0-.51,0l-2.33,1a.68.68,0,0,0-.18,1.11l2.92,2.59L14.74,19l-2.62-.36a.72.72,0,0,0-.47.11l-1.06.73a.69.69,0,0,0-.05,1.06ZM12.2,20c.52,0,2.81.61,3.21.19L18,17.84a.68.68,0,0,0,0-1l-2.69-2.39L16.37,14l4.9,1.88a.64.64,0,0,0,.61-.07s3.51-2.38,5.31-3.48c.83-.51,1.73.1,2.27.6L16.53,21.09A3.23,3.23,0,0,1,13,20.82L12.06,20Z"/><path class="cls-1" d="M16.53,30.41l-2.84,1.75a.67.67,0,0,0-.22.92.68.68,0,0,0,.57.31.64.64,0,0,0,.35-.1l2.84-1.74a.67.67,0,0,0-.7-1.14Z"/><path class="cls-1" d="M23.39,22.87a.68.68,0,0,0-.92-.21L15.9,26.83a.67.67,0,0,0,.36,1.23.66.66,0,0,0,.35-.11l6.57-4.16a.68.68,0,0,0,.21-.92Z"/></svg>